%TF.GenerationSoftware,KiCad,Pcbnew,8.0.8*%
%TF.CreationDate,2025-02-09T13:51:33-05:00*%
%TF.ProjectId,ESPHomeACMonitor,45535048-6f6d-4654-9143-4d6f6e69746f,rev?*%
%TF.SameCoordinates,Original*%
%TF.FileFunction,Soldermask,Top*%
%TF.FilePolarity,Negative*%
%FSLAX46Y46*%
G04 Gerber Fmt 4.6, Leading zero omitted, Abs format (unit mm)*
G04 Created by KiCad (PCBNEW 8.0.8) date 2025-02-09 13:51:33*
%MOMM*%
%LPD*%
G01*
G04 APERTURE LIST*
G04 Aperture macros list*
%AMRoundRect*
0 Rectangle with rounded corners*
0 $1 Rounding radius*
0 $2 $3 $4 $5 $6 $7 $8 $9 X,Y pos of 4 corners*
0 Add a 4 corners polygon primitive as box body*
4,1,4,$2,$3,$4,$5,$6,$7,$8,$9,$2,$3,0*
0 Add four circle primitives for the rounded corners*
1,1,$1+$1,$2,$3*
1,1,$1+$1,$4,$5*
1,1,$1+$1,$6,$7*
1,1,$1+$1,$8,$9*
0 Add four rect primitives between the rounded corners*
20,1,$1+$1,$2,$3,$4,$5,0*
20,1,$1+$1,$4,$5,$6,$7,0*
20,1,$1+$1,$6,$7,$8,$9,0*
20,1,$1+$1,$8,$9,$2,$3,0*%
G04 Aperture macros list end*
%ADD10C,5.700000*%
%ADD11RoundRect,0.150000X0.150000X-0.825000X0.150000X0.825000X-0.150000X0.825000X-0.150000X-0.825000X0*%
%ADD12RoundRect,0.250000X0.950000X0.425000X-0.950000X0.425000X-0.950000X-0.425000X0.950000X-0.425000X0*%
%ADD13R,0.900000X1.500000*%
%ADD14R,0.900000X0.900000*%
%ADD15C,2.000000*%
%ADD16O,1.600000X1.600000*%
%ADD17C,1.600000*%
%ADD18R,5.400000X2.900000*%
%ADD19R,1.700000X1.700000*%
%ADD20O,1.700000X1.700000*%
%ADD21R,2.600000X2.600000*%
%ADD22C,2.600000*%
%ADD23RoundRect,0.250001X-0.799999X0.799999X-0.799999X-0.799999X0.799999X-0.799999X0.799999X0.799999X0*%
%ADD24C,2.100000*%
%ADD25O,2.600000X2.600000*%
%ADD26R,1.600000X1.600000*%
%ADD27R,2.000000X2.000000*%
%ADD28RoundRect,0.250000X0.300000X-2.050000X0.300000X2.050000X-0.300000X2.050000X-0.300000X-2.050000X0*%
%ADD29RoundRect,0.250002X5.149998X-4.449998X5.149998X4.449998X-5.149998X4.449998X-5.149998X-4.449998X0*%
G04 APERTURE END LIST*
D10*
%TO.C,REF\u002A\u002A*%
X41000000Y-75000000D03*
%TD*%
%TO.C,REF\u002A\u002A*%
X61000000Y-26000000D03*
%TD*%
D11*
%TO.C,U4*%
X33595000Y-82025000D03*
X34865000Y-82025000D03*
X36135000Y-82025000D03*
X37405000Y-82025000D03*
X37405000Y-86975000D03*
X36135000Y-86975000D03*
X34865000Y-86975000D03*
X33595000Y-86975000D03*
%TD*%
%TO.C,U3*%
X45595000Y-82025000D03*
X46865000Y-82025000D03*
X48135000Y-82025000D03*
X49405000Y-82025000D03*
X49405000Y-86975000D03*
X48135000Y-86975000D03*
X46865000Y-86975000D03*
X45595000Y-86975000D03*
%TD*%
D12*
%TO.C,U2*%
X74200000Y-96810000D03*
X74200000Y-94270000D03*
X74200000Y-91730000D03*
X74200000Y-89190000D03*
X57800000Y-89190000D03*
X57800000Y-91730000D03*
X57800000Y-94270000D03*
X57800000Y-96810000D03*
%TD*%
D13*
%TO.C,U1*%
X75755000Y-62750000D03*
X74485000Y-62750000D03*
X73215000Y-62750000D03*
X71945000Y-62750000D03*
X70675000Y-62750000D03*
X69405000Y-62750000D03*
X68135000Y-62750000D03*
X66865000Y-62750000D03*
X65595000Y-62750000D03*
X64325000Y-62750000D03*
X63055000Y-62750000D03*
X61785000Y-62750000D03*
X60515000Y-62750000D03*
X59245000Y-62750000D03*
X57975000Y-62750000D03*
X56705000Y-62750000D03*
X55435000Y-62750000D03*
X54165000Y-62750000D03*
X52895000Y-62750000D03*
X52895000Y-80250000D03*
X54165000Y-80250000D03*
X55435000Y-80250000D03*
X56705000Y-80250000D03*
X57975000Y-80250000D03*
X59245000Y-80250000D03*
X60515000Y-80250000D03*
X61785000Y-80250000D03*
X63055000Y-80250000D03*
X64325000Y-80250000D03*
X65595000Y-80250000D03*
X66865000Y-80250000D03*
X68135000Y-80250000D03*
X69405000Y-80250000D03*
X70675000Y-80250000D03*
X71945000Y-80250000D03*
X73215000Y-80250000D03*
X74485000Y-80250000D03*
X75755000Y-80250000D03*
D14*
X69360000Y-68595000D03*
X67960000Y-68600000D03*
X66560000Y-68600000D03*
X69360000Y-70000000D03*
X67960000Y-70000000D03*
X66560000Y-70000000D03*
X69360000Y-71400000D03*
X67960000Y-71400000D03*
X66560000Y-71400000D03*
%TD*%
D15*
%TO.C,SW1*%
X46500000Y-60500000D03*
X46500000Y-67000000D03*
X42000000Y-60500000D03*
X42000000Y-67000000D03*
%TD*%
D16*
%TO.C,R1*%
X50660000Y-52000000D03*
D17*
X40500000Y-52000000D03*
%TD*%
D18*
%TO.C,L1*%
X58500000Y-42650000D03*
X58500000Y-52350000D03*
%TD*%
D19*
%TO.C,JP1*%
X72000000Y-84000000D03*
D20*
X74540000Y-84000000D03*
%TD*%
D21*
%TO.C,J4*%
X37000000Y-32500000D03*
D22*
X37000000Y-37580000D03*
%TD*%
%TO.C,J3*%
X40580000Y-94500000D03*
D21*
X35500000Y-94500000D03*
%TD*%
D22*
%TO.C,J2*%
X52580000Y-94500000D03*
D21*
X47500000Y-94500000D03*
%TD*%
D23*
%TO.C,J1*%
X36000000Y-59000000D03*
D24*
X36000000Y-63600000D03*
X36000000Y-68200000D03*
%TD*%
D21*
%TO.C,D2*%
X48000000Y-46000000D03*
D25*
X35300000Y-46000000D03*
%TD*%
D16*
%TO.C,D1*%
X44000000Y-37580000D03*
X44000000Y-32500000D03*
X51620000Y-32500000D03*
D26*
X51620000Y-37580000D03*
%TD*%
D27*
%TO.C,C9*%
X69000000Y-51000000D03*
D15*
X74000000Y-51000000D03*
%TD*%
D27*
%TO.C,C8*%
X58000000Y-37580000D03*
D15*
X58000000Y-32580000D03*
%TD*%
D17*
%TO.C,C7*%
X62500000Y-84500000D03*
X60000000Y-84500000D03*
%TD*%
%TO.C,C6*%
X39500000Y-87000000D03*
X42000000Y-87000000D03*
%TD*%
%TO.C,C5*%
X54000000Y-87000000D03*
X51500000Y-87000000D03*
%TD*%
%TO.C,C4*%
X39500000Y-56000000D03*
X42000000Y-56000000D03*
%TD*%
%TO.C,C1*%
X70000000Y-59000000D03*
X75000000Y-59000000D03*
%TD*%
D28*
%TO.C,U5*%
X74400000Y-42650000D03*
X72700000Y-42650000D03*
D29*
X71000000Y-33500000D03*
D28*
X71000000Y-42650000D03*
X69300000Y-42650000D03*
X67600000Y-42650000D03*
%TD*%
D17*
%TO.C,C3*%
X44500000Y-56000000D03*
X47000000Y-56000000D03*
%TD*%
%TO.C,C2*%
X67000000Y-59000000D03*
X64500000Y-59000000D03*
%TD*%
M02*
