%TF.GenerationSoftware,KiCad,Pcbnew,8.0.8*%
%TF.CreationDate,2025-02-09T13:51:33-05:00*%
%TF.ProjectId,ESPHomeACMonitor,45535048-6f6d-4654-9143-4d6f6e69746f,rev?*%
%TF.SameCoordinates,Original*%
%TF.FileFunction,Soldermask,Bot*%
%TF.FilePolarity,Negative*%
%FSLAX46Y46*%
G04 Gerber Fmt 4.6, Leading zero omitted, Abs format (unit mm)*
G04 Created by KiCad (PCBNEW 8.0.8) date 2025-02-09 13:51:33*
%MOMM*%
%LPD*%
G01*
G04 APERTURE LIST*
G04 Aperture macros list*
%AMRoundRect*
0 Rectangle with rounded corners*
0 $1 Rounding radius*
0 $2 $3 $4 $5 $6 $7 $8 $9 X,Y pos of 4 corners*
0 Add a 4 corners polygon primitive as box body*
4,1,4,$2,$3,$4,$5,$6,$7,$8,$9,$2,$3,0*
0 Add four circle primitives for the rounded corners*
1,1,$1+$1,$2,$3*
1,1,$1+$1,$4,$5*
1,1,$1+$1,$6,$7*
1,1,$1+$1,$8,$9*
0 Add four rect primitives between the rounded corners*
20,1,$1+$1,$2,$3,$4,$5,0*
20,1,$1+$1,$4,$5,$6,$7,0*
20,1,$1+$1,$6,$7,$8,$9,0*
20,1,$1+$1,$8,$9,$2,$3,0*%
G04 Aperture macros list end*
%ADD10C,5.700000*%
%ADD11C,2.000000*%
%ADD12O,1.600000X1.600000*%
%ADD13C,1.600000*%
%ADD14R,1.700000X1.700000*%
%ADD15O,1.700000X1.700000*%
%ADD16R,2.600000X2.600000*%
%ADD17C,2.600000*%
%ADD18RoundRect,0.250001X-0.799999X0.799999X-0.799999X-0.799999X0.799999X-0.799999X0.799999X0.799999X0*%
%ADD19C,2.100000*%
%ADD20O,2.600000X2.600000*%
%ADD21R,1.600000X1.600000*%
%ADD22R,2.000000X2.000000*%
G04 APERTURE END LIST*
D10*
%TO.C,REF\u002A\u002A*%
X41000000Y-75000000D03*
%TD*%
%TO.C,REF\u002A\u002A*%
X61000000Y-26000000D03*
%TD*%
D11*
%TO.C,SW1*%
X46500000Y-60500000D03*
X46500000Y-67000000D03*
X42000000Y-60500000D03*
X42000000Y-67000000D03*
%TD*%
D12*
%TO.C,R1*%
X50660000Y-52000000D03*
D13*
X40500000Y-52000000D03*
%TD*%
D14*
%TO.C,JP1*%
X72000000Y-84000000D03*
D15*
X74540000Y-84000000D03*
%TD*%
D16*
%TO.C,J4*%
X37000000Y-32500000D03*
D17*
X37000000Y-37580000D03*
%TD*%
%TO.C,J3*%
X40580000Y-94500000D03*
D16*
X35500000Y-94500000D03*
%TD*%
D17*
%TO.C,J2*%
X52580000Y-94500000D03*
D16*
X47500000Y-94500000D03*
%TD*%
D18*
%TO.C,J1*%
X36000000Y-59000000D03*
D19*
X36000000Y-63600000D03*
X36000000Y-68200000D03*
%TD*%
D16*
%TO.C,D2*%
X48000000Y-46000000D03*
D20*
X35300000Y-46000000D03*
%TD*%
D12*
%TO.C,D1*%
X44000000Y-37580000D03*
X44000000Y-32500000D03*
X51620000Y-32500000D03*
D21*
X51620000Y-37580000D03*
%TD*%
D22*
%TO.C,C9*%
X69000000Y-51000000D03*
D11*
X74000000Y-51000000D03*
%TD*%
D22*
%TO.C,C8*%
X58000000Y-37580000D03*
D11*
X58000000Y-32580000D03*
%TD*%
D13*
%TO.C,C7*%
X62500000Y-84500000D03*
X60000000Y-84500000D03*
%TD*%
%TO.C,C6*%
X39500000Y-87000000D03*
X42000000Y-87000000D03*
%TD*%
%TO.C,C5*%
X54000000Y-87000000D03*
X51500000Y-87000000D03*
%TD*%
%TO.C,C4*%
X39500000Y-56000000D03*
X42000000Y-56000000D03*
%TD*%
%TO.C,C1*%
X70000000Y-59000000D03*
X75000000Y-59000000D03*
%TD*%
%TO.C,C3*%
X44500000Y-56000000D03*
X47000000Y-56000000D03*
%TD*%
%TO.C,C2*%
X67000000Y-59000000D03*
X64500000Y-59000000D03*
%TD*%
M02*
