%TF.GenerationSoftware,KiCad,Pcbnew,8.0.8*%
%TF.CreationDate,2025-02-09T13:51:33-05:00*%
%TF.ProjectId,ESPHomeACMonitor,45535048-6f6d-4654-9143-4d6f6e69746f,rev?*%
%TF.SameCoordinates,Original*%
%TF.FileFunction,Copper,L2,Bot*%
%TF.FilePolarity,Positive*%
%FSLAX46Y46*%
G04 Gerber Fmt 4.6, Leading zero omitted, Abs format (unit mm)*
G04 Created by KiCad (PCBNEW 8.0.8) date 2025-02-09 13:51:33*
%MOMM*%
%LPD*%
G01*
G04 APERTURE LIST*
G04 Aperture macros list*
%AMRoundRect*
0 Rectangle with rounded corners*
0 $1 Rounding radius*
0 $2 $3 $4 $5 $6 $7 $8 $9 X,Y pos of 4 corners*
0 Add a 4 corners polygon primitive as box body*
4,1,4,$2,$3,$4,$5,$6,$7,$8,$9,$2,$3,0*
0 Add four circle primitives for the rounded corners*
1,1,$1+$1,$2,$3*
1,1,$1+$1,$4,$5*
1,1,$1+$1,$6,$7*
1,1,$1+$1,$8,$9*
0 Add four rect primitives between the rounded corners*
20,1,$1+$1,$2,$3,$4,$5,0*
20,1,$1+$1,$4,$5,$6,$7,0*
20,1,$1+$1,$6,$7,$8,$9,0*
20,1,$1+$1,$8,$9,$2,$3,0*%
G04 Aperture macros list end*
%TA.AperFunction,ComponentPad*%
%ADD10C,5.700000*%
%TD*%
%TA.AperFunction,ComponentPad*%
%ADD11C,2.000000*%
%TD*%
%TA.AperFunction,ComponentPad*%
%ADD12O,1.600000X1.600000*%
%TD*%
%TA.AperFunction,ComponentPad*%
%ADD13C,1.600000*%
%TD*%
%TA.AperFunction,ComponentPad*%
%ADD14R,1.700000X1.700000*%
%TD*%
%TA.AperFunction,ComponentPad*%
%ADD15O,1.700000X1.700000*%
%TD*%
%TA.AperFunction,ComponentPad*%
%ADD16R,2.600000X2.600000*%
%TD*%
%TA.AperFunction,ComponentPad*%
%ADD17C,2.600000*%
%TD*%
%TA.AperFunction,ComponentPad*%
%ADD18RoundRect,0.250001X-0.799999X0.799999X-0.799999X-0.799999X0.799999X-0.799999X0.799999X0.799999X0*%
%TD*%
%TA.AperFunction,ComponentPad*%
%ADD19C,2.100000*%
%TD*%
%TA.AperFunction,ComponentPad*%
%ADD20O,2.600000X2.600000*%
%TD*%
%TA.AperFunction,ComponentPad*%
%ADD21R,1.600000X1.600000*%
%TD*%
%TA.AperFunction,ComponentPad*%
%ADD22R,2.000000X2.000000*%
%TD*%
%TA.AperFunction,ViaPad*%
%ADD23C,0.600000*%
%TD*%
%TA.AperFunction,Conductor*%
%ADD24C,0.750000*%
%TD*%
G04 APERTURE END LIST*
D10*
%TO.P,REF\u002A\u002A,1*%
%TO.N,N/C*%
X41000000Y-75000000D03*
%TD*%
%TO.P,REF\u002A\u002A,1*%
%TO.N,N/C*%
X61000000Y-26000000D03*
%TD*%
D11*
%TO.P,SW1,2,2*%
%TO.N,Net-(U1-EN{slash}CHIP_PU)*%
X46500000Y-60500000D03*
X46500000Y-67000000D03*
%TO.P,SW1,1,1*%
%TO.N,GND*%
X42000000Y-60500000D03*
X42000000Y-67000000D03*
%TD*%
D12*
%TO.P,R1,2*%
%TO.N,+3.3V*%
X50660000Y-52000000D03*
D13*
%TO.P,R1,1*%
%TO.N,Net-(U1-EN{slash}CHIP_PU)*%
X40500000Y-52000000D03*
%TD*%
D14*
%TO.P,JP1,1,A*%
%TO.N,Net-(JP1-A)*%
X72000000Y-84000000D03*
D15*
%TO.P,JP1,2,B*%
%TO.N,GND*%
X74540000Y-84000000D03*
%TD*%
D16*
%TO.P,J4,1,Pin_1*%
%TO.N,Net-(J4-Pin_1)*%
X37000000Y-32500000D03*
D17*
%TO.P,J4,2,Pin_2*%
%TO.N,Net-(J4-Pin_2)*%
X37000000Y-37580000D03*
%TD*%
%TO.P,J3,2,Pin_2*%
%TO.N,Net-(J3-Pin_2)*%
X40580000Y-94500000D03*
D16*
%TO.P,J3,1,Pin_1*%
%TO.N,Net-(J3-Pin_1)*%
X35500000Y-94500000D03*
%TD*%
D17*
%TO.P,J2,2,Pin_2*%
%TO.N,Net-(J2-Pin_2)*%
X52580000Y-94500000D03*
D16*
%TO.P,J2,1,Pin_1*%
%TO.N,Net-(J2-Pin_1)*%
X47500000Y-94500000D03*
%TD*%
D18*
%TO.P,J1,1,Pin_1*%
%TO.N,Net-(J1-Pin_1)*%
X36000000Y-59000000D03*
D19*
%TO.P,J1,2,Pin_2*%
%TO.N,Net-(J1-Pin_2)*%
X36000000Y-63600000D03*
%TO.P,J1,3,Pin_3*%
%TO.N,GND*%
X36000000Y-68200000D03*
%TD*%
D16*
%TO.P,D2,1,K*%
%TO.N,Net-(D2-K)*%
X48000000Y-46000000D03*
D20*
%TO.P,D2,2,A*%
%TO.N,GND*%
X35300000Y-46000000D03*
%TD*%
D12*
%TO.P,D1,4*%
%TO.N,Net-(J4-Pin_2)*%
X44000000Y-37580000D03*
%TO.P,D1,3*%
%TO.N,Net-(J4-Pin_1)*%
X44000000Y-32500000D03*
%TO.P,D1,2,-*%
%TO.N,GND*%
X51620000Y-32500000D03*
D21*
%TO.P,D1,1,+*%
%TO.N,Net-(D1-+)*%
X51620000Y-37580000D03*
%TD*%
D22*
%TO.P,C9,1*%
%TO.N,+3.3V*%
X69000000Y-51000000D03*
D11*
%TO.P,C9,2*%
%TO.N,GND*%
X74000000Y-51000000D03*
%TD*%
D22*
%TO.P,C8,1*%
%TO.N,Net-(D1-+)*%
X58000000Y-37580000D03*
D11*
%TO.P,C8,2*%
%TO.N,GND*%
X58000000Y-32580000D03*
%TD*%
D13*
%TO.P,C7,2*%
%TO.N,GND*%
X62500000Y-84500000D03*
%TO.P,C7,1*%
%TO.N,+3.3V*%
X60000000Y-84500000D03*
%TD*%
%TO.P,C6,1*%
%TO.N,+3.3V*%
X39500000Y-87000000D03*
%TO.P,C6,2*%
%TO.N,GND*%
X42000000Y-87000000D03*
%TD*%
%TO.P,C5,2*%
%TO.N,GND*%
X54000000Y-87000000D03*
%TO.P,C5,1*%
%TO.N,+3.3V*%
X51500000Y-87000000D03*
%TD*%
%TO.P,C4,1*%
%TO.N,GND*%
X39500000Y-56000000D03*
%TO.P,C4,2*%
%TO.N,Net-(U1-EN{slash}CHIP_PU)*%
X42000000Y-56000000D03*
%TD*%
%TO.P,C1,1*%
%TO.N,+3.3V*%
X70000000Y-59000000D03*
%TO.P,C1,2*%
%TO.N,GND*%
X75000000Y-59000000D03*
%TD*%
%TO.P,C3,1*%
%TO.N,Net-(U1-EN{slash}CHIP_PU)*%
X44500000Y-56000000D03*
%TO.P,C3,2*%
%TO.N,+3.3V*%
X47000000Y-56000000D03*
%TD*%
%TO.P,C2,1*%
%TO.N,+3.3V*%
X67000000Y-59000000D03*
%TO.P,C2,2*%
%TO.N,GND*%
X64500000Y-59000000D03*
%TD*%
D23*
%TO.N,Net-(JP1-A)*%
X60000000Y-82000000D03*
%TO.N,/MISO*%
X36000000Y-78500000D03*
X52500000Y-74000000D03*
X48000000Y-78500000D03*
%TO.N,Net-(J1-Pin_1)*%
X71810749Y-78689251D03*
%TO.N,Net-(J1-Pin_2)*%
X70500000Y-78500000D03*
%TD*%
D24*
%TO.N,Net-(JP1-A)*%
X72000000Y-84000000D02*
X70000000Y-82000000D01*
X70000000Y-82000000D02*
X60000000Y-82000000D01*
%TO.N,/MISO*%
X36000000Y-78500000D02*
X48000000Y-78500000D01*
X48000000Y-78500000D02*
X52500000Y-74000000D01*
%TO.N,Net-(J1-Pin_2)*%
X70500000Y-78500000D02*
X62000000Y-70000000D01*
X62000000Y-70000000D02*
X41000000Y-70000000D01*
X41000000Y-70000000D02*
X38500000Y-67500000D01*
X38500000Y-67500000D02*
X38500000Y-66100000D01*
X38500000Y-66100000D02*
X36000000Y-63600000D01*
%TO.N,Net-(J1-Pin_1)*%
X71810749Y-78689251D02*
X71810749Y-78467246D01*
X71810749Y-78467246D02*
X62343503Y-69000000D01*
X41343502Y-69000000D02*
X39450000Y-67106498D01*
X62343503Y-69000000D02*
X41343502Y-69000000D01*
X39450000Y-67106498D02*
X39450000Y-62450000D01*
X39450000Y-62450000D02*
X36000000Y-59000000D01*
%TD*%
%TA.AperFunction,Conductor*%
%TO.N,+3.3V*%
G36*
X60239403Y-22520185D02*
G01*
X60285158Y-22572989D01*
X60295102Y-22642147D01*
X60266077Y-22705703D01*
X60207299Y-22743477D01*
X60199020Y-22745601D01*
X60102330Y-22766883D01*
X59836178Y-22856560D01*
X59758031Y-22882892D01*
X59758028Y-22882893D01*
X59758020Y-22882896D01*
X59428300Y-23035440D01*
X59428296Y-23035442D01*
X59196453Y-23174937D01*
X59116981Y-23222755D01*
X59027332Y-23290903D01*
X58827755Y-23442617D01*
X58827745Y-23442625D01*
X58563978Y-23692479D01*
X58328772Y-23969386D01*
X58124884Y-24270098D01*
X58124878Y-24270107D01*
X57954706Y-24591086D01*
X57954700Y-24591098D01*
X57820226Y-24928603D01*
X57820221Y-24928618D01*
X57723030Y-25278670D01*
X57723024Y-25278696D01*
X57664250Y-25637200D01*
X57664248Y-25637217D01*
X57644579Y-25999997D01*
X57644579Y-26000002D01*
X57664248Y-26362782D01*
X57664250Y-26362799D01*
X57723024Y-26721303D01*
X57723030Y-26721329D01*
X57820221Y-27071381D01*
X57820226Y-27071396D01*
X57954700Y-27408901D01*
X57954706Y-27408913D01*
X58124878Y-27729892D01*
X58124881Y-27729897D01*
X58124883Y-27729900D01*
X58328773Y-28030614D01*
X58563979Y-28307521D01*
X58827746Y-28557375D01*
X59116981Y-28777245D01*
X59428292Y-28964555D01*
X59428294Y-28964556D01*
X59428296Y-28964557D01*
X59428300Y-28964559D01*
X59758020Y-29117103D01*
X59758031Y-29117108D01*
X60102330Y-29233116D01*
X60457153Y-29311218D01*
X60818341Y-29350500D01*
X60818347Y-29350500D01*
X61181653Y-29350500D01*
X61181659Y-29350500D01*
X61542847Y-29311218D01*
X61897670Y-29233116D01*
X62241969Y-29117108D01*
X62571708Y-28964555D01*
X62883019Y-28777245D01*
X63172254Y-28557375D01*
X63436021Y-28307521D01*
X63671227Y-28030614D01*
X63875117Y-27729900D01*
X64045298Y-27408905D01*
X64179775Y-27071391D01*
X64276973Y-26721316D01*
X64335751Y-26362785D01*
X64355421Y-26000000D01*
X64335751Y-25637215D01*
X64276973Y-25278684D01*
X64259097Y-25214303D01*
X64179778Y-24928618D01*
X64179773Y-24928603D01*
X64045299Y-24591098D01*
X64045298Y-24591095D01*
X63875117Y-24270100D01*
X63671227Y-23969386D01*
X63436021Y-23692479D01*
X63172254Y-23442625D01*
X63172244Y-23442617D01*
X63103635Y-23390462D01*
X62883019Y-23222755D01*
X62571708Y-23035445D01*
X62571707Y-23035444D01*
X62571703Y-23035442D01*
X62571699Y-23035440D01*
X62241979Y-22882896D01*
X62241974Y-22882894D01*
X62241969Y-22882892D01*
X62074143Y-22826344D01*
X61897669Y-22766883D01*
X61800980Y-22745601D01*
X61739739Y-22711965D01*
X61706405Y-22650560D01*
X61711561Y-22580881D01*
X61753570Y-22525050D01*
X61819094Y-22500795D01*
X61827636Y-22500500D01*
X76375500Y-22500500D01*
X76442539Y-22520185D01*
X76488294Y-22572989D01*
X76499500Y-22624500D01*
X76499500Y-58629588D01*
X76479815Y-58696627D01*
X76427011Y-58742382D01*
X76357853Y-58752326D01*
X76294297Y-58723301D01*
X76256523Y-58664523D01*
X76255725Y-58661681D01*
X76226741Y-58553511D01*
X76226738Y-58553502D01*
X76171277Y-58434567D01*
X76130568Y-58347266D01*
X76000047Y-58160861D01*
X76000045Y-58160858D01*
X75839141Y-57999954D01*
X75652734Y-57869432D01*
X75652732Y-57869431D01*
X75446497Y-57773261D01*
X75446488Y-57773258D01*
X75226697Y-57714366D01*
X75226693Y-57714365D01*
X75226692Y-57714365D01*
X75226691Y-57714364D01*
X75226686Y-57714364D01*
X75000002Y-57694532D01*
X74999998Y-57694532D01*
X74773313Y-57714364D01*
X74773302Y-57714366D01*
X74553511Y-57773258D01*
X74553502Y-57773261D01*
X74347267Y-57869431D01*
X74347265Y-57869432D01*
X74160858Y-57999954D01*
X73999954Y-58160858D01*
X73869432Y-58347265D01*
X73869431Y-58347267D01*
X73773261Y-58553502D01*
X73773258Y-58553511D01*
X73714366Y-58773302D01*
X73714364Y-58773313D01*
X73694532Y-58999998D01*
X73694532Y-59000001D01*
X73714364Y-59226686D01*
X73714366Y-59226697D01*
X73773258Y-59446488D01*
X73773261Y-59446497D01*
X73869431Y-59652732D01*
X73869432Y-59652734D01*
X73999954Y-59839141D01*
X74160858Y-60000045D01*
X74160861Y-60000047D01*
X74347266Y-60130568D01*
X74553504Y-60226739D01*
X74773308Y-60285635D01*
X74935230Y-60299801D01*
X74999998Y-60305468D01*
X75000000Y-60305468D01*
X75000002Y-60305468D01*
X75056673Y-60300509D01*
X75226692Y-60285635D01*
X75446496Y-60226739D01*
X75652734Y-60130568D01*
X75839139Y-60000047D01*
X76000047Y-59839139D01*
X76130568Y-59652734D01*
X76226739Y-59446496D01*
X76255725Y-59338317D01*
X76292090Y-59278657D01*
X76354936Y-59248128D01*
X76424312Y-59256422D01*
X76478190Y-59300908D01*
X76499465Y-59367459D01*
X76499500Y-59370411D01*
X76499500Y-99375500D01*
X76479815Y-99442539D01*
X76427011Y-99488294D01*
X76375500Y-99499500D01*
X32624500Y-99499500D01*
X32557461Y-99479815D01*
X32511706Y-99427011D01*
X32500500Y-99375500D01*
X32500500Y-93152135D01*
X33699500Y-93152135D01*
X33699500Y-95847870D01*
X33699501Y-95847876D01*
X33705908Y-95907483D01*
X33756202Y-96042328D01*
X33756206Y-96042335D01*
X33842452Y-96157544D01*
X33842455Y-96157547D01*
X33957664Y-96243793D01*
X33957671Y-96243797D01*
X34092517Y-96294091D01*
X34092516Y-96294091D01*
X34099444Y-96294835D01*
X34152127Y-96300500D01*
X36847872Y-96300499D01*
X36907483Y-96294091D01*
X37042331Y-96243796D01*
X37157546Y-96157546D01*
X37243796Y-96042331D01*
X37294091Y-95907483D01*
X37300500Y-95847873D01*
X37300499Y-94499995D01*
X38774451Y-94499995D01*
X38774451Y-94500004D01*
X38794616Y-94769101D01*
X38854664Y-95032188D01*
X38854666Y-95032195D01*
X38953257Y-95283398D01*
X39088185Y-95517102D01*
X39224080Y-95687509D01*
X39256442Y-95728089D01*
X39443183Y-95901358D01*
X39454259Y-95911635D01*
X39677226Y-96063651D01*
X39920359Y-96180738D01*
X40178228Y-96260280D01*
X40178229Y-96260280D01*
X40178232Y-96260281D01*
X40445063Y-96300499D01*
X40445068Y-96300499D01*
X40445071Y-96300500D01*
X40445072Y-96300500D01*
X40714928Y-96300500D01*
X40714929Y-96300500D01*
X40714936Y-96300499D01*
X40981767Y-96260281D01*
X40981768Y-96260280D01*
X40981772Y-96260280D01*
X41239641Y-96180738D01*
X41482775Y-96063651D01*
X41705741Y-95911635D01*
X41903561Y-95728085D01*
X42071815Y-95517102D01*
X42206743Y-95283398D01*
X42305334Y-95032195D01*
X42365383Y-94769103D01*
X42385549Y-94500000D01*
X42365383Y-94230897D01*
X42305334Y-93967805D01*
X42206743Y-93716602D01*
X42071815Y-93482898D01*
X41903561Y-93271915D01*
X41903560Y-93271914D01*
X41903557Y-93271910D01*
X41774469Y-93152135D01*
X45699500Y-93152135D01*
X45699500Y-95847870D01*
X45699501Y-95847876D01*
X45705908Y-95907483D01*
X45756202Y-96042328D01*
X45756206Y-96042335D01*
X45842452Y-96157544D01*
X45842455Y-96157547D01*
X45957664Y-96243793D01*
X45957671Y-96243797D01*
X46092517Y-96294091D01*
X46092516Y-96294091D01*
X46099444Y-96294835D01*
X46152127Y-96300500D01*
X48847872Y-96300499D01*
X48907483Y-96294091D01*
X49042331Y-96243796D01*
X49157546Y-96157546D01*
X49243796Y-96042331D01*
X49294091Y-95907483D01*
X49300500Y-95847873D01*
X49300499Y-94499995D01*
X50774451Y-94499995D01*
X50774451Y-94500004D01*
X50794616Y-94769101D01*
X50854664Y-95032188D01*
X50854666Y-95032195D01*
X50953257Y-95283398D01*
X51088185Y-95517102D01*
X51224080Y-95687509D01*
X51256442Y-95728089D01*
X51443183Y-95901358D01*
X51454259Y-95911635D01*
X51677226Y-96063651D01*
X51920359Y-96180738D01*
X52178228Y-96260280D01*
X52178229Y-96260280D01*
X52178232Y-96260281D01*
X52445063Y-96300499D01*
X52445068Y-96300499D01*
X52445071Y-96300500D01*
X52445072Y-96300500D01*
X52714928Y-96300500D01*
X52714929Y-96300500D01*
X52714936Y-96300499D01*
X52981767Y-96260281D01*
X52981768Y-96260280D01*
X52981772Y-96260280D01*
X53239641Y-96180738D01*
X53482775Y-96063651D01*
X53705741Y-95911635D01*
X53903561Y-95728085D01*
X54071815Y-95517102D01*
X54206743Y-95283398D01*
X54305334Y-95032195D01*
X54365383Y-94769103D01*
X54385549Y-94500000D01*
X54365383Y-94230897D01*
X54305334Y-93967805D01*
X54206743Y-93716602D01*
X54071815Y-93482898D01*
X53903561Y-93271915D01*
X53903560Y-93271914D01*
X53903557Y-93271910D01*
X53705741Y-93088365D01*
X53482775Y-92936349D01*
X53482769Y-92936346D01*
X53482768Y-92936345D01*
X53482767Y-92936344D01*
X53239643Y-92819263D01*
X53239645Y-92819263D01*
X52981773Y-92739720D01*
X52981767Y-92739718D01*
X52714936Y-92699500D01*
X52714929Y-92699500D01*
X52445071Y-92699500D01*
X52445063Y-92699500D01*
X52178232Y-92739718D01*
X52178226Y-92739720D01*
X51920358Y-92819262D01*
X51677230Y-92936346D01*
X51454258Y-93088365D01*
X51256442Y-93271910D01*
X51088185Y-93482898D01*
X50953258Y-93716599D01*
X50953256Y-93716603D01*
X50854666Y-93967804D01*
X50854664Y-93967811D01*
X50794616Y-94230898D01*
X50774451Y-94499995D01*
X49300499Y-94499995D01*
X49300499Y-93152128D01*
X49294091Y-93092517D01*
X49292542Y-93088365D01*
X49243797Y-92957671D01*
X49243793Y-92957664D01*
X49157547Y-92842455D01*
X49157544Y-92842452D01*
X49042335Y-92756206D01*
X49042328Y-92756202D01*
X48907482Y-92705908D01*
X48907483Y-92705908D01*
X48847883Y-92699501D01*
X48847881Y-92699500D01*
X48847873Y-92699500D01*
X48847864Y-92699500D01*
X46152129Y-92699500D01*
X46152123Y-92699501D01*
X46092516Y-92705908D01*
X45957671Y-92756202D01*
X45957664Y-92756206D01*
X45842455Y-92842452D01*
X45842452Y-92842455D01*
X45756206Y-92957664D01*
X45756202Y-92957671D01*
X45705908Y-93092517D01*
X45699501Y-93152116D01*
X45699501Y-93152123D01*
X45699500Y-93152135D01*
X41774469Y-93152135D01*
X41705741Y-93088365D01*
X41482775Y-92936349D01*
X41482769Y-92936346D01*
X41482768Y-92936345D01*
X41482767Y-92936344D01*
X41239643Y-92819263D01*
X41239645Y-92819263D01*
X40981773Y-92739720D01*
X40981767Y-92739718D01*
X40714936Y-92699500D01*
X40714929Y-92699500D01*
X40445071Y-92699500D01*
X40445063Y-92699500D01*
X40178232Y-92739718D01*
X40178226Y-92739720D01*
X39920358Y-92819262D01*
X39677230Y-92936346D01*
X39454258Y-93088365D01*
X39256442Y-93271910D01*
X39088185Y-93482898D01*
X38953258Y-93716599D01*
X38953256Y-93716603D01*
X38854666Y-93967804D01*
X38854664Y-93967811D01*
X38794616Y-94230898D01*
X38774451Y-94499995D01*
X37300499Y-94499995D01*
X37300499Y-93152128D01*
X37294091Y-93092517D01*
X37292542Y-93088365D01*
X37243797Y-92957671D01*
X37243793Y-92957664D01*
X37157547Y-92842455D01*
X37157544Y-92842452D01*
X37042335Y-92756206D01*
X37042328Y-92756202D01*
X36907482Y-92705908D01*
X36907483Y-92705908D01*
X36847883Y-92699501D01*
X36847881Y-92699500D01*
X36847873Y-92699500D01*
X36847864Y-92699500D01*
X34152129Y-92699500D01*
X34152123Y-92699501D01*
X34092516Y-92705908D01*
X33957671Y-92756202D01*
X33957664Y-92756206D01*
X33842455Y-92842452D01*
X33842452Y-92842455D01*
X33756206Y-92957664D01*
X33756202Y-92957671D01*
X33705908Y-93092517D01*
X33699501Y-93152116D01*
X33699501Y-93152123D01*
X33699500Y-93152135D01*
X32500500Y-93152135D01*
X32500500Y-86999997D01*
X38195034Y-86999997D01*
X38195034Y-87000002D01*
X38214858Y-87226599D01*
X38214860Y-87226610D01*
X38273730Y-87446317D01*
X38273735Y-87446331D01*
X38369863Y-87652478D01*
X38420974Y-87725472D01*
X39100000Y-87046446D01*
X39100000Y-87052661D01*
X39127259Y-87154394D01*
X39179920Y-87245606D01*
X39254394Y-87320080D01*
X39345606Y-87372741D01*
X39447339Y-87400000D01*
X39453553Y-87400000D01*
X38774526Y-88079025D01*
X38847513Y-88130132D01*
X38847521Y-88130136D01*
X39053668Y-88226264D01*
X39053682Y-88226269D01*
X39273389Y-88285139D01*
X39273400Y-88285141D01*
X39499998Y-88304966D01*
X39500002Y-88304966D01*
X39726599Y-88285141D01*
X39726610Y-88285139D01*
X39946317Y-88226269D01*
X39946331Y-88226264D01*
X40152478Y-88130136D01*
X40225471Y-88079024D01*
X39546447Y-87400000D01*
X39552661Y-87400000D01*
X39654394Y-87372741D01*
X39745606Y-87320080D01*
X39820080Y-87245606D01*
X39872741Y-87154394D01*
X39900000Y-87052661D01*
X39900000Y-87046447D01*
X40579024Y-87725471D01*
X40630134Y-87652481D01*
X40637340Y-87637028D01*
X40683511Y-87584587D01*
X40750704Y-87565433D01*
X40817585Y-87585646D01*
X40862105Y-87637022D01*
X40869430Y-87652730D01*
X40869432Y-87652734D01*
X40999954Y-87839141D01*
X41160858Y-88000045D01*
X41160861Y-88000047D01*
X41347266Y-88130568D01*
X41553504Y-88226739D01*
X41773308Y-88285635D01*
X41935230Y-88299801D01*
X41999998Y-88305468D01*
X42000000Y-88305468D01*
X42000002Y-88305468D01*
X42056673Y-88300509D01*
X42226692Y-88285635D01*
X42446496Y-88226739D01*
X42652734Y-88130568D01*
X42839139Y-88000047D01*
X43000047Y-87839139D01*
X43130568Y-87652734D01*
X43226739Y-87446496D01*
X43285635Y-87226692D01*
X43305468Y-87000000D01*
X43305468Y-86999997D01*
X50195034Y-86999997D01*
X50195034Y-87000002D01*
X50214858Y-87226599D01*
X50214860Y-87226610D01*
X50273730Y-87446317D01*
X50273735Y-87446331D01*
X50369863Y-87652478D01*
X50420974Y-87725472D01*
X51100000Y-87046446D01*
X51100000Y-87052661D01*
X51127259Y-87154394D01*
X51179920Y-87245606D01*
X51254394Y-87320080D01*
X51345606Y-87372741D01*
X51447339Y-87400000D01*
X51453553Y-87400000D01*
X50774526Y-88079025D01*
X50847513Y-88130132D01*
X50847521Y-88130136D01*
X51053668Y-88226264D01*
X51053682Y-88226269D01*
X51273389Y-88285139D01*
X51273400Y-88285141D01*
X51499998Y-88304966D01*
X51500002Y-88304966D01*
X51726599Y-88285141D01*
X51726610Y-88285139D01*
X51946317Y-88226269D01*
X51946331Y-88226264D01*
X52152478Y-88130136D01*
X52225471Y-88079024D01*
X51546447Y-87400000D01*
X51552661Y-87400000D01*
X51654394Y-87372741D01*
X51745606Y-87320080D01*
X51820080Y-87245606D01*
X51872741Y-87154394D01*
X51900000Y-87052661D01*
X51900000Y-87046447D01*
X52579024Y-87725471D01*
X52630134Y-87652481D01*
X52637340Y-87637028D01*
X52683511Y-87584587D01*
X52750704Y-87565433D01*
X52817585Y-87585646D01*
X52862105Y-87637022D01*
X52869430Y-87652730D01*
X52869432Y-87652734D01*
X52999954Y-87839141D01*
X53160858Y-88000045D01*
X53160861Y-88000047D01*
X53347266Y-88130568D01*
X53553504Y-88226739D01*
X53773308Y-88285635D01*
X53935230Y-88299801D01*
X53999998Y-88305468D01*
X54000000Y-88305468D01*
X54000002Y-88305468D01*
X54056673Y-88300509D01*
X54226692Y-88285635D01*
X54446496Y-88226739D01*
X54652734Y-88130568D01*
X54839139Y-88000047D01*
X55000047Y-87839139D01*
X55130568Y-87652734D01*
X55226739Y-87446496D01*
X55285635Y-87226692D01*
X55305468Y-87000000D01*
X55285635Y-86773308D01*
X55226739Y-86553504D01*
X55130568Y-86347266D01*
X55000047Y-86160861D01*
X55000045Y-86160858D01*
X54839141Y-85999954D01*
X54652734Y-85869432D01*
X54652732Y-85869431D01*
X54446497Y-85773261D01*
X54446488Y-85773258D01*
X54226697Y-85714366D01*
X54226693Y-85714365D01*
X54226692Y-85714365D01*
X54226691Y-85714364D01*
X54226686Y-85714364D01*
X54000002Y-85694532D01*
X53999998Y-85694532D01*
X53773313Y-85714364D01*
X53773302Y-85714366D01*
X53553511Y-85773258D01*
X53553502Y-85773261D01*
X53347267Y-85869431D01*
X53347265Y-85869432D01*
X53160858Y-85999954D01*
X52999954Y-86160858D01*
X52869432Y-86347265D01*
X52869429Y-86347270D01*
X52862104Y-86362979D01*
X52815929Y-86415417D01*
X52748735Y-86434566D01*
X52681855Y-86414347D01*
X52637341Y-86362973D01*
X52630133Y-86347515D01*
X52630132Y-86347513D01*
X52579025Y-86274526D01*
X51900000Y-86953551D01*
X51900000Y-86947339D01*
X51872741Y-86845606D01*
X51820080Y-86754394D01*
X51745606Y-86679920D01*
X51654394Y-86627259D01*
X51552661Y-86600000D01*
X51546445Y-86600000D01*
X52225472Y-85920974D01*
X52152478Y-85869863D01*
X51946331Y-85773735D01*
X51946317Y-85773730D01*
X51726610Y-85714860D01*
X51726599Y-85714858D01*
X51500002Y-85695034D01*
X51499998Y-85695034D01*
X51273400Y-85714858D01*
X51273389Y-85714860D01*
X51053682Y-85773730D01*
X51053673Y-85773734D01*
X50847516Y-85869866D01*
X50847512Y-85869868D01*
X50774526Y-85920973D01*
X50774526Y-85920974D01*
X51453553Y-86600000D01*
X51447339Y-86600000D01*
X51345606Y-86627259D01*
X51254394Y-86679920D01*
X51179920Y-86754394D01*
X51127259Y-86845606D01*
X51100000Y-86947339D01*
X51100000Y-86953552D01*
X50420974Y-86274526D01*
X50420973Y-86274526D01*
X50369868Y-86347512D01*
X50369866Y-86347516D01*
X50273734Y-86553673D01*
X50273730Y-86553682D01*
X50214860Y-86773389D01*
X50214858Y-86773400D01*
X50195034Y-86999997D01*
X43305468Y-86999997D01*
X43285635Y-86773308D01*
X43226739Y-86553504D01*
X43130568Y-86347266D01*
X43000047Y-86160861D01*
X43000045Y-86160858D01*
X42839141Y-85999954D01*
X42652734Y-85869432D01*
X42652732Y-85869431D01*
X42446497Y-85773261D01*
X42446488Y-85773258D01*
X42226697Y-85714366D01*
X42226693Y-85714365D01*
X42226692Y-85714365D01*
X42226691Y-85714364D01*
X42226686Y-85714364D01*
X42000002Y-85694532D01*
X41999998Y-85694532D01*
X41773313Y-85714364D01*
X41773302Y-85714366D01*
X41553511Y-85773258D01*
X41553502Y-85773261D01*
X41347267Y-85869431D01*
X41347265Y-85869432D01*
X41160858Y-85999954D01*
X40999954Y-86160858D01*
X40869432Y-86347265D01*
X40869429Y-86347270D01*
X40862104Y-86362979D01*
X40815929Y-86415417D01*
X40748735Y-86434566D01*
X40681855Y-86414347D01*
X40637341Y-86362973D01*
X40630133Y-86347515D01*
X40630132Y-86347513D01*
X40579025Y-86274526D01*
X39900000Y-86953551D01*
X39900000Y-86947339D01*
X39872741Y-86845606D01*
X39820080Y-86754394D01*
X39745606Y-86679920D01*
X39654394Y-86627259D01*
X39552661Y-86600000D01*
X39546445Y-86600000D01*
X40225472Y-85920974D01*
X40152478Y-85869863D01*
X39946331Y-85773735D01*
X39946317Y-85773730D01*
X39726610Y-85714860D01*
X39726599Y-85714858D01*
X39500002Y-85695034D01*
X39499998Y-85695034D01*
X39273400Y-85714858D01*
X39273389Y-85714860D01*
X39053682Y-85773730D01*
X39053673Y-85773734D01*
X38847516Y-85869866D01*
X38847512Y-85869868D01*
X38774526Y-85920973D01*
X38774526Y-85920974D01*
X39453553Y-86600000D01*
X39447339Y-86600000D01*
X39345606Y-86627259D01*
X39254394Y-86679920D01*
X39179920Y-86754394D01*
X39127259Y-86845606D01*
X39100000Y-86947339D01*
X39100000Y-86953552D01*
X38420974Y-86274526D01*
X38420973Y-86274526D01*
X38369868Y-86347512D01*
X38369866Y-86347516D01*
X38273734Y-86553673D01*
X38273730Y-86553682D01*
X38214860Y-86773389D01*
X38214858Y-86773400D01*
X38195034Y-86999997D01*
X32500500Y-86999997D01*
X32500500Y-84499997D01*
X58695034Y-84499997D01*
X58695034Y-84500002D01*
X58714858Y-84726599D01*
X58714860Y-84726610D01*
X58773730Y-84946317D01*
X58773735Y-84946331D01*
X58869863Y-85152478D01*
X58920974Y-85225472D01*
X59600000Y-84546446D01*
X59600000Y-84552661D01*
X59627259Y-84654394D01*
X59679920Y-84745606D01*
X59754394Y-84820080D01*
X59845606Y-84872741D01*
X59947339Y-84900000D01*
X59953553Y-84900000D01*
X59274526Y-85579025D01*
X59347513Y-85630132D01*
X59347521Y-85630136D01*
X59553668Y-85726264D01*
X59553682Y-85726269D01*
X59773389Y-85785139D01*
X59773400Y-85785141D01*
X59999998Y-85804966D01*
X60000002Y-85804966D01*
X60226599Y-85785141D01*
X60226610Y-85785139D01*
X60446317Y-85726269D01*
X60446331Y-85726264D01*
X60652478Y-85630136D01*
X60725471Y-85579024D01*
X60046447Y-84900000D01*
X60052661Y-84900000D01*
X60154394Y-84872741D01*
X60245606Y-84820080D01*
X60320080Y-84745606D01*
X60372741Y-84654394D01*
X60400000Y-84552661D01*
X60400000Y-84546447D01*
X61079024Y-85225471D01*
X61130134Y-85152481D01*
X61137340Y-85137028D01*
X61183511Y-85084587D01*
X61250704Y-85065433D01*
X61317585Y-85085646D01*
X61362105Y-85137022D01*
X61369430Y-85152730D01*
X61369432Y-85152734D01*
X61499954Y-85339141D01*
X61660858Y-85500045D01*
X61660861Y-85500047D01*
X61847266Y-85630568D01*
X62053504Y-85726739D01*
X62273308Y-85785635D01*
X62435230Y-85799801D01*
X62499998Y-85805468D01*
X62500000Y-85805468D01*
X62500002Y-85805468D01*
X62556673Y-85800509D01*
X62726692Y-85785635D01*
X62946496Y-85726739D01*
X63152734Y-85630568D01*
X63339139Y-85500047D01*
X63500047Y-85339139D01*
X63630568Y-85152734D01*
X63726739Y-84946496D01*
X63785635Y-84726692D01*
X63805468Y-84500000D01*
X63785635Y-84273308D01*
X63726739Y-84053504D01*
X63630568Y-83847266D01*
X63500047Y-83660861D01*
X63500045Y-83660858D01*
X63339141Y-83499954D01*
X63152734Y-83369432D01*
X63152732Y-83369431D01*
X62946497Y-83273261D01*
X62946488Y-83273258D01*
X62726697Y-83214366D01*
X62726693Y-83214365D01*
X62726692Y-83214365D01*
X62726691Y-83214364D01*
X62726686Y-83214364D01*
X62500002Y-83194532D01*
X62499998Y-83194532D01*
X62273313Y-83214364D01*
X62273302Y-83214366D01*
X62053511Y-83273258D01*
X62053502Y-83273261D01*
X61847267Y-83369431D01*
X61847265Y-83369432D01*
X61660858Y-83499954D01*
X61499954Y-83660858D01*
X61369432Y-83847265D01*
X61369429Y-83847270D01*
X61362104Y-83862979D01*
X61315929Y-83915417D01*
X61248735Y-83934566D01*
X61181855Y-83914347D01*
X61137341Y-83862973D01*
X61130133Y-83847515D01*
X61130132Y-83847513D01*
X61079025Y-83774526D01*
X60400000Y-84453551D01*
X60400000Y-84447339D01*
X60372741Y-84345606D01*
X60320080Y-84254394D01*
X60245606Y-84179920D01*
X60154394Y-84127259D01*
X60052661Y-84100000D01*
X60046445Y-84100000D01*
X60725472Y-83420974D01*
X60652478Y-83369863D01*
X60446331Y-83273735D01*
X60446317Y-83273730D01*
X60226610Y-83214860D01*
X60226599Y-83214858D01*
X60000002Y-83195034D01*
X59999998Y-83195034D01*
X59773400Y-83214858D01*
X59773389Y-83214860D01*
X59553682Y-83273730D01*
X59553673Y-83273734D01*
X59347516Y-83369866D01*
X59347512Y-83369868D01*
X59274526Y-83420973D01*
X59274526Y-83420974D01*
X59953553Y-84100000D01*
X59947339Y-84100000D01*
X59845606Y-84127259D01*
X59754394Y-84179920D01*
X59679920Y-84254394D01*
X59627259Y-84345606D01*
X59600000Y-84447339D01*
X59600000Y-84453552D01*
X58920974Y-83774526D01*
X58920973Y-83774526D01*
X58869868Y-83847512D01*
X58869866Y-83847516D01*
X58773734Y-84053673D01*
X58773730Y-84053682D01*
X58714860Y-84273389D01*
X58714858Y-84273400D01*
X58695034Y-84499997D01*
X32500500Y-84499997D01*
X32500500Y-81913766D01*
X59124500Y-81913766D01*
X59124500Y-82086233D01*
X59158143Y-82255366D01*
X59158146Y-82255378D01*
X59224138Y-82414698D01*
X59224145Y-82414711D01*
X59319954Y-82558098D01*
X59319957Y-82558102D01*
X59441897Y-82680042D01*
X59441901Y-82680045D01*
X59585288Y-82775854D01*
X59585301Y-82775861D01*
X59706264Y-82825965D01*
X59744626Y-82841855D01*
X59913766Y-82875499D01*
X59913769Y-82875500D01*
X59913771Y-82875500D01*
X69585994Y-82875500D01*
X69653033Y-82895185D01*
X69673675Y-82911819D01*
X70613181Y-83851325D01*
X70646666Y-83912648D01*
X70649500Y-83939006D01*
X70649500Y-84897870D01*
X70649501Y-84897876D01*
X70655908Y-84957483D01*
X70706202Y-85092328D01*
X70706206Y-85092335D01*
X70792452Y-85207544D01*
X70792455Y-85207547D01*
X70907664Y-85293793D01*
X70907671Y-85293797D01*
X71042517Y-85344091D01*
X71042516Y-85344091D01*
X71049444Y-85344835D01*
X71102127Y-85350500D01*
X72897872Y-85350499D01*
X72957483Y-85344091D01*
X73092331Y-85293796D01*
X73207546Y-85207546D01*
X73293796Y-85092331D01*
X73342810Y-84960916D01*
X73384681Y-84904984D01*
X73450145Y-84880566D01*
X73518418Y-84895417D01*
X73546673Y-84916569D01*
X73668599Y-85038495D01*
X73765384Y-85106265D01*
X73862165Y-85174032D01*
X73862167Y-85174033D01*
X73862170Y-85174035D01*
X74076337Y-85273903D01*
X74304592Y-85335063D01*
X74481034Y-85350500D01*
X74539999Y-85355659D01*
X74540000Y-85355659D01*
X74540001Y-85355659D01*
X74598966Y-85350500D01*
X74775408Y-85335063D01*
X75003663Y-85273903D01*
X75217830Y-85174035D01*
X75411401Y-85038495D01*
X75578495Y-84871401D01*
X75714035Y-84677830D01*
X75813903Y-84463663D01*
X75875063Y-84235408D01*
X75895659Y-84000000D01*
X75875063Y-83764592D01*
X75813903Y-83536337D01*
X75714035Y-83322171D01*
X75680120Y-83273734D01*
X75578494Y-83128597D01*
X75411402Y-82961506D01*
X75411395Y-82961501D01*
X75217834Y-82825967D01*
X75217830Y-82825965D01*
X75217828Y-82825964D01*
X75003663Y-82726097D01*
X75003659Y-82726096D01*
X75003655Y-82726094D01*
X74775413Y-82664938D01*
X74775403Y-82664936D01*
X74540001Y-82644341D01*
X74539999Y-82644341D01*
X74304596Y-82664936D01*
X74304586Y-82664938D01*
X74076344Y-82726094D01*
X74076335Y-82726098D01*
X73862171Y-82825964D01*
X73862169Y-82825965D01*
X73668600Y-82961503D01*
X73546673Y-83083430D01*
X73485350Y-83116914D01*
X73415658Y-83111930D01*
X73359725Y-83070058D01*
X73342810Y-83039081D01*
X73293797Y-82907671D01*
X73293793Y-82907664D01*
X73207547Y-82792455D01*
X73207544Y-82792452D01*
X73092335Y-82706206D01*
X73092328Y-82706202D01*
X72957482Y-82655908D01*
X72957483Y-82655908D01*
X72897883Y-82649501D01*
X72897881Y-82649500D01*
X72897873Y-82649500D01*
X72897865Y-82649500D01*
X71939006Y-82649500D01*
X71871967Y-82629815D01*
X71851325Y-82613181D01*
X70558102Y-81319957D01*
X70558098Y-81319954D01*
X70414711Y-81224145D01*
X70414698Y-81224138D01*
X70255378Y-81158146D01*
X70255366Y-81158143D01*
X70086232Y-81124500D01*
X70086229Y-81124500D01*
X59913771Y-81124500D01*
X59913768Y-81124500D01*
X59744633Y-81158143D01*
X59744621Y-81158146D01*
X59585301Y-81224138D01*
X59585288Y-81224145D01*
X59441901Y-81319954D01*
X59441897Y-81319957D01*
X59319957Y-81441897D01*
X59319954Y-81441901D01*
X59224145Y-81585288D01*
X59224138Y-81585301D01*
X59158146Y-81744621D01*
X59158143Y-81744633D01*
X59124500Y-81913766D01*
X32500500Y-81913766D01*
X32500500Y-78413766D01*
X35124500Y-78413766D01*
X35124500Y-78586233D01*
X35158143Y-78755366D01*
X35158146Y-78755378D01*
X35224138Y-78914698D01*
X35224145Y-78914711D01*
X35319954Y-79058098D01*
X35319957Y-79058102D01*
X35441897Y-79180042D01*
X35441901Y-79180045D01*
X35585288Y-79275854D01*
X35585301Y-79275861D01*
X35744621Y-79341853D01*
X35744626Y-79341855D01*
X35913766Y-79375499D01*
X35913769Y-79375500D01*
X35913771Y-79375500D01*
X48086231Y-79375500D01*
X48086232Y-79375499D01*
X48255374Y-79341855D01*
X48414705Y-79275858D01*
X48558099Y-79180045D01*
X53180045Y-74558099D01*
X53275858Y-74414705D01*
X53341855Y-74255374D01*
X53375500Y-74086229D01*
X53375500Y-73913771D01*
X53375500Y-73913768D01*
X53375499Y-73913766D01*
X53341856Y-73744633D01*
X53341855Y-73744626D01*
X53278262Y-73591098D01*
X53275861Y-73585301D01*
X53275854Y-73585288D01*
X53180045Y-73441901D01*
X53180042Y-73441897D01*
X53058102Y-73319957D01*
X53058098Y-73319954D01*
X52914711Y-73224145D01*
X52914698Y-73224138D01*
X52755378Y-73158146D01*
X52755366Y-73158143D01*
X52586232Y-73124500D01*
X52586229Y-73124500D01*
X52413771Y-73124500D01*
X52413768Y-73124500D01*
X52244633Y-73158143D01*
X52244621Y-73158146D01*
X52085301Y-73224138D01*
X52085288Y-73224145D01*
X51941901Y-73319954D01*
X51941897Y-73319957D01*
X47673675Y-77588181D01*
X47612352Y-77621666D01*
X47585994Y-77624500D01*
X43412607Y-77624500D01*
X43345568Y-77604815D01*
X43299813Y-77552011D01*
X43289869Y-77482853D01*
X43318894Y-77419297D01*
X43327332Y-77410477D01*
X43332752Y-77405342D01*
X43436021Y-77307521D01*
X43671227Y-77030614D01*
X43875117Y-76729900D01*
X44045298Y-76408905D01*
X44179775Y-76071391D01*
X44276973Y-75721316D01*
X44335751Y-75362785D01*
X44355421Y-75000000D01*
X44335751Y-74637215D01*
X44322780Y-74558098D01*
X44276975Y-74278696D01*
X44276974Y-74278695D01*
X44276973Y-74278684D01*
X44223538Y-74086229D01*
X44179778Y-73928618D01*
X44179773Y-73928603D01*
X44045299Y-73591098D01*
X44045298Y-73591095D01*
X43901550Y-73319957D01*
X43875121Y-73270107D01*
X43875119Y-73270104D01*
X43875117Y-73270100D01*
X43671227Y-72969386D01*
X43436021Y-72692479D01*
X43172254Y-72442625D01*
X43172244Y-72442617D01*
X43103635Y-72390462D01*
X42883019Y-72222755D01*
X42571708Y-72035445D01*
X42571707Y-72035444D01*
X42571703Y-72035442D01*
X42571699Y-72035440D01*
X42241979Y-71882896D01*
X42241974Y-71882894D01*
X42241969Y-71882892D01*
X42074143Y-71826344D01*
X41897669Y-71766883D01*
X41542845Y-71688781D01*
X41181660Y-71649500D01*
X41181659Y-71649500D01*
X40818341Y-71649500D01*
X40818339Y-71649500D01*
X40457154Y-71688781D01*
X40102330Y-71766883D01*
X39836178Y-71856560D01*
X39758031Y-71882892D01*
X39758028Y-71882893D01*
X39758020Y-71882896D01*
X39428300Y-72035440D01*
X39428296Y-72035442D01*
X39196453Y-72174937D01*
X39116981Y-72222755D01*
X39027332Y-72290903D01*
X38827755Y-72442617D01*
X38827745Y-72442625D01*
X38563978Y-72692479D01*
X38328772Y-72969386D01*
X38124884Y-73270098D01*
X38124878Y-73270107D01*
X37954706Y-73591086D01*
X37954700Y-73591098D01*
X37820226Y-73928603D01*
X37820221Y-73928618D01*
X37723030Y-74278670D01*
X37723024Y-74278696D01*
X37664250Y-74637200D01*
X37664248Y-74637217D01*
X37644579Y-74999997D01*
X37644579Y-75000002D01*
X37664248Y-75362782D01*
X37664250Y-75362799D01*
X37723024Y-75721303D01*
X37723030Y-75721329D01*
X37820221Y-76071381D01*
X37820226Y-76071396D01*
X37954700Y-76408901D01*
X37954706Y-76408913D01*
X38124878Y-76729892D01*
X38124884Y-76729901D01*
X38328772Y-77030613D01*
X38563978Y-77307520D01*
X38672668Y-77410477D01*
X38707801Y-77470870D01*
X38704706Y-77540672D01*
X38664364Y-77597718D01*
X38599585Y-77623899D01*
X38587393Y-77624500D01*
X35913768Y-77624500D01*
X35744633Y-77658143D01*
X35744621Y-77658146D01*
X35585301Y-77724138D01*
X35585288Y-77724145D01*
X35441901Y-77819954D01*
X35441897Y-77819957D01*
X35319957Y-77941897D01*
X35319954Y-77941901D01*
X35224145Y-78085288D01*
X35224138Y-78085301D01*
X35158146Y-78244621D01*
X35158143Y-78244633D01*
X35124500Y-78413766D01*
X32500500Y-78413766D01*
X32500500Y-63600000D01*
X34444706Y-63600000D01*
X34463853Y-63843297D01*
X34520830Y-64080619D01*
X34614222Y-64306089D01*
X34741737Y-64514173D01*
X34741738Y-64514176D01*
X34741741Y-64514179D01*
X34900241Y-64699759D01*
X35043897Y-64822453D01*
X35085823Y-64858261D01*
X35085826Y-64858262D01*
X35293910Y-64985777D01*
X35519381Y-65079169D01*
X35519378Y-65079169D01*
X35519384Y-65079170D01*
X35519388Y-65079172D01*
X35756698Y-65136146D01*
X36000000Y-65155294D01*
X36237026Y-65136639D01*
X36305399Y-65151003D01*
X36334432Y-65172576D01*
X37588181Y-66426325D01*
X37621666Y-66487648D01*
X37624500Y-66514006D01*
X37624500Y-67446848D01*
X37604815Y-67513887D01*
X37552011Y-67559642D01*
X37482853Y-67569586D01*
X37419297Y-67540561D01*
X37388575Y-67497957D01*
X37387991Y-67498255D01*
X37386065Y-67494475D01*
X37385940Y-67494302D01*
X37385780Y-67493916D01*
X37385777Y-67493911D01*
X37258262Y-67285826D01*
X37258261Y-67285823D01*
X37222453Y-67243897D01*
X37099759Y-67100241D01*
X36977063Y-66995449D01*
X36914176Y-66941738D01*
X36914173Y-66941737D01*
X36706089Y-66814222D01*
X36480618Y-66720830D01*
X36480621Y-66720830D01*
X36374992Y-66695470D01*
X36243302Y-66663854D01*
X36243300Y-66663853D01*
X36243297Y-66663853D01*
X36000000Y-66644706D01*
X35756702Y-66663853D01*
X35519380Y-66720830D01*
X35293910Y-66814222D01*
X35085826Y-66941737D01*
X35085823Y-66941738D01*
X34900241Y-67100241D01*
X34741738Y-67285823D01*
X34741737Y-67285826D01*
X34614222Y-67493910D01*
X34520830Y-67719380D01*
X34463853Y-67956702D01*
X34444706Y-68200000D01*
X34463853Y-68443297D01*
X34520830Y-68680619D01*
X34614222Y-68906089D01*
X34741737Y-69114173D01*
X34741738Y-69114176D01*
X34741741Y-69114179D01*
X34900241Y-69299759D01*
X35043897Y-69422453D01*
X35085823Y-69458261D01*
X35085826Y-69458262D01*
X35293910Y-69585777D01*
X35519381Y-69679169D01*
X35519378Y-69679169D01*
X35519384Y-69679170D01*
X35519388Y-69679172D01*
X35756698Y-69736146D01*
X36000000Y-69755294D01*
X36243302Y-69736146D01*
X36480612Y-69679172D01*
X36706089Y-69585777D01*
X36914179Y-69458259D01*
X37099759Y-69299759D01*
X37258259Y-69114179D01*
X37385777Y-68906089D01*
X37479172Y-68680612D01*
X37536146Y-68443302D01*
X37555294Y-68200000D01*
X37544583Y-68063905D01*
X37558947Y-67995530D01*
X37607999Y-67945773D01*
X37676164Y-67930434D01*
X37741801Y-67954383D01*
X37771303Y-67985287D01*
X37819954Y-68058098D01*
X37819957Y-68058102D01*
X40441897Y-70680042D01*
X40441901Y-70680045D01*
X40585288Y-70775854D01*
X40585301Y-70775861D01*
X40744621Y-70841853D01*
X40744626Y-70841855D01*
X40913766Y-70875499D01*
X40913769Y-70875500D01*
X40913771Y-70875500D01*
X41086229Y-70875500D01*
X61585994Y-70875500D01*
X61653033Y-70895185D01*
X61673675Y-70911819D01*
X69941897Y-79180042D01*
X69941901Y-79180045D01*
X70085288Y-79275854D01*
X70085301Y-79275861D01*
X70244621Y-79341853D01*
X70244626Y-79341855D01*
X70413766Y-79375499D01*
X70413769Y-79375500D01*
X70413771Y-79375500D01*
X70586231Y-79375500D01*
X70586232Y-79375499D01*
X70755374Y-79341855D01*
X70914704Y-79275858D01*
X70976663Y-79234458D01*
X71043338Y-79213581D01*
X71110718Y-79232065D01*
X71133233Y-79249880D01*
X71252646Y-79369293D01*
X71252650Y-79369296D01*
X71396037Y-79465105D01*
X71396050Y-79465112D01*
X71555370Y-79531104D01*
X71555375Y-79531106D01*
X71724515Y-79564750D01*
X71724518Y-79564751D01*
X71724520Y-79564751D01*
X71896980Y-79564751D01*
X71896981Y-79564750D01*
X72066123Y-79531106D01*
X72225454Y-79465109D01*
X72368848Y-79369296D01*
X72490794Y-79247350D01*
X72586607Y-79103956D01*
X72652604Y-78944625D01*
X72686249Y-78775480D01*
X72686249Y-78381017D01*
X72686249Y-78381014D01*
X72686248Y-78381012D01*
X72652604Y-78211872D01*
X72600177Y-78085301D01*
X72586610Y-78052547D01*
X72586603Y-78052534D01*
X72490795Y-77909148D01*
X72490794Y-77909147D01*
X72368848Y-77787201D01*
X67706147Y-73124500D01*
X62901605Y-68319957D01*
X62901601Y-68319954D01*
X62758214Y-68224145D01*
X62758201Y-68224138D01*
X62598881Y-68158146D01*
X62598869Y-68158143D01*
X62429735Y-68124500D01*
X62429732Y-68124500D01*
X47786366Y-68124500D01*
X47719327Y-68104815D01*
X47673572Y-68052011D01*
X47663628Y-67982853D01*
X47686249Y-67929660D01*
X47685359Y-67929079D01*
X47798845Y-67755374D01*
X47824173Y-67716607D01*
X47924063Y-67488881D01*
X47985108Y-67247821D01*
X48005643Y-67000000D01*
X48000815Y-66941738D01*
X47985109Y-66752187D01*
X47985107Y-66752175D01*
X47924063Y-66511118D01*
X47824173Y-66283393D01*
X47688166Y-66075217D01*
X47666557Y-66051744D01*
X47519744Y-65892262D01*
X47323509Y-65739526D01*
X47323507Y-65739525D01*
X47323506Y-65739524D01*
X47104811Y-65621172D01*
X47104802Y-65621169D01*
X46869616Y-65540429D01*
X46624335Y-65499500D01*
X46375665Y-65499500D01*
X46130383Y-65540429D01*
X45895197Y-65621169D01*
X45895188Y-65621172D01*
X45676493Y-65739524D01*
X45480257Y-65892261D01*
X45311833Y-66075217D01*
X45175826Y-66283393D01*
X45075936Y-66511118D01*
X45014892Y-66752175D01*
X45014890Y-66752187D01*
X44994357Y-66999994D01*
X44994357Y-67000005D01*
X45014890Y-67247812D01*
X45014892Y-67247824D01*
X45075936Y-67488881D01*
X45175826Y-67716606D01*
X45314641Y-67929079D01*
X45313620Y-67929745D01*
X45337130Y-67989332D01*
X45323564Y-68057871D01*
X45275095Y-68108196D01*
X45213634Y-68124500D01*
X43286366Y-68124500D01*
X43219327Y-68104815D01*
X43173572Y-68052011D01*
X43163628Y-67982853D01*
X43186249Y-67929660D01*
X43185359Y-67929079D01*
X43298845Y-67755374D01*
X43324173Y-67716607D01*
X43424063Y-67488881D01*
X43485108Y-67247821D01*
X43505643Y-67000000D01*
X43500815Y-66941738D01*
X43485109Y-66752187D01*
X43485107Y-66752175D01*
X43424063Y-66511118D01*
X43324173Y-66283393D01*
X43188166Y-66075217D01*
X43166557Y-66051744D01*
X43019744Y-65892262D01*
X42823509Y-65739526D01*
X42823507Y-65739525D01*
X42823506Y-65739524D01*
X42604811Y-65621172D01*
X42604802Y-65621169D01*
X42369616Y-65540429D01*
X42124335Y-65499500D01*
X41875665Y-65499500D01*
X41630383Y-65540429D01*
X41395197Y-65621169D01*
X41395188Y-65621172D01*
X41176493Y-65739524D01*
X40980257Y-65892261D01*
X40811833Y-66075217D01*
X40675826Y-66283393D01*
X40575937Y-66511117D01*
X40569706Y-66535725D01*
X40534166Y-66595880D01*
X40471746Y-66627272D01*
X40402262Y-66619934D01*
X40347777Y-66576195D01*
X40325588Y-66509942D01*
X40325500Y-66505284D01*
X40325500Y-62363768D01*
X40325499Y-62363766D01*
X40291856Y-62194633D01*
X40291855Y-62194626D01*
X40237688Y-62063854D01*
X40225861Y-62035301D01*
X40225854Y-62035288D01*
X40130046Y-61891902D01*
X40116971Y-61878827D01*
X40008099Y-61769955D01*
X38738138Y-60499994D01*
X40494357Y-60499994D01*
X40494357Y-60500005D01*
X40514890Y-60747812D01*
X40514892Y-60747824D01*
X40575936Y-60988881D01*
X40675826Y-61216606D01*
X40811833Y-61424782D01*
X40811836Y-61424785D01*
X40980256Y-61607738D01*
X41176491Y-61760474D01*
X41395190Y-61878828D01*
X41630386Y-61959571D01*
X41875665Y-62000500D01*
X42124335Y-62000500D01*
X42369614Y-61959571D01*
X42604810Y-61878828D01*
X42823509Y-61760474D01*
X43019744Y-61607738D01*
X43188164Y-61424785D01*
X43324173Y-61216607D01*
X43424063Y-60988881D01*
X43485108Y-60747821D01*
X43498449Y-60586819D01*
X43505643Y-60500005D01*
X43505643Y-60499994D01*
X44994357Y-60499994D01*
X44994357Y-60500005D01*
X45014890Y-60747812D01*
X45014892Y-60747824D01*
X45075936Y-60988881D01*
X45175826Y-61216606D01*
X45311833Y-61424782D01*
X45311836Y-61424785D01*
X45480256Y-61607738D01*
X45676491Y-61760474D01*
X45895190Y-61878828D01*
X46130386Y-61959571D01*
X46375665Y-62000500D01*
X46624335Y-62000500D01*
X46869614Y-61959571D01*
X47104810Y-61878828D01*
X47323509Y-61760474D01*
X47519744Y-61607738D01*
X47688164Y-61424785D01*
X47824173Y-61216607D01*
X47924063Y-60988881D01*
X47985108Y-60747821D01*
X47998449Y-60586819D01*
X48005643Y-60500005D01*
X48005643Y-60499994D01*
X47985109Y-60252187D01*
X47985107Y-60252175D01*
X47924063Y-60011118D01*
X47824173Y-59783393D01*
X47688166Y-59575217D01*
X47666557Y-59551744D01*
X47519744Y-59392262D01*
X47323509Y-59239526D01*
X47323507Y-59239525D01*
X47323506Y-59239524D01*
X47104811Y-59121172D01*
X47104802Y-59121169D01*
X46869616Y-59040429D01*
X46627319Y-58999998D01*
X63194532Y-58999998D01*
X63194532Y-59000001D01*
X63214364Y-59226686D01*
X63214366Y-59226697D01*
X63273258Y-59446488D01*
X63273261Y-59446497D01*
X63369431Y-59652732D01*
X63369432Y-59652734D01*
X63499954Y-59839141D01*
X63660858Y-60000045D01*
X63660861Y-60000047D01*
X63847266Y-60130568D01*
X64053504Y-60226739D01*
X64273308Y-60285635D01*
X64435230Y-60299801D01*
X64499998Y-60305468D01*
X64500000Y-60305468D01*
X64500002Y-60305468D01*
X64556673Y-60300509D01*
X64726692Y-60285635D01*
X64946496Y-60226739D01*
X65152734Y-60130568D01*
X65339139Y-60000047D01*
X65500047Y-59839139D01*
X65630568Y-59652734D01*
X65637893Y-59637024D01*
X65684064Y-59584586D01*
X65751257Y-59565433D01*
X65818138Y-59585648D01*
X65862657Y-59637024D01*
X65869864Y-59652480D01*
X65920974Y-59725472D01*
X66600000Y-59046446D01*
X66600000Y-59052661D01*
X66627259Y-59154394D01*
X66679920Y-59245606D01*
X66754394Y-59320080D01*
X66845606Y-59372741D01*
X66947339Y-59400000D01*
X66953553Y-59400000D01*
X66274526Y-60079025D01*
X66347513Y-60130132D01*
X66347521Y-60130136D01*
X66553668Y-60226264D01*
X66553682Y-60226269D01*
X66773389Y-60285139D01*
X66773400Y-60285141D01*
X66999998Y-60304966D01*
X67000002Y-60304966D01*
X67226599Y-60285141D01*
X67226610Y-60285139D01*
X67446317Y-60226269D01*
X67446331Y-60226264D01*
X67652478Y-60130136D01*
X67725471Y-60079024D01*
X67046447Y-59400000D01*
X67052661Y-59400000D01*
X67154394Y-59372741D01*
X67245606Y-59320080D01*
X67320080Y-59245606D01*
X67372741Y-59154394D01*
X67400000Y-59052661D01*
X67400000Y-59046447D01*
X68079024Y-59725471D01*
X68130136Y-59652478D01*
X68226264Y-59446331D01*
X68226269Y-59446317D01*
X68285139Y-59226610D01*
X68285141Y-59226599D01*
X68304966Y-59000002D01*
X68304966Y-58999997D01*
X68695034Y-58999997D01*
X68695034Y-59000002D01*
X68714858Y-59226599D01*
X68714860Y-59226610D01*
X68773730Y-59446317D01*
X68773735Y-59446331D01*
X68869863Y-59652478D01*
X68920974Y-59725472D01*
X69600000Y-59046446D01*
X69600000Y-59052661D01*
X69627259Y-59154394D01*
X69679920Y-59245606D01*
X69754394Y-59320080D01*
X69845606Y-59372741D01*
X69947339Y-59400000D01*
X69953553Y-59400000D01*
X69274526Y-60079025D01*
X69347513Y-60130132D01*
X69347521Y-60130136D01*
X69553668Y-60226264D01*
X69553682Y-60226269D01*
X69773389Y-60285139D01*
X69773400Y-60285141D01*
X69999998Y-60304966D01*
X70000002Y-60304966D01*
X70226599Y-60285141D01*
X70226610Y-60285139D01*
X70446317Y-60226269D01*
X70446331Y-60226264D01*
X70652478Y-60130136D01*
X70725471Y-60079024D01*
X70046447Y-59400000D01*
X70052661Y-59400000D01*
X70154394Y-59372741D01*
X70245606Y-59320080D01*
X70320080Y-59245606D01*
X70372741Y-59154394D01*
X70400000Y-59052661D01*
X70400000Y-59046447D01*
X71079024Y-59725471D01*
X71130136Y-59652478D01*
X71226264Y-59446331D01*
X71226269Y-59446317D01*
X71285139Y-59226610D01*
X71285141Y-59226599D01*
X71304966Y-59000002D01*
X71304966Y-58999997D01*
X71285141Y-58773400D01*
X71285139Y-58773389D01*
X71226269Y-58553682D01*
X71226264Y-58553668D01*
X71130136Y-58347521D01*
X71130132Y-58347513D01*
X71079025Y-58274526D01*
X70400000Y-58953551D01*
X70400000Y-58947339D01*
X70372741Y-58845606D01*
X70320080Y-58754394D01*
X70245606Y-58679920D01*
X70154394Y-58627259D01*
X70052661Y-58600000D01*
X70046445Y-58600000D01*
X70725472Y-57920974D01*
X70652478Y-57869863D01*
X70446331Y-57773735D01*
X70446317Y-57773730D01*
X70226610Y-57714860D01*
X70226599Y-57714858D01*
X70000002Y-57695034D01*
X69999998Y-57695034D01*
X69773400Y-57714858D01*
X69773389Y-57714860D01*
X69553682Y-57773730D01*
X69553673Y-57773734D01*
X69347516Y-57869866D01*
X69347512Y-57869868D01*
X69274526Y-57920973D01*
X69274526Y-57920974D01*
X69953553Y-58600000D01*
X69947339Y-58600000D01*
X69845606Y-58627259D01*
X69754394Y-58679920D01*
X69679920Y-58754394D01*
X69627259Y-58845606D01*
X69600000Y-58947339D01*
X69600000Y-58953552D01*
X68920974Y-58274526D01*
X68920973Y-58274526D01*
X68869868Y-58347512D01*
X68869866Y-58347516D01*
X68773734Y-58553673D01*
X68773730Y-58553682D01*
X68714860Y-58773389D01*
X68714858Y-58773400D01*
X68695034Y-58999997D01*
X68304966Y-58999997D01*
X68285141Y-58773400D01*
X68285139Y-58773389D01*
X68226269Y-58553682D01*
X68226264Y-58553668D01*
X68130136Y-58347521D01*
X68130132Y-58347513D01*
X68079025Y-58274526D01*
X67400000Y-58953551D01*
X67400000Y-58947339D01*
X67372741Y-58845606D01*
X67320080Y-58754394D01*
X67245606Y-58679920D01*
X67154394Y-58627259D01*
X67052661Y-58600000D01*
X67046445Y-58600000D01*
X67725472Y-57920974D01*
X67652478Y-57869863D01*
X67446331Y-57773735D01*
X67446317Y-57773730D01*
X67226610Y-57714860D01*
X67226599Y-57714858D01*
X67000002Y-57695034D01*
X66999998Y-57695034D01*
X66773400Y-57714858D01*
X66773389Y-57714860D01*
X66553682Y-57773730D01*
X66553673Y-57773734D01*
X66347516Y-57869866D01*
X66347512Y-57869868D01*
X66274526Y-57920973D01*
X66274526Y-57920974D01*
X66953553Y-58600000D01*
X66947339Y-58600000D01*
X66845606Y-58627259D01*
X66754394Y-58679920D01*
X66679920Y-58754394D01*
X66627259Y-58845606D01*
X66600000Y-58947339D01*
X66600000Y-58953552D01*
X65920974Y-58274526D01*
X65920973Y-58274526D01*
X65869868Y-58347512D01*
X65869867Y-58347514D01*
X65862656Y-58362979D01*
X65816482Y-58415417D01*
X65749288Y-58434567D01*
X65682407Y-58414350D01*
X65637893Y-58362976D01*
X65630568Y-58347266D01*
X65500047Y-58160861D01*
X65500045Y-58160858D01*
X65339141Y-57999954D01*
X65152734Y-57869432D01*
X65152732Y-57869431D01*
X64946497Y-57773261D01*
X64946488Y-57773258D01*
X64726697Y-57714366D01*
X64726693Y-57714365D01*
X64726692Y-57714365D01*
X64726691Y-57714364D01*
X64726686Y-57714364D01*
X64500002Y-57694532D01*
X64499998Y-57694532D01*
X64273313Y-57714364D01*
X64273302Y-57714366D01*
X64053511Y-57773258D01*
X64053502Y-57773261D01*
X63847267Y-57869431D01*
X63847265Y-57869432D01*
X63660858Y-57999954D01*
X63499954Y-58160858D01*
X63369432Y-58347265D01*
X63369431Y-58347267D01*
X63273261Y-58553502D01*
X63273258Y-58553511D01*
X63214366Y-58773302D01*
X63214364Y-58773313D01*
X63194532Y-58999998D01*
X46627319Y-58999998D01*
X46624335Y-58999500D01*
X46375665Y-58999500D01*
X46130383Y-59040429D01*
X45895197Y-59121169D01*
X45895188Y-59121172D01*
X45676493Y-59239524D01*
X45480257Y-59392261D01*
X45311833Y-59575217D01*
X45175826Y-59783393D01*
X45075936Y-60011118D01*
X45014892Y-60252175D01*
X45014890Y-60252187D01*
X44994357Y-60499994D01*
X43505643Y-60499994D01*
X43485109Y-60252187D01*
X43485107Y-60252175D01*
X43424063Y-60011118D01*
X43324173Y-59783393D01*
X43188166Y-59575217D01*
X43166557Y-59551744D01*
X43019744Y-59392262D01*
X42823509Y-59239526D01*
X42823507Y-59239525D01*
X42823506Y-59239524D01*
X42604811Y-59121172D01*
X42604802Y-59121169D01*
X42369616Y-59040429D01*
X42124335Y-58999500D01*
X41875665Y-58999500D01*
X41630383Y-59040429D01*
X41395197Y-59121169D01*
X41395188Y-59121172D01*
X41176493Y-59239524D01*
X40980257Y-59392261D01*
X40811833Y-59575217D01*
X40675826Y-59783393D01*
X40575936Y-60011118D01*
X40514892Y-60252175D01*
X40514890Y-60252187D01*
X40494357Y-60499994D01*
X38738138Y-60499994D01*
X37586819Y-59348675D01*
X37553334Y-59287352D01*
X37550500Y-59260994D01*
X37550500Y-58149997D01*
X37550499Y-58149984D01*
X37539999Y-58047204D01*
X37539999Y-58047203D01*
X37484814Y-57880666D01*
X37478152Y-57869866D01*
X37392713Y-57731348D01*
X37392710Y-57731344D01*
X37268655Y-57607289D01*
X37268651Y-57607286D01*
X37119337Y-57515187D01*
X37119335Y-57515186D01*
X37036065Y-57487593D01*
X36952797Y-57460001D01*
X36952795Y-57460000D01*
X36850015Y-57449500D01*
X36850008Y-57449500D01*
X35149992Y-57449500D01*
X35149984Y-57449500D01*
X35047204Y-57460000D01*
X35047203Y-57460001D01*
X34880664Y-57515186D01*
X34880662Y-57515187D01*
X34731348Y-57607286D01*
X34731344Y-57607289D01*
X34607289Y-57731344D01*
X34607286Y-57731348D01*
X34515187Y-57880662D01*
X34515186Y-57880664D01*
X34460001Y-58047203D01*
X34460000Y-58047204D01*
X34449500Y-58149984D01*
X34449500Y-59850015D01*
X34460000Y-59952795D01*
X34460001Y-59952797D01*
X34475658Y-60000047D01*
X34515186Y-60119335D01*
X34515187Y-60119337D01*
X34607286Y-60268651D01*
X34607289Y-60268655D01*
X34731344Y-60392710D01*
X34731348Y-60392713D01*
X34880662Y-60484812D01*
X34880664Y-60484813D01*
X34880666Y-60484814D01*
X35047203Y-60539999D01*
X35149992Y-60550500D01*
X36260994Y-60550500D01*
X36328033Y-60570185D01*
X36348675Y-60586819D01*
X38538181Y-62776325D01*
X38571666Y-62837648D01*
X38574500Y-62864006D01*
X38574500Y-64636994D01*
X38554815Y-64704033D01*
X38502011Y-64749788D01*
X38432853Y-64759732D01*
X38369297Y-64730707D01*
X38362819Y-64724675D01*
X37572576Y-63934432D01*
X37539091Y-63873109D01*
X37536639Y-63837030D01*
X37555294Y-63600000D01*
X37536146Y-63356698D01*
X37479172Y-63119388D01*
X37385777Y-62893911D01*
X37385777Y-62893910D01*
X37258262Y-62685826D01*
X37258261Y-62685823D01*
X37222453Y-62643897D01*
X37099759Y-62500241D01*
X36939973Y-62363771D01*
X36914176Y-62341738D01*
X36914173Y-62341737D01*
X36706089Y-62214222D01*
X36480618Y-62120830D01*
X36480621Y-62120830D01*
X36374992Y-62095470D01*
X36243302Y-62063854D01*
X36243300Y-62063853D01*
X36243297Y-62063853D01*
X36000000Y-62044706D01*
X35756702Y-62063853D01*
X35519380Y-62120830D01*
X35293910Y-62214222D01*
X35085826Y-62341737D01*
X35085823Y-62341738D01*
X34900241Y-62500241D01*
X34741738Y-62685823D01*
X34741737Y-62685826D01*
X34614222Y-62893910D01*
X34520830Y-63119380D01*
X34463853Y-63356702D01*
X34444706Y-63600000D01*
X32500500Y-63600000D01*
X32500500Y-55999998D01*
X38194532Y-55999998D01*
X38194532Y-56000001D01*
X38214364Y-56226686D01*
X38214366Y-56226697D01*
X38273258Y-56446488D01*
X38273261Y-56446497D01*
X38369431Y-56652732D01*
X38369432Y-56652734D01*
X38499954Y-56839141D01*
X38660858Y-57000045D01*
X38660861Y-57000047D01*
X38847266Y-57130568D01*
X39053504Y-57226739D01*
X39273308Y-57285635D01*
X39435230Y-57299801D01*
X39499998Y-57305468D01*
X39500000Y-57305468D01*
X39500002Y-57305468D01*
X39556673Y-57300509D01*
X39726692Y-57285635D01*
X39946496Y-57226739D01*
X40152734Y-57130568D01*
X40339139Y-57000047D01*
X40500047Y-56839139D01*
X40630568Y-56652734D01*
X40637618Y-56637614D01*
X40683789Y-56585176D01*
X40750982Y-56566023D01*
X40817864Y-56586238D01*
X40862381Y-56637614D01*
X40869432Y-56652733D01*
X40869432Y-56652734D01*
X40999954Y-56839141D01*
X41160858Y-57000045D01*
X41160861Y-57000047D01*
X41347266Y-57130568D01*
X41553504Y-57226739D01*
X41773308Y-57285635D01*
X41935230Y-57299801D01*
X41999998Y-57305468D01*
X42000000Y-57305468D01*
X42000002Y-57305468D01*
X42056673Y-57300509D01*
X42226692Y-57285635D01*
X42446496Y-57226739D01*
X42652734Y-57130568D01*
X42839139Y-57000047D01*
X43000047Y-56839139D01*
X43130568Y-56652734D01*
X43137618Y-56637614D01*
X43183789Y-56585176D01*
X43250982Y-56566023D01*
X43317864Y-56586238D01*
X43362381Y-56637614D01*
X43369432Y-56652733D01*
X43369432Y-56652734D01*
X43499954Y-56839141D01*
X43660858Y-57000045D01*
X43660861Y-57000047D01*
X43847266Y-57130568D01*
X44053504Y-57226739D01*
X44273308Y-57285635D01*
X44435230Y-57299801D01*
X44499998Y-57305468D01*
X44500000Y-57305468D01*
X44500002Y-57305468D01*
X44556673Y-57300509D01*
X44726692Y-57285635D01*
X44946496Y-57226739D01*
X45152734Y-57130568D01*
X45339139Y-57000047D01*
X45500047Y-56839139D01*
X45630568Y-56652734D01*
X45637893Y-56637024D01*
X45684064Y-56584586D01*
X45751257Y-56565433D01*
X45818138Y-56585648D01*
X45862657Y-56637024D01*
X45869864Y-56652480D01*
X45920974Y-56725472D01*
X46600000Y-56046446D01*
X46600000Y-56052661D01*
X46627259Y-56154394D01*
X46679920Y-56245606D01*
X46754394Y-56320080D01*
X46845606Y-56372741D01*
X46947339Y-56400000D01*
X46953553Y-56400000D01*
X46274526Y-57079025D01*
X46347513Y-57130132D01*
X46347521Y-57130136D01*
X46553668Y-57226264D01*
X46553682Y-57226269D01*
X46773389Y-57285139D01*
X46773400Y-57285141D01*
X46999998Y-57304966D01*
X47000002Y-57304966D01*
X47226599Y-57285141D01*
X47226610Y-57285139D01*
X47446317Y-57226269D01*
X47446331Y-57226264D01*
X47652478Y-57130136D01*
X47725471Y-57079024D01*
X47046447Y-56400000D01*
X47052661Y-56400000D01*
X47154394Y-56372741D01*
X47245606Y-56320080D01*
X47320080Y-56245606D01*
X47372741Y-56154394D01*
X47400000Y-56052661D01*
X47400000Y-56046447D01*
X48079024Y-56725471D01*
X48130136Y-56652478D01*
X48226264Y-56446331D01*
X48226269Y-56446317D01*
X48285139Y-56226610D01*
X48285141Y-56226599D01*
X48304966Y-56000002D01*
X48304966Y-55999997D01*
X48285141Y-55773400D01*
X48285139Y-55773389D01*
X48226269Y-55553682D01*
X48226264Y-55553668D01*
X48130136Y-55347521D01*
X48130132Y-55347513D01*
X48079025Y-55274526D01*
X47400000Y-55953551D01*
X47400000Y-55947339D01*
X47372741Y-55845606D01*
X47320080Y-55754394D01*
X47245606Y-55679920D01*
X47154394Y-55627259D01*
X47052661Y-55600000D01*
X47046445Y-55600000D01*
X47725472Y-54920974D01*
X47652478Y-54869863D01*
X47446331Y-54773735D01*
X47446317Y-54773730D01*
X47226610Y-54714860D01*
X47226599Y-54714858D01*
X47000002Y-54695034D01*
X46999998Y-54695034D01*
X46773400Y-54714858D01*
X46773389Y-54714860D01*
X46553682Y-54773730D01*
X46553673Y-54773734D01*
X46347516Y-54869866D01*
X46347512Y-54869868D01*
X46274526Y-54920973D01*
X46274526Y-54920974D01*
X46953553Y-55600000D01*
X46947339Y-55600000D01*
X46845606Y-55627259D01*
X46754394Y-55679920D01*
X46679920Y-55754394D01*
X46627259Y-55845606D01*
X46600000Y-55947339D01*
X46600000Y-55953552D01*
X45920974Y-55274526D01*
X45920973Y-55274526D01*
X45869868Y-55347512D01*
X45869867Y-55347514D01*
X45862656Y-55362979D01*
X45816482Y-55415417D01*
X45749288Y-55434567D01*
X45682407Y-55414350D01*
X45637893Y-55362976D01*
X45630568Y-55347266D01*
X45500047Y-55160861D01*
X45500045Y-55160858D01*
X45339141Y-54999954D01*
X45152734Y-54869432D01*
X45152732Y-54869431D01*
X44946497Y-54773261D01*
X44946488Y-54773258D01*
X44726697Y-54714366D01*
X44726693Y-54714365D01*
X44726692Y-54714365D01*
X44726691Y-54714364D01*
X44726686Y-54714364D01*
X44500002Y-54694532D01*
X44499998Y-54694532D01*
X44273313Y-54714364D01*
X44273302Y-54714366D01*
X44053511Y-54773258D01*
X44053502Y-54773261D01*
X43847267Y-54869431D01*
X43847265Y-54869432D01*
X43660858Y-54999954D01*
X43499954Y-55160858D01*
X43369433Y-55347264D01*
X43369432Y-55347266D01*
X43362380Y-55362387D01*
X43316209Y-55414825D01*
X43249015Y-55433976D01*
X43182134Y-55413760D01*
X43137619Y-55362387D01*
X43130568Y-55347266D01*
X43000047Y-55160861D01*
X43000045Y-55160858D01*
X42839141Y-54999954D01*
X42652734Y-54869432D01*
X42652732Y-54869431D01*
X42446497Y-54773261D01*
X42446488Y-54773258D01*
X42226697Y-54714366D01*
X42226693Y-54714365D01*
X42226692Y-54714365D01*
X42226691Y-54714364D01*
X42226686Y-54714364D01*
X42000002Y-54694532D01*
X41999998Y-54694532D01*
X41773313Y-54714364D01*
X41773302Y-54714366D01*
X41553511Y-54773258D01*
X41553502Y-54773261D01*
X41347267Y-54869431D01*
X41347265Y-54869432D01*
X41160858Y-54999954D01*
X40999954Y-55160858D01*
X40869433Y-55347264D01*
X40869432Y-55347266D01*
X40862380Y-55362387D01*
X40816209Y-55414825D01*
X40749015Y-55433976D01*
X40682134Y-55413760D01*
X40637619Y-55362387D01*
X40630568Y-55347266D01*
X40500047Y-55160861D01*
X40500045Y-55160858D01*
X40339141Y-54999954D01*
X40152734Y-54869432D01*
X40152732Y-54869431D01*
X39946497Y-54773261D01*
X39946488Y-54773258D01*
X39726697Y-54714366D01*
X39726693Y-54714365D01*
X39726692Y-54714365D01*
X39726691Y-54714364D01*
X39726686Y-54714364D01*
X39500002Y-54694532D01*
X39499998Y-54694532D01*
X39273313Y-54714364D01*
X39273302Y-54714366D01*
X39053511Y-54773258D01*
X39053502Y-54773261D01*
X38847267Y-54869431D01*
X38847265Y-54869432D01*
X38660858Y-54999954D01*
X38499954Y-55160858D01*
X38369432Y-55347265D01*
X38369431Y-55347267D01*
X38273261Y-55553502D01*
X38273258Y-55553511D01*
X38214366Y-55773302D01*
X38214364Y-55773313D01*
X38194532Y-55999998D01*
X32500500Y-55999998D01*
X32500500Y-51999998D01*
X39194532Y-51999998D01*
X39194532Y-52000001D01*
X39214364Y-52226686D01*
X39214366Y-52226697D01*
X39273258Y-52446488D01*
X39273261Y-52446497D01*
X39369431Y-52652732D01*
X39369432Y-52652734D01*
X39499954Y-52839141D01*
X39660858Y-53000045D01*
X39660861Y-53000047D01*
X39847266Y-53130568D01*
X40053504Y-53226739D01*
X40273308Y-53285635D01*
X40435230Y-53299801D01*
X40499998Y-53305468D01*
X40500000Y-53305468D01*
X40500002Y-53305468D01*
X40556673Y-53300509D01*
X40726692Y-53285635D01*
X40946496Y-53226739D01*
X41152734Y-53130568D01*
X41339139Y-53000047D01*
X41500047Y-52839139D01*
X41630568Y-52652734D01*
X41726739Y-52446496D01*
X41785635Y-52226692D01*
X41805468Y-52000000D01*
X41785635Y-51773308D01*
X41779389Y-51749999D01*
X49381127Y-51749999D01*
X49381128Y-51750000D01*
X50344314Y-51750000D01*
X50339920Y-51754394D01*
X50287259Y-51845606D01*
X50260000Y-51947339D01*
X50260000Y-52052661D01*
X50287259Y-52154394D01*
X50339920Y-52245606D01*
X50344314Y-52250000D01*
X49381128Y-52250000D01*
X49433730Y-52446317D01*
X49433734Y-52446326D01*
X49529865Y-52652482D01*
X49660342Y-52838820D01*
X49821179Y-52999657D01*
X50007517Y-53130134D01*
X50213673Y-53226265D01*
X50213682Y-53226269D01*
X50409999Y-53278872D01*
X50410000Y-53278871D01*
X50410000Y-52315686D01*
X50414394Y-52320080D01*
X50505606Y-52372741D01*
X50607339Y-52400000D01*
X50712661Y-52400000D01*
X50814394Y-52372741D01*
X50905606Y-52320080D01*
X50910000Y-52315686D01*
X50910000Y-53278872D01*
X51106317Y-53226269D01*
X51106326Y-53226265D01*
X51312482Y-53130134D01*
X51498820Y-52999657D01*
X51659657Y-52838820D01*
X51790134Y-52652482D01*
X51886265Y-52446326D01*
X51886269Y-52446317D01*
X51938872Y-52250000D01*
X50975686Y-52250000D01*
X50980080Y-52245606D01*
X51032741Y-52154394D01*
X51060000Y-52052661D01*
X51060000Y-51947339D01*
X51032741Y-51845606D01*
X50980080Y-51754394D01*
X50975686Y-51750000D01*
X51938872Y-51750000D01*
X51938872Y-51749999D01*
X51886269Y-51553682D01*
X51886265Y-51553673D01*
X51790134Y-51347517D01*
X51659657Y-51161179D01*
X51498820Y-51000342D01*
X51312482Y-50869865D01*
X51106328Y-50773734D01*
X50910000Y-50721127D01*
X50910000Y-51684314D01*
X50905606Y-51679920D01*
X50814394Y-51627259D01*
X50712661Y-51600000D01*
X50607339Y-51600000D01*
X50505606Y-51627259D01*
X50414394Y-51679920D01*
X50410000Y-51684314D01*
X50410000Y-50721127D01*
X50213671Y-50773734D01*
X50007517Y-50869865D01*
X49821179Y-51000342D01*
X49660342Y-51161179D01*
X49529865Y-51347517D01*
X49433734Y-51553673D01*
X49433730Y-51553682D01*
X49381127Y-51749999D01*
X41779389Y-51749999D01*
X41726739Y-51553504D01*
X41630568Y-51347266D01*
X41500047Y-51160861D01*
X41500045Y-51160858D01*
X41339141Y-50999954D01*
X41152734Y-50869432D01*
X41152732Y-50869431D01*
X40946497Y-50773261D01*
X40946488Y-50773258D01*
X40726697Y-50714366D01*
X40726693Y-50714365D01*
X40726692Y-50714365D01*
X40726691Y-50714364D01*
X40726686Y-50714364D01*
X40500002Y-50694532D01*
X40499998Y-50694532D01*
X40273313Y-50714364D01*
X40273302Y-50714366D01*
X40053511Y-50773258D01*
X40053502Y-50773261D01*
X39847267Y-50869431D01*
X39847265Y-50869432D01*
X39660858Y-50999954D01*
X39499954Y-51160858D01*
X39369432Y-51347265D01*
X39369431Y-51347267D01*
X39273261Y-51553502D01*
X39273258Y-51553511D01*
X39214366Y-51773302D01*
X39214364Y-51773313D01*
X39194532Y-51999998D01*
X32500500Y-51999998D01*
X32500500Y-49952155D01*
X67500000Y-49952155D01*
X67500000Y-50750000D01*
X68566988Y-50750000D01*
X68534075Y-50807007D01*
X68500000Y-50934174D01*
X68500000Y-51065826D01*
X68534075Y-51192993D01*
X68566988Y-51250000D01*
X67500000Y-51250000D01*
X67500000Y-52047844D01*
X67506401Y-52107372D01*
X67506403Y-52107379D01*
X67556645Y-52242086D01*
X67556649Y-52242093D01*
X67642809Y-52357187D01*
X67642812Y-52357190D01*
X67757906Y-52443350D01*
X67757913Y-52443354D01*
X67892620Y-52493596D01*
X67892627Y-52493598D01*
X67952155Y-52499999D01*
X67952172Y-52500000D01*
X68750000Y-52500000D01*
X68750000Y-51433012D01*
X68807007Y-51465925D01*
X68934174Y-51500000D01*
X69065826Y-51500000D01*
X69192993Y-51465925D01*
X69250000Y-51433012D01*
X69250000Y-52500000D01*
X70047828Y-52500000D01*
X70047844Y-52499999D01*
X70107372Y-52493598D01*
X70107379Y-52493596D01*
X70242086Y-52443354D01*
X70242093Y-52443350D01*
X70357187Y-52357190D01*
X70357190Y-52357187D01*
X70443350Y-52242093D01*
X70443354Y-52242086D01*
X70493596Y-52107379D01*
X70493598Y-52107372D01*
X70499999Y-52047844D01*
X70500000Y-52047827D01*
X70500000Y-51250000D01*
X69433012Y-51250000D01*
X69465925Y-51192993D01*
X69500000Y-51065826D01*
X69500000Y-50999994D01*
X72494357Y-50999994D01*
X72494357Y-51000005D01*
X72514890Y-51247812D01*
X72514892Y-51247824D01*
X72575936Y-51488881D01*
X72675826Y-51716606D01*
X72811833Y-51924782D01*
X72811836Y-51924785D01*
X72980256Y-52107738D01*
X73176491Y-52260474D01*
X73395190Y-52378828D01*
X73630386Y-52459571D01*
X73875665Y-52500500D01*
X74124335Y-52500500D01*
X74369614Y-52459571D01*
X74604810Y-52378828D01*
X74823509Y-52260474D01*
X75019744Y-52107738D01*
X75188164Y-51924785D01*
X75324173Y-51716607D01*
X75424063Y-51488881D01*
X75485108Y-51247821D01*
X75489651Y-51192993D01*
X75505643Y-51000005D01*
X75505643Y-50999994D01*
X75485109Y-50752187D01*
X75485107Y-50752175D01*
X75424063Y-50511118D01*
X75324173Y-50283393D01*
X75188166Y-50075217D01*
X75166557Y-50051744D01*
X75019744Y-49892262D01*
X74823509Y-49739526D01*
X74823507Y-49739525D01*
X74823506Y-49739524D01*
X74604811Y-49621172D01*
X74604802Y-49621169D01*
X74369616Y-49540429D01*
X74124335Y-49499500D01*
X73875665Y-49499500D01*
X73630383Y-49540429D01*
X73395197Y-49621169D01*
X73395188Y-49621172D01*
X73176493Y-49739524D01*
X73152876Y-49757906D01*
X72980256Y-49892262D01*
X72979920Y-49892627D01*
X72811833Y-50075217D01*
X72675826Y-50283393D01*
X72575936Y-50511118D01*
X72514892Y-50752175D01*
X72514890Y-50752187D01*
X72494357Y-50999994D01*
X69500000Y-50999994D01*
X69500000Y-50934174D01*
X69465925Y-50807007D01*
X69433012Y-50750000D01*
X70500000Y-50750000D01*
X70500000Y-49952172D01*
X70499999Y-49952155D01*
X70493598Y-49892627D01*
X70493596Y-49892620D01*
X70443354Y-49757913D01*
X70443350Y-49757906D01*
X70357190Y-49642812D01*
X70357187Y-49642809D01*
X70242093Y-49556649D01*
X70242086Y-49556645D01*
X70107379Y-49506403D01*
X70107372Y-49506401D01*
X70047844Y-49500000D01*
X69250000Y-49500000D01*
X69250000Y-50566988D01*
X69192993Y-50534075D01*
X69065826Y-50500000D01*
X68934174Y-50500000D01*
X68807007Y-50534075D01*
X68750000Y-50566988D01*
X68750000Y-49500000D01*
X67952155Y-49500000D01*
X67892627Y-49506401D01*
X67892620Y-49506403D01*
X67757913Y-49556645D01*
X67757906Y-49556649D01*
X67642812Y-49642809D01*
X67642809Y-49642812D01*
X67556649Y-49757906D01*
X67556645Y-49757913D01*
X67506403Y-49892620D01*
X67506401Y-49892627D01*
X67500000Y-49952155D01*
X32500500Y-49952155D01*
X32500500Y-45999995D01*
X33494451Y-45999995D01*
X33494451Y-46000004D01*
X33514616Y-46269101D01*
X33574664Y-46532188D01*
X33574666Y-46532195D01*
X33673257Y-46783398D01*
X33808185Y-47017102D01*
X33944080Y-47187509D01*
X33976442Y-47228089D01*
X34163183Y-47401358D01*
X34174259Y-47411635D01*
X34397226Y-47563651D01*
X34640359Y-47680738D01*
X34898228Y-47760280D01*
X34898229Y-47760280D01*
X34898232Y-47760281D01*
X35165063Y-47800499D01*
X35165068Y-47800499D01*
X35165071Y-47800500D01*
X35165072Y-47800500D01*
X35434928Y-47800500D01*
X35434929Y-47800500D01*
X35434936Y-47800499D01*
X35701767Y-47760281D01*
X35701768Y-47760280D01*
X35701772Y-47760280D01*
X35959641Y-47680738D01*
X36202775Y-47563651D01*
X36425741Y-47411635D01*
X36623561Y-47228085D01*
X36791815Y-47017102D01*
X36926743Y-46783398D01*
X37025334Y-46532195D01*
X37085383Y-46269103D01*
X37105549Y-46000000D01*
X37085383Y-45730897D01*
X37025334Y-45467805D01*
X36926743Y-45216602D01*
X36791815Y-44982898D01*
X36623561Y-44771915D01*
X36623560Y-44771914D01*
X36623557Y-44771910D01*
X36494469Y-44652135D01*
X46199500Y-44652135D01*
X46199500Y-47347870D01*
X46199501Y-47347876D01*
X46205908Y-47407483D01*
X46256202Y-47542328D01*
X46256206Y-47542335D01*
X46342452Y-47657544D01*
X46342455Y-47657547D01*
X46457664Y-47743793D01*
X46457671Y-47743797D01*
X46592517Y-47794091D01*
X46592516Y-47794091D01*
X46599444Y-47794835D01*
X46652127Y-47800500D01*
X49347872Y-47800499D01*
X49407483Y-47794091D01*
X49542331Y-47743796D01*
X49657546Y-47657546D01*
X49743796Y-47542331D01*
X49794091Y-47407483D01*
X49800500Y-47347873D01*
X49800499Y-44652128D01*
X49794091Y-44592517D01*
X49792542Y-44588365D01*
X49743797Y-44457671D01*
X49743793Y-44457664D01*
X49657547Y-44342455D01*
X49657544Y-44342452D01*
X49542335Y-44256206D01*
X49542328Y-44256202D01*
X49407482Y-44205908D01*
X49407483Y-44205908D01*
X49347883Y-44199501D01*
X49347881Y-44199500D01*
X49347873Y-44199500D01*
X49347864Y-44199500D01*
X46652129Y-44199500D01*
X46652123Y-44199501D01*
X46592516Y-44205908D01*
X46457671Y-44256202D01*
X46457664Y-44256206D01*
X46342455Y-44342452D01*
X46342452Y-44342455D01*
X46256206Y-44457664D01*
X46256202Y-44457671D01*
X46205908Y-44592517D01*
X46199501Y-44652116D01*
X46199501Y-44652123D01*
X46199500Y-44652135D01*
X36494469Y-44652135D01*
X36425741Y-44588365D01*
X36202775Y-44436349D01*
X36202769Y-44436346D01*
X36202768Y-44436345D01*
X36202767Y-44436344D01*
X35959643Y-44319263D01*
X35959645Y-44319263D01*
X35701773Y-44239720D01*
X35701767Y-44239718D01*
X35434936Y-44199500D01*
X35434929Y-44199500D01*
X35165071Y-44199500D01*
X35165063Y-44199500D01*
X34898232Y-44239718D01*
X34898226Y-44239720D01*
X34640358Y-44319262D01*
X34397230Y-44436346D01*
X34174258Y-44588365D01*
X33976442Y-44771910D01*
X33808185Y-44982898D01*
X33673258Y-45216599D01*
X33673256Y-45216603D01*
X33574666Y-45467804D01*
X33574664Y-45467811D01*
X33514616Y-45730898D01*
X33494451Y-45999995D01*
X32500500Y-45999995D01*
X32500500Y-42124000D01*
X32520185Y-42056961D01*
X32572989Y-42011206D01*
X32624500Y-42000000D01*
X48000000Y-42000000D01*
X48000000Y-36732135D01*
X50319500Y-36732135D01*
X50319500Y-38427870D01*
X50319501Y-38427876D01*
X50325908Y-38487483D01*
X50376202Y-38622328D01*
X50376206Y-38622335D01*
X50462452Y-38737544D01*
X50462455Y-38737547D01*
X50577664Y-38823793D01*
X50577671Y-38823797D01*
X50712517Y-38874091D01*
X50712516Y-38874091D01*
X50719444Y-38874835D01*
X50772127Y-38880500D01*
X52467872Y-38880499D01*
X52527483Y-38874091D01*
X52662331Y-38823796D01*
X52777546Y-38737546D01*
X52863796Y-38622331D01*
X52914091Y-38487483D01*
X52920500Y-38427873D01*
X52920499Y-36732128D01*
X52914091Y-36672517D01*
X52863796Y-36537669D01*
X52863795Y-36537668D01*
X52863793Y-36537664D01*
X52859654Y-36532135D01*
X56499500Y-36532135D01*
X56499500Y-38627870D01*
X56499501Y-38627876D01*
X56505908Y-38687483D01*
X56556202Y-38822328D01*
X56556206Y-38822335D01*
X56642452Y-38937544D01*
X56642455Y-38937547D01*
X56757664Y-39023793D01*
X56757671Y-39023797D01*
X56892517Y-39074091D01*
X56892516Y-39074091D01*
X56899444Y-39074835D01*
X56952127Y-39080500D01*
X59047872Y-39080499D01*
X59107483Y-39074091D01*
X59242331Y-39023796D01*
X59357546Y-38937546D01*
X59443796Y-38822331D01*
X59494091Y-38687483D01*
X59500500Y-38627873D01*
X59500499Y-36532128D01*
X59494091Y-36472517D01*
X59449611Y-36353261D01*
X59443797Y-36337671D01*
X59443793Y-36337664D01*
X59357547Y-36222455D01*
X59357544Y-36222452D01*
X59242335Y-36136206D01*
X59242328Y-36136202D01*
X59107482Y-36085908D01*
X59107483Y-36085908D01*
X59047883Y-36079501D01*
X59047881Y-36079500D01*
X59047873Y-36079500D01*
X59047864Y-36079500D01*
X56952129Y-36079500D01*
X56952123Y-36079501D01*
X56892516Y-36085908D01*
X56757671Y-36136202D01*
X56757664Y-36136206D01*
X56642455Y-36222452D01*
X56642452Y-36222455D01*
X56556206Y-36337664D01*
X56556202Y-36337671D01*
X56505908Y-36472517D01*
X56499501Y-36532116D01*
X56499501Y-36532123D01*
X56499500Y-36532135D01*
X52859654Y-36532135D01*
X52777547Y-36422455D01*
X52777544Y-36422452D01*
X52662335Y-36336206D01*
X52662328Y-36336202D01*
X52527482Y-36285908D01*
X52527483Y-36285908D01*
X52467883Y-36279501D01*
X52467881Y-36279500D01*
X52467873Y-36279500D01*
X52467864Y-36279500D01*
X50772129Y-36279500D01*
X50772123Y-36279501D01*
X50712516Y-36285908D01*
X50577671Y-36336202D01*
X50577664Y-36336206D01*
X50462455Y-36422452D01*
X50462452Y-36422455D01*
X50376206Y-36537664D01*
X50376202Y-36537671D01*
X50325908Y-36672517D01*
X50319501Y-36732116D01*
X50319501Y-36732123D01*
X50319500Y-36732135D01*
X48000000Y-36732135D01*
X48000000Y-32499998D01*
X50314532Y-32499998D01*
X50314532Y-32500001D01*
X50334364Y-32726686D01*
X50334366Y-32726697D01*
X50393258Y-32946488D01*
X50393261Y-32946497D01*
X50489431Y-33152732D01*
X50489432Y-33152734D01*
X50619954Y-33339141D01*
X50780858Y-33500045D01*
X50780861Y-33500047D01*
X50967266Y-33630568D01*
X51173504Y-33726739D01*
X51393308Y-33785635D01*
X51555230Y-33799801D01*
X51619998Y-33805468D01*
X51620000Y-33805468D01*
X51620002Y-33805468D01*
X51676673Y-33800509D01*
X51846692Y-33785635D01*
X52066496Y-33726739D01*
X52272734Y-33630568D01*
X52459139Y-33500047D01*
X52620047Y-33339139D01*
X52750568Y-33152734D01*
X52846739Y-32946496D01*
X52905635Y-32726692D01*
X52918469Y-32579994D01*
X56494357Y-32579994D01*
X56494357Y-32580005D01*
X56514890Y-32827812D01*
X56514892Y-32827824D01*
X56575936Y-33068881D01*
X56675826Y-33296606D01*
X56811833Y-33504782D01*
X56811836Y-33504785D01*
X56980256Y-33687738D01*
X57176491Y-33840474D01*
X57395190Y-33958828D01*
X57630386Y-34039571D01*
X57875665Y-34080500D01*
X58124335Y-34080500D01*
X58369614Y-34039571D01*
X58604810Y-33958828D01*
X58823509Y-33840474D01*
X59019744Y-33687738D01*
X59188164Y-33504785D01*
X59191260Y-33500047D01*
X59296384Y-33339141D01*
X59324173Y-33296607D01*
X59424063Y-33068881D01*
X59485108Y-32827821D01*
X59485109Y-32827812D01*
X59505643Y-32580005D01*
X59505643Y-32579994D01*
X59485109Y-32332187D01*
X59485107Y-32332175D01*
X59424063Y-32091118D01*
X59324173Y-31863393D01*
X59188166Y-31655217D01*
X59166557Y-31631744D01*
X59019744Y-31472262D01*
X58823509Y-31319526D01*
X58823507Y-31319525D01*
X58823506Y-31319524D01*
X58604811Y-31201172D01*
X58604802Y-31201169D01*
X58369616Y-31120429D01*
X58124335Y-31079500D01*
X57875665Y-31079500D01*
X57630383Y-31120429D01*
X57395197Y-31201169D01*
X57395188Y-31201172D01*
X57176493Y-31319524D01*
X56980257Y-31472261D01*
X56811833Y-31655217D01*
X56675826Y-31863393D01*
X56575936Y-32091118D01*
X56514892Y-32332175D01*
X56514890Y-32332187D01*
X56494357Y-32579994D01*
X52918469Y-32579994D01*
X52925468Y-32500000D01*
X52905635Y-32273308D01*
X52846739Y-32053504D01*
X52750568Y-31847266D01*
X52620047Y-31660861D01*
X52620045Y-31660858D01*
X52459141Y-31499954D01*
X52272734Y-31369432D01*
X52272732Y-31369431D01*
X52066497Y-31273261D01*
X52066488Y-31273258D01*
X51846697Y-31214366D01*
X51846693Y-31214365D01*
X51846692Y-31214365D01*
X51846691Y-31214364D01*
X51846686Y-31214364D01*
X51620002Y-31194532D01*
X51619998Y-31194532D01*
X51393313Y-31214364D01*
X51393302Y-31214366D01*
X51173511Y-31273258D01*
X51173502Y-31273261D01*
X50967267Y-31369431D01*
X50967265Y-31369432D01*
X50780858Y-31499954D01*
X50619954Y-31660858D01*
X50489432Y-31847265D01*
X50489431Y-31847267D01*
X50393261Y-32053502D01*
X50393258Y-32053511D01*
X50334366Y-32273302D01*
X50334364Y-32273313D01*
X50314532Y-32499998D01*
X48000000Y-32499998D01*
X48000000Y-22624500D01*
X48019685Y-22557461D01*
X48072489Y-22511706D01*
X48124000Y-22500500D01*
X60172364Y-22500500D01*
X60239403Y-22520185D01*
G37*
%TD.AperFunction*%
%TD*%
M02*
