M48
; DRILL file {KiCad 8.0.8} date 2025-02-09T13:51:30-0500
; FORMAT={-:-/ absolute / inch / decimal}
; #@! TF.CreationDate,2025-02-09T13:51:30-05:00
; #@! TF.GenerationSoftware,Kicad,Pcbnew,8.0.8
; #@! TF.FileFunction,Plated,1,2,PTH
FMAT,2
INCH
; #@! TA.AperFunction,Plated,PTH,ViaDrill
T1C0.0118
; #@! TA.AperFunction,Plated,PTH,ComponentDrill
T2C0.0315
; #@! TA.AperFunction,Plated,PTH,ComponentDrill
T3C0.0394
; #@! TA.AperFunction,Plated,PTH,ComponentDrill
T4C0.0433
; #@! TA.AperFunction,Plated,PTH,ComponentDrill
T5C0.0512
; #@! TA.AperFunction,Plated,PTH,ComponentDrill
T6C0.1260
%
G90
G05
T1
X1.4173Y-3.0906
X1.8898Y-3.0906
X2.0669Y-2.9134
X2.3622Y-3.2283
X2.7756Y-3.0906
X2.8272Y-3.098
T2
X1.5551Y-2.2047
X1.5551Y-3.4252
X1.5945Y-2.0472
X1.6535Y-2.2047
X1.6535Y-3.4252
X1.7323Y-1.2795
X1.7323Y-1.4795
X1.752Y-2.2047
X1.8504Y-2.2047
X1.9945Y-2.0472
X2.0276Y-3.4252
X2.0323Y-1.2795
X2.0323Y-1.4795
X2.126Y-3.4252
X2.3622Y-3.3268
X2.4606Y-3.3268
X2.5394Y-2.3228
X2.6378Y-2.3228
X2.7559Y-2.3228
X2.9528Y-2.3228
T3
X2.2835Y-1.2827
X2.2835Y-1.4795
X2.7165Y-2.0079
X2.8346Y-3.3071
X2.9134Y-2.0079
X2.9346Y-3.3071
T4
X1.4173Y-2.3228
X1.4173Y-2.5039
X1.4173Y-2.685
X1.6535Y-2.3819
X1.6535Y-2.6378
X1.8307Y-2.3819
X1.8307Y-2.6378
T5
X1.3898Y-1.811
X1.3976Y-3.7205
X1.4567Y-1.2795
X1.4567Y-1.4795
X1.5976Y-3.7205
X1.8701Y-3.7205
X1.8898Y-1.811
X2.0701Y-3.7205
T6
X1.6142Y-2.9528
X2.4016Y-1.0236
M30
