%TF.GenerationSoftware,KiCad,Pcbnew,8.0.8*%
%TF.CreationDate,2025-02-09T13:51:33-05:00*%
%TF.ProjectId,ESPHomeACMonitor,45535048-6f6d-4654-9143-4d6f6e69746f,rev?*%
%TF.SameCoordinates,Original*%
%TF.FileFunction,Copper,L1,Top*%
%TF.FilePolarity,Positive*%
%FSLAX46Y46*%
G04 Gerber Fmt 4.6, Leading zero omitted, Abs format (unit mm)*
G04 Created by KiCad (PCBNEW 8.0.8) date 2025-02-09 13:51:33*
%MOMM*%
%LPD*%
G01*
G04 APERTURE LIST*
G04 Aperture macros list*
%AMRoundRect*
0 Rectangle with rounded corners*
0 $1 Rounding radius*
0 $2 $3 $4 $5 $6 $7 $8 $9 X,Y pos of 4 corners*
0 Add a 4 corners polygon primitive as box body*
4,1,4,$2,$3,$4,$5,$6,$7,$8,$9,$2,$3,0*
0 Add four circle primitives for the rounded corners*
1,1,$1+$1,$2,$3*
1,1,$1+$1,$4,$5*
1,1,$1+$1,$6,$7*
1,1,$1+$1,$8,$9*
0 Add four rect primitives between the rounded corners*
20,1,$1+$1,$2,$3,$4,$5,0*
20,1,$1+$1,$4,$5,$6,$7,0*
20,1,$1+$1,$6,$7,$8,$9,0*
20,1,$1+$1,$8,$9,$2,$3,0*%
G04 Aperture macros list end*
%TA.AperFunction,ComponentPad*%
%ADD10C,5.700000*%
%TD*%
%TA.AperFunction,SMDPad,CuDef*%
%ADD11RoundRect,0.150000X0.150000X-0.825000X0.150000X0.825000X-0.150000X0.825000X-0.150000X-0.825000X0*%
%TD*%
%TA.AperFunction,SMDPad,CuDef*%
%ADD12RoundRect,0.250000X0.950000X0.425000X-0.950000X0.425000X-0.950000X-0.425000X0.950000X-0.425000X0*%
%TD*%
%TA.AperFunction,SMDPad,CuDef*%
%ADD13R,0.900000X1.500000*%
%TD*%
%TA.AperFunction,SMDPad,CuDef*%
%ADD14R,0.900000X0.900000*%
%TD*%
%TA.AperFunction,ComponentPad*%
%ADD15C,2.000000*%
%TD*%
%TA.AperFunction,ComponentPad*%
%ADD16O,1.600000X1.600000*%
%TD*%
%TA.AperFunction,ComponentPad*%
%ADD17C,1.600000*%
%TD*%
%TA.AperFunction,SMDPad,CuDef*%
%ADD18R,5.400000X2.900000*%
%TD*%
%TA.AperFunction,ComponentPad*%
%ADD19R,1.700000X1.700000*%
%TD*%
%TA.AperFunction,ComponentPad*%
%ADD20O,1.700000X1.700000*%
%TD*%
%TA.AperFunction,ComponentPad*%
%ADD21R,2.600000X2.600000*%
%TD*%
%TA.AperFunction,ComponentPad*%
%ADD22C,2.600000*%
%TD*%
%TA.AperFunction,ComponentPad*%
%ADD23RoundRect,0.250001X-0.799999X0.799999X-0.799999X-0.799999X0.799999X-0.799999X0.799999X0.799999X0*%
%TD*%
%TA.AperFunction,ComponentPad*%
%ADD24C,2.100000*%
%TD*%
%TA.AperFunction,ComponentPad*%
%ADD25O,2.600000X2.600000*%
%TD*%
%TA.AperFunction,ComponentPad*%
%ADD26R,1.600000X1.600000*%
%TD*%
%TA.AperFunction,ComponentPad*%
%ADD27R,2.000000X2.000000*%
%TD*%
%TA.AperFunction,SMDPad,CuDef*%
%ADD28RoundRect,0.250000X0.300000X-2.050000X0.300000X2.050000X-0.300000X2.050000X-0.300000X-2.050000X0*%
%TD*%
%TA.AperFunction,SMDPad,CuDef*%
%ADD29RoundRect,0.250000X2.375000X-2.025000X2.375000X2.025000X-2.375000X2.025000X-2.375000X-2.025000X0*%
%TD*%
%TA.AperFunction,SMDPad,CuDef*%
%ADD30RoundRect,0.250002X5.149998X-4.449998X5.149998X4.449998X-5.149998X4.449998X-5.149998X-4.449998X0*%
%TD*%
%TA.AperFunction,ViaPad*%
%ADD31C,0.600000*%
%TD*%
%TA.AperFunction,Conductor*%
%ADD32C,0.750000*%
%TD*%
%TA.AperFunction,Conductor*%
%ADD33C,3.000000*%
%TD*%
%TA.AperFunction,Conductor*%
%ADD34C,1.000000*%
%TD*%
G04 APERTURE END LIST*
D10*
%TO.P,REF\u002A\u002A,1*%
%TO.N,N/C*%
X41000000Y-75000000D03*
%TD*%
%TO.P,REF\u002A\u002A,1*%
%TO.N,N/C*%
X61000000Y-26000000D03*
%TD*%
D11*
%TO.P,U4,8,NC*%
%TO.N,unconnected-(U4-NC-Pad8)*%
X33595000Y-82025000D03*
%TO.P,U4,7,SO*%
%TO.N,/MISO*%
X34865000Y-82025000D03*
%TO.P,U4,6,~{CS}*%
%TO.N,/CS1*%
X36135000Y-82025000D03*
%TO.P,U4,5,SCK*%
%TO.N,/SCLK*%
X37405000Y-82025000D03*
%TO.P,U4,4,V_{CC}*%
%TO.N,+3.3V*%
X37405000Y-86975000D03*
%TO.P,U4,3,T+*%
%TO.N,Net-(J3-Pin_2)*%
X36135000Y-86975000D03*
%TO.P,U4,2,T-*%
%TO.N,Net-(J3-Pin_1)*%
X34865000Y-86975000D03*
%TO.P,U4,1,GND*%
%TO.N,GND*%
X33595000Y-86975000D03*
%TD*%
%TO.P,U3,8,NC*%
%TO.N,unconnected-(U3-NC-Pad8)*%
X45595000Y-82025000D03*
%TO.P,U3,7,SO*%
%TO.N,/MISO*%
X46865000Y-82025000D03*
%TO.P,U3,6,~{CS}*%
%TO.N,/CS2*%
X48135000Y-82025000D03*
%TO.P,U3,5,SCK*%
%TO.N,/SCLK*%
X49405000Y-82025000D03*
%TO.P,U3,4,V_{CC}*%
%TO.N,+3.3V*%
X49405000Y-86975000D03*
%TO.P,U3,3,T+*%
%TO.N,Net-(J2-Pin_2)*%
X48135000Y-86975000D03*
%TO.P,U3,2,T-*%
%TO.N,Net-(J2-Pin_1)*%
X46865000Y-86975000D03*
%TO.P,U3,1,GND*%
%TO.N,GND*%
X45595000Y-86975000D03*
%TD*%
D12*
%TO.P,U2,1,NC*%
%TO.N,unconnected-(U2-NC-Pad1)*%
X74200000Y-96810000D03*
%TO.P,U2,2,GND*%
%TO.N,GND*%
X74200000Y-94270000D03*
%TO.P,U2,3,SCL*%
%TO.N,/SCL*%
X74200000Y-91730000D03*
%TO.P,U2,4,SDA*%
%TO.N,/SDA*%
X74200000Y-89190000D03*
%TO.P,U2,5,NC*%
%TO.N,unconnected-(U2-NC-Pad5)*%
X57800000Y-89190000D03*
%TO.P,U2,6,VDD*%
%TO.N,+3.3V*%
X57800000Y-91730000D03*
%TO.P,U2,7,NC*%
%TO.N,unconnected-(U2-NC-Pad7)*%
X57800000Y-94270000D03*
%TO.P,U2,8,NC*%
%TO.N,unconnected-(U2-NC-Pad8)*%
X57800000Y-96810000D03*
%TD*%
D13*
%TO.P,U1,1,GND*%
%TO.N,GND*%
X75755000Y-62750000D03*
%TO.P,U1,2,3V3*%
%TO.N,+3.3V*%
X74485000Y-62750000D03*
%TO.P,U1,3,EN/CHIP_PU*%
%TO.N,Net-(U1-EN{slash}CHIP_PU)*%
X73215000Y-62750000D03*
%TO.P,U1,4,SENSOR_VP/GPIO36/ADC1_CH0*%
%TO.N,unconnected-(U1-SENSOR_VP{slash}GPIO36{slash}ADC1_CH0-Pad4)*%
X71945000Y-62750000D03*
%TO.P,U1,5,SENSOR_VN/GPIO39/ADC1_CH3*%
%TO.N,unconnected-(U1-SENSOR_VN{slash}GPIO39{slash}ADC1_CH3-Pad5)*%
X70675000Y-62750000D03*
%TO.P,U1,6,GPIO34/ADC1_CH6*%
%TO.N,unconnected-(U1-GPIO34{slash}ADC1_CH6-Pad6)*%
X69405000Y-62750000D03*
%TO.P,U1,7,GPIO35/ADC1_CH7*%
%TO.N,unconnected-(U1-GPIO35{slash}ADC1_CH7-Pad7)*%
X68135000Y-62750000D03*
%TO.P,U1,8,32K_XP/GPIO32/ADC1_CH4*%
%TO.N,/SCLK*%
X66865000Y-62750000D03*
%TO.P,U1,9,32K_XN/GPIO33/ADC1_CH5*%
%TO.N,/MISO*%
X65595000Y-62750000D03*
%TO.P,U1,10,DAC_1/ADC2_CH8/GPIO25*%
%TO.N,unconnected-(U1-DAC_1{slash}ADC2_CH8{slash}GPIO25-Pad10)*%
X64325000Y-62750000D03*
%TO.P,U1,11,DAC_2/ADC2_CH9/GPIO26*%
%TO.N,unconnected-(U1-DAC_2{slash}ADC2_CH9{slash}GPIO26-Pad11)*%
X63055000Y-62750000D03*
%TO.P,U1,12,ADC2_CH7/GPIO27*%
%TO.N,unconnected-(U1-ADC2_CH7{slash}GPIO27-Pad12)*%
X61785000Y-62750000D03*
%TO.P,U1,13,MTMS/GPIO14/ADC2_CH6*%
%TO.N,unconnected-(U1-MTMS{slash}GPIO14{slash}ADC2_CH6-Pad13)*%
X60515000Y-62750000D03*
%TO.P,U1,14,MTDI/GPIO12/ADC2_CH5*%
%TO.N,GND*%
X59245000Y-62750000D03*
%TO.P,U1,15,GND*%
X57975000Y-62750000D03*
%TO.P,U1,16,MTCK/GPIO13/ADC2_CH4*%
%TO.N,unconnected-(U1-MTCK{slash}GPIO13{slash}ADC2_CH4-Pad16)*%
X56705000Y-62750000D03*
%TO.P,U1,17*%
%TO.N,N/C*%
X55435000Y-62750000D03*
%TO.P,U1,18*%
X54165000Y-62750000D03*
%TO.P,U1,19*%
X52895000Y-62750000D03*
%TO.P,U1,20*%
X52895000Y-80250000D03*
%TO.P,U1,21*%
X54165000Y-80250000D03*
%TO.P,U1,22*%
X55435000Y-80250000D03*
%TO.P,U1,23,MTDO/GPIO15/ADC2_CH3*%
%TO.N,/CS2*%
X56705000Y-80250000D03*
%TO.P,U1,24,ADC2_CH2/GPIO2*%
%TO.N,/CS1*%
X57975000Y-80250000D03*
%TO.P,U1,25,GPIO0/BOOT/ADC2_CH1*%
%TO.N,Net-(JP1-A)*%
X59245000Y-80250000D03*
%TO.P,U1,26,ADC2_CH0/GPIO4*%
%TO.N,unconnected-(U1-ADC2_CH0{slash}GPIO4-Pad26)*%
X60515000Y-80250000D03*
%TO.P,U1,27*%
%TO.N,N/C*%
X61785000Y-80250000D03*
%TO.P,U1,28*%
X63055000Y-80250000D03*
%TO.P,U1,29,GPIO5*%
%TO.N,unconnected-(U1-GPIO5-Pad29)*%
X64325000Y-80250000D03*
%TO.P,U1,30,GPIO18*%
%TO.N,/SCL*%
X65595000Y-80250000D03*
%TO.P,U1,31,GPIO19*%
%TO.N,/SDA*%
X66865000Y-80250000D03*
%TO.P,U1,32*%
%TO.N,N/C*%
X68135000Y-80250000D03*
%TO.P,U1,33,GPIO21*%
%TO.N,unconnected-(U1-GPIO21-Pad33)*%
X69405000Y-80250000D03*
%TO.P,U1,34,U0RXD/GPIO3*%
%TO.N,Net-(J1-Pin_2)*%
X70675000Y-80250000D03*
%TO.P,U1,35,U0TXD/GPIO1*%
%TO.N,Net-(J1-Pin_1)*%
X71945000Y-80250000D03*
%TO.P,U1,36,GPIO22*%
%TO.N,unconnected-(U1-GPIO22-Pad36)*%
X73215000Y-80250000D03*
%TO.P,U1,37,GPIO23*%
%TO.N,unconnected-(U1-GPIO23-Pad37)*%
X74485000Y-80250000D03*
%TO.P,U1,38,GND*%
%TO.N,GND*%
X75755000Y-80250000D03*
D14*
%TO.P,U1,39,GND_THERMAL*%
X69360000Y-68595000D03*
X67960000Y-68600000D03*
X66560000Y-68600000D03*
X69360000Y-70000000D03*
X67960000Y-70000000D03*
X66560000Y-70000000D03*
X69360000Y-71400000D03*
X67960000Y-71400000D03*
X66560000Y-71400000D03*
%TD*%
D15*
%TO.P,SW1,2,2*%
%TO.N,Net-(U1-EN{slash}CHIP_PU)*%
X46500000Y-60500000D03*
X46500000Y-67000000D03*
%TO.P,SW1,1,1*%
%TO.N,GND*%
X42000000Y-60500000D03*
X42000000Y-67000000D03*
%TD*%
D16*
%TO.P,R1,2*%
%TO.N,+3.3V*%
X50660000Y-52000000D03*
D17*
%TO.P,R1,1*%
%TO.N,Net-(U1-EN{slash}CHIP_PU)*%
X40500000Y-52000000D03*
%TD*%
D18*
%TO.P,L1,1,1*%
%TO.N,Net-(D2-K)*%
X58500000Y-42650000D03*
%TO.P,L1,2,2*%
%TO.N,+3.3V*%
X58500000Y-52350000D03*
%TD*%
D19*
%TO.P,JP1,1,A*%
%TO.N,Net-(JP1-A)*%
X72000000Y-84000000D03*
D20*
%TO.P,JP1,2,B*%
%TO.N,GND*%
X74540000Y-84000000D03*
%TD*%
D21*
%TO.P,J4,1,Pin_1*%
%TO.N,Net-(J4-Pin_1)*%
X37000000Y-32500000D03*
D22*
%TO.P,J4,2,Pin_2*%
%TO.N,Net-(J4-Pin_2)*%
X37000000Y-37580000D03*
%TD*%
%TO.P,J3,2,Pin_2*%
%TO.N,Net-(J3-Pin_2)*%
X40580000Y-94500000D03*
D21*
%TO.P,J3,1,Pin_1*%
%TO.N,Net-(J3-Pin_1)*%
X35500000Y-94500000D03*
%TD*%
D22*
%TO.P,J2,2,Pin_2*%
%TO.N,Net-(J2-Pin_2)*%
X52580000Y-94500000D03*
D21*
%TO.P,J2,1,Pin_1*%
%TO.N,Net-(J2-Pin_1)*%
X47500000Y-94500000D03*
%TD*%
D23*
%TO.P,J1,1,Pin_1*%
%TO.N,Net-(J1-Pin_1)*%
X36000000Y-59000000D03*
D24*
%TO.P,J1,2,Pin_2*%
%TO.N,Net-(J1-Pin_2)*%
X36000000Y-63600000D03*
%TO.P,J1,3,Pin_3*%
%TO.N,GND*%
X36000000Y-68200000D03*
%TD*%
D21*
%TO.P,D2,1,K*%
%TO.N,Net-(D2-K)*%
X48000000Y-46000000D03*
D25*
%TO.P,D2,2,A*%
%TO.N,GND*%
X35300000Y-46000000D03*
%TD*%
D16*
%TO.P,D1,4*%
%TO.N,Net-(J4-Pin_2)*%
X44000000Y-37580000D03*
%TO.P,D1,3*%
%TO.N,Net-(J4-Pin_1)*%
X44000000Y-32500000D03*
%TO.P,D1,2,-*%
%TO.N,GND*%
X51620000Y-32500000D03*
D26*
%TO.P,D1,1,+*%
%TO.N,Net-(D1-+)*%
X51620000Y-37580000D03*
%TD*%
D27*
%TO.P,C9,1*%
%TO.N,+3.3V*%
X69000000Y-51000000D03*
D15*
%TO.P,C9,2*%
%TO.N,GND*%
X74000000Y-51000000D03*
%TD*%
D27*
%TO.P,C8,1*%
%TO.N,Net-(D1-+)*%
X58000000Y-37580000D03*
D15*
%TO.P,C8,2*%
%TO.N,GND*%
X58000000Y-32580000D03*
%TD*%
D17*
%TO.P,C7,2*%
%TO.N,GND*%
X62500000Y-84500000D03*
%TO.P,C7,1*%
%TO.N,+3.3V*%
X60000000Y-84500000D03*
%TD*%
%TO.P,C6,1*%
%TO.N,+3.3V*%
X39500000Y-87000000D03*
%TO.P,C6,2*%
%TO.N,GND*%
X42000000Y-87000000D03*
%TD*%
%TO.P,C5,2*%
%TO.N,GND*%
X54000000Y-87000000D03*
%TO.P,C5,1*%
%TO.N,+3.3V*%
X51500000Y-87000000D03*
%TD*%
%TO.P,C4,1*%
%TO.N,GND*%
X39500000Y-56000000D03*
%TO.P,C4,2*%
%TO.N,Net-(U1-EN{slash}CHIP_PU)*%
X42000000Y-56000000D03*
%TD*%
%TO.P,C1,1*%
%TO.N,+3.3V*%
X70000000Y-59000000D03*
%TO.P,C1,2*%
%TO.N,GND*%
X75000000Y-59000000D03*
%TD*%
D28*
%TO.P,U5,5,~{ON}/OFF*%
%TO.N,GND*%
X74400000Y-42650000D03*
%TO.P,U5,4,FB*%
%TO.N,+3.3V*%
X72700000Y-42650000D03*
D29*
%TO.P,U5,3,GND*%
%TO.N,GND*%
X73775000Y-31075000D03*
X68225000Y-31075000D03*
D30*
X71000000Y-33500000D03*
D29*
X73775000Y-35925000D03*
X68225000Y-35925000D03*
D28*
X71000000Y-42650000D03*
%TO.P,U5,2,OUT*%
%TO.N,Net-(D2-K)*%
X69300000Y-42650000D03*
%TO.P,U5,1,VIN*%
%TO.N,Net-(D1-+)*%
X67600000Y-42650000D03*
%TD*%
D17*
%TO.P,C3,1*%
%TO.N,Net-(U1-EN{slash}CHIP_PU)*%
X44500000Y-56000000D03*
%TO.P,C3,2*%
%TO.N,+3.3V*%
X47000000Y-56000000D03*
%TD*%
%TO.P,C2,1*%
%TO.N,+3.3V*%
X67000000Y-59000000D03*
%TO.P,C2,2*%
%TO.N,GND*%
X64500000Y-59000000D03*
%TD*%
D31*
%TO.N,Net-(JP1-A)*%
X60000000Y-82000000D03*
%TO.N,/MISO*%
X36000000Y-78500000D03*
X52500000Y-74000000D03*
X48000000Y-78500000D03*
%TO.N,Net-(J1-Pin_1)*%
X71810749Y-78689251D03*
%TO.N,Net-(J1-Pin_2)*%
X70500000Y-78500000D03*
%TD*%
D32*
%TO.N,+3.3V*%
X60000000Y-84500000D02*
X60000000Y-90730000D01*
X60000000Y-90730000D02*
X59000000Y-91730000D01*
X59000000Y-91730000D02*
X57800000Y-91730000D01*
%TO.N,/SDA*%
X66865000Y-80250000D02*
X66865000Y-83365000D01*
X66865000Y-83365000D02*
X72690000Y-89190000D01*
X72690000Y-89190000D02*
X74200000Y-89190000D01*
%TO.N,/SCL*%
X65595000Y-80250000D02*
X65595000Y-84325000D01*
X65595000Y-84325000D02*
X73000000Y-91730000D01*
X73000000Y-91730000D02*
X74200000Y-91730000D01*
%TO.N,Net-(JP1-A)*%
X60000000Y-82000000D02*
X59245000Y-81245000D01*
X59245000Y-81245000D02*
X59245000Y-80250000D01*
%TO.N,/SDA*%
X73494848Y-89190000D02*
X74700000Y-89190000D01*
%TO.N,/SCL*%
X74691346Y-91730000D02*
X74700000Y-91730000D01*
%TO.N,/CS2*%
X56705000Y-80250000D02*
X56705000Y-81330000D01*
X56705000Y-81330000D02*
X54460000Y-83575000D01*
X54460000Y-83575000D02*
X48950540Y-83575000D01*
X48950540Y-83575000D02*
X48135000Y-82759460D01*
X48135000Y-82759460D02*
X48135000Y-82025000D01*
%TO.N,/CS1*%
X57975000Y-80250000D02*
X57975000Y-81403503D01*
X57975000Y-81403503D02*
X54853503Y-84525000D01*
X37265000Y-84525000D02*
X36135000Y-83395000D01*
X54853503Y-84525000D02*
X37265000Y-84525000D01*
X36135000Y-83395000D02*
X36135000Y-82025000D01*
%TO.N,+3.3V*%
X39500000Y-87000000D02*
X37430000Y-87000000D01*
X37430000Y-87000000D02*
X37405000Y-86975000D01*
X51500000Y-87000000D02*
X49430000Y-87000000D01*
X49430000Y-87000000D02*
X49405000Y-86975000D01*
%TO.N,/MISO*%
X34865000Y-79635000D02*
X36000000Y-78500000D01*
X34865000Y-82025000D02*
X34865000Y-79635000D01*
X52500000Y-74000000D02*
X55425000Y-74000000D01*
X46865000Y-82025000D02*
X46865000Y-79635000D01*
X65595000Y-63830000D02*
X65595000Y-62750000D01*
X46865000Y-79635000D02*
X48000000Y-78500000D01*
X55425000Y-74000000D02*
X65595000Y-63830000D01*
%TO.N,/SCLK*%
X49405000Y-80020000D02*
X52712500Y-76712500D01*
X52712500Y-76712500D02*
X54402500Y-76712500D01*
X52712500Y-76712500D02*
X50500000Y-76712500D01*
X54402500Y-76712500D02*
X50500000Y-76712500D01*
X50500000Y-76712500D02*
X45787500Y-76712500D01*
X66865000Y-62750000D02*
X66865000Y-64250000D01*
X66865000Y-64250000D02*
X54402500Y-76712500D01*
X45787500Y-76712500D02*
X42500000Y-80000000D01*
X42500000Y-80000000D02*
X38000000Y-80000000D01*
X38000000Y-80000000D02*
X37405000Y-80595000D01*
X37405000Y-80595000D02*
X37405000Y-82025000D01*
X49405000Y-82025000D02*
X49405000Y-80020000D01*
%TO.N,Net-(J1-Pin_1)*%
X71945000Y-78823502D02*
X71810749Y-78689251D01*
X71945000Y-80250000D02*
X71945000Y-78823502D01*
%TO.N,Net-(J1-Pin_2)*%
X70675000Y-80250000D02*
X70675000Y-78675000D01*
X70675000Y-78675000D02*
X70500000Y-78500000D01*
%TO.N,Net-(U1-EN{slash}CHIP_PU)*%
X46500000Y-60500000D02*
X72045000Y-60500000D01*
X73215000Y-61670000D02*
X73215000Y-62750000D01*
X72045000Y-60500000D02*
X73215000Y-61670000D01*
%TO.N,+3.3V*%
X67000000Y-53000000D02*
X67650000Y-52350000D01*
X70000000Y-59000000D02*
X72235000Y-59000000D01*
X72235000Y-59000000D02*
X74485000Y-61250000D01*
X74485000Y-61250000D02*
X74485000Y-62750000D01*
X67000000Y-59000000D02*
X70000000Y-59000000D01*
%TO.N,Net-(U1-EN{slash}CHIP_PU)*%
X42000000Y-56000000D02*
X46500000Y-60500000D01*
X44500000Y-56000000D02*
X44500000Y-58500000D01*
X44500000Y-58500000D02*
X46500000Y-60500000D01*
%TO.N,+3.3V*%
X47000000Y-56000000D02*
X47000000Y-55660000D01*
%TO.N,Net-(U1-EN{slash}CHIP_PU)*%
X40500000Y-52000000D02*
X43000000Y-52000000D01*
X43000000Y-52000000D02*
X44500000Y-53500000D01*
X44500000Y-53500000D02*
X44500000Y-56000000D01*
D33*
%TO.N,+3.3V*%
X58500000Y-52350000D02*
X62000000Y-52350000D01*
X62000000Y-52350000D02*
X67650000Y-52350000D01*
D34*
X58150000Y-52000000D02*
X58500000Y-52350000D01*
D32*
%TO.N,Net-(U1-EN{slash}CHIP_PU)*%
X46500000Y-60500000D02*
X46500000Y-67000000D01*
%TO.N,Net-(J3-Pin_2)*%
X36135000Y-86975000D02*
X36135000Y-90055000D01*
X36135000Y-90055000D02*
X40580000Y-94500000D01*
%TO.N,Net-(J3-Pin_1)*%
X34865000Y-86975000D02*
X34865000Y-93865000D01*
X34865000Y-93865000D02*
X35500000Y-94500000D01*
%TO.N,Net-(J2-Pin_2)*%
X48135000Y-86975000D02*
X48135000Y-90055000D01*
X48135000Y-90055000D02*
X52580000Y-94500000D01*
%TO.N,Net-(J2-Pin_1)*%
X46865000Y-86975000D02*
X46865000Y-93865000D01*
X46865000Y-93865000D02*
X47500000Y-94500000D01*
D33*
%TO.N,Net-(D2-K)*%
X48000000Y-46000000D02*
X51500000Y-42500000D01*
X51500000Y-42500000D02*
X58350000Y-42500000D01*
%TO.N,+3.3V*%
X67650000Y-52350000D02*
X69000000Y-51000000D01*
D34*
X69000000Y-51000000D02*
X72700000Y-47300000D01*
X72700000Y-47300000D02*
X72700000Y-42650000D01*
%TO.N,Net-(D2-K)*%
X58500000Y-42650000D02*
X61650000Y-42650000D01*
X61650000Y-42650000D02*
X66000000Y-47000000D01*
X66000000Y-47000000D02*
X67500000Y-47000000D01*
X67500000Y-47000000D02*
X69300000Y-45200000D01*
X69300000Y-45200000D02*
X69300000Y-42650000D01*
%TO.N,Net-(D1-+)*%
X67600000Y-42650000D02*
X67600000Y-41600000D01*
X67600000Y-41600000D02*
X63580000Y-37580000D01*
X63580000Y-37580000D02*
X58000000Y-37580000D01*
D33*
%TO.N,GND*%
X51620000Y-32500000D02*
X57920000Y-32500000D01*
X57920000Y-32500000D02*
X58000000Y-32580000D01*
%TO.N,Net-(D1-+)*%
X51620000Y-37580000D02*
X58000000Y-37580000D01*
%TO.N,Net-(J4-Pin_2)*%
X37000000Y-37580000D02*
X44000000Y-37580000D01*
%TO.N,Net-(J4-Pin_1)*%
X37000000Y-32500000D02*
X44000000Y-32500000D01*
%TD*%
%TA.AperFunction,Conductor*%
%TO.N,GND*%
G36*
X60239403Y-22520185D02*
G01*
X60285158Y-22572989D01*
X60295102Y-22642147D01*
X60266077Y-22705703D01*
X60207299Y-22743477D01*
X60199020Y-22745601D01*
X60102330Y-22766883D01*
X59836178Y-22856560D01*
X59758031Y-22882892D01*
X59758028Y-22882893D01*
X59758020Y-22882896D01*
X59428300Y-23035440D01*
X59428296Y-23035442D01*
X59196453Y-23174937D01*
X59116981Y-23222755D01*
X59027332Y-23290903D01*
X58827755Y-23442617D01*
X58827745Y-23442625D01*
X58563978Y-23692479D01*
X58328772Y-23969386D01*
X58124884Y-24270098D01*
X58124878Y-24270107D01*
X57954706Y-24591086D01*
X57954700Y-24591098D01*
X57820226Y-24928603D01*
X57820221Y-24928618D01*
X57723030Y-25278670D01*
X57723024Y-25278696D01*
X57664250Y-25637200D01*
X57664248Y-25637217D01*
X57644579Y-25999997D01*
X57644579Y-26000002D01*
X57664248Y-26362782D01*
X57664250Y-26362799D01*
X57723024Y-26721303D01*
X57723030Y-26721329D01*
X57820221Y-27071381D01*
X57820226Y-27071396D01*
X57954700Y-27408901D01*
X57954706Y-27408913D01*
X58124878Y-27729892D01*
X58124884Y-27729901D01*
X58328772Y-28030613D01*
X58557591Y-28300000D01*
X58563979Y-28307521D01*
X58827746Y-28557375D01*
X59116981Y-28777245D01*
X59428292Y-28964555D01*
X59428294Y-28964556D01*
X59428296Y-28964557D01*
X59428300Y-28964559D01*
X59758020Y-29117103D01*
X59758031Y-29117108D01*
X60102330Y-29233116D01*
X60457153Y-29311218D01*
X60818341Y-29350500D01*
X60818347Y-29350500D01*
X61181653Y-29350500D01*
X61181659Y-29350500D01*
X61542847Y-29311218D01*
X61897670Y-29233116D01*
X62241969Y-29117108D01*
X62495062Y-29000015D01*
X65100000Y-29000015D01*
X65100000Y-30825000D01*
X67975000Y-30825000D01*
X68475000Y-30825000D01*
X70750000Y-30825000D01*
X71250000Y-30825000D01*
X73525000Y-30825000D01*
X73525000Y-28300000D01*
X71250000Y-28300000D01*
X71250000Y-30825000D01*
X70750000Y-30825000D01*
X70750000Y-28300000D01*
X68475000Y-28300000D01*
X68475000Y-30825000D01*
X67975000Y-30825000D01*
X67975000Y-28300000D01*
X65800028Y-28300000D01*
X65800012Y-28300001D01*
X65697302Y-28310494D01*
X65530880Y-28365641D01*
X65530875Y-28365643D01*
X65381654Y-28457684D01*
X65257684Y-28581654D01*
X65165643Y-28730875D01*
X65165641Y-28730880D01*
X65110494Y-28897301D01*
X65110023Y-28900221D01*
X65109852Y-28903589D01*
X65100000Y-29000015D01*
X62495062Y-29000015D01*
X62571708Y-28964555D01*
X62883019Y-28777245D01*
X63172254Y-28557375D01*
X63436021Y-28307521D01*
X63671227Y-28030614D01*
X63875117Y-27729900D01*
X64045298Y-27408905D01*
X64179775Y-27071391D01*
X64276973Y-26721316D01*
X64335751Y-26362785D01*
X64355421Y-26000000D01*
X64335751Y-25637215D01*
X64276973Y-25278684D01*
X64259097Y-25214303D01*
X64179778Y-24928618D01*
X64179773Y-24928603D01*
X64045299Y-24591098D01*
X64045298Y-24591095D01*
X63875117Y-24270100D01*
X63671227Y-23969386D01*
X63436021Y-23692479D01*
X63172254Y-23442625D01*
X63172244Y-23442617D01*
X63103635Y-23390462D01*
X62883019Y-23222755D01*
X62571708Y-23035445D01*
X62571707Y-23035444D01*
X62571703Y-23035442D01*
X62571699Y-23035440D01*
X62241979Y-22882896D01*
X62241974Y-22882894D01*
X62241969Y-22882892D01*
X62074143Y-22826344D01*
X61897669Y-22766883D01*
X61800980Y-22745601D01*
X61739739Y-22711965D01*
X61706405Y-22650560D01*
X61711561Y-22580881D01*
X61753570Y-22525050D01*
X61819094Y-22500795D01*
X61827636Y-22500500D01*
X76375500Y-22500500D01*
X76442539Y-22520185D01*
X76488294Y-22572989D01*
X76499500Y-22624500D01*
X76499500Y-28203988D01*
X76479815Y-28271027D01*
X76427011Y-28316782D01*
X76357853Y-28326726D01*
X76336498Y-28321694D01*
X76302704Y-28310496D01*
X76302690Y-28310493D01*
X76199986Y-28300000D01*
X74025000Y-28300000D01*
X74025000Y-38699999D01*
X76199972Y-38699999D01*
X76199986Y-38699998D01*
X76302697Y-38689505D01*
X76336496Y-38678306D01*
X76406324Y-38675904D01*
X76466366Y-38711636D01*
X76497559Y-38774156D01*
X76499500Y-38796012D01*
X76499500Y-58631519D01*
X76479815Y-58698558D01*
X76427011Y-58744313D01*
X76357853Y-58754257D01*
X76294297Y-58725232D01*
X76256523Y-58666454D01*
X76255725Y-58663613D01*
X76226268Y-58553679D01*
X76226264Y-58553668D01*
X76130136Y-58347521D01*
X76130132Y-58347513D01*
X76079025Y-58274526D01*
X75400000Y-58953551D01*
X75400000Y-58947339D01*
X75372741Y-58845606D01*
X75320080Y-58754394D01*
X75245606Y-58679920D01*
X75154394Y-58627259D01*
X75052661Y-58600000D01*
X75046445Y-58600000D01*
X75725472Y-57920974D01*
X75652478Y-57869863D01*
X75446331Y-57773735D01*
X75446317Y-57773730D01*
X75226610Y-57714860D01*
X75226599Y-57714858D01*
X75000002Y-57695034D01*
X74999998Y-57695034D01*
X74773400Y-57714858D01*
X74773389Y-57714860D01*
X74553682Y-57773730D01*
X74553673Y-57773734D01*
X74347516Y-57869866D01*
X74347512Y-57869868D01*
X74274526Y-57920973D01*
X74274526Y-57920974D01*
X74953553Y-58600000D01*
X74947339Y-58600000D01*
X74845606Y-58627259D01*
X74754394Y-58679920D01*
X74679920Y-58754394D01*
X74627259Y-58845606D01*
X74600000Y-58947339D01*
X74600000Y-58953553D01*
X73920974Y-58274526D01*
X73920973Y-58274526D01*
X73869868Y-58347512D01*
X73869866Y-58347516D01*
X73773734Y-58553673D01*
X73773730Y-58553682D01*
X73714860Y-58773389D01*
X73714858Y-58773400D01*
X73700359Y-58939131D01*
X73674907Y-59004200D01*
X73618316Y-59045179D01*
X73548554Y-59049057D01*
X73489150Y-59016005D01*
X72793102Y-58319957D01*
X72793098Y-58319954D01*
X72649711Y-58224145D01*
X72649698Y-58224138D01*
X72490378Y-58158146D01*
X72490366Y-58158143D01*
X72321232Y-58124500D01*
X72321229Y-58124500D01*
X71015048Y-58124500D01*
X70948009Y-58104815D01*
X70927371Y-58088185D01*
X70839139Y-57999953D01*
X70839138Y-57999952D01*
X70839137Y-57999951D01*
X70652734Y-57869432D01*
X70652732Y-57869431D01*
X70446497Y-57773261D01*
X70446488Y-57773258D01*
X70226697Y-57714366D01*
X70226693Y-57714365D01*
X70226692Y-57714365D01*
X70226691Y-57714364D01*
X70226686Y-57714364D01*
X70000002Y-57694532D01*
X69999998Y-57694532D01*
X69773313Y-57714364D01*
X69773302Y-57714366D01*
X69553511Y-57773258D01*
X69553502Y-57773261D01*
X69347267Y-57869431D01*
X69347265Y-57869432D01*
X69160862Y-57999951D01*
X69116748Y-58044066D01*
X69072631Y-58088182D01*
X69011311Y-58121666D01*
X68984952Y-58124500D01*
X68015048Y-58124500D01*
X67948009Y-58104815D01*
X67927371Y-58088185D01*
X67839139Y-57999953D01*
X67839138Y-57999952D01*
X67839137Y-57999951D01*
X67652734Y-57869432D01*
X67652732Y-57869431D01*
X67446497Y-57773261D01*
X67446488Y-57773258D01*
X67226697Y-57714366D01*
X67226693Y-57714365D01*
X67226692Y-57714365D01*
X67226691Y-57714364D01*
X67226686Y-57714364D01*
X67000002Y-57694532D01*
X66999998Y-57694532D01*
X66773313Y-57714364D01*
X66773302Y-57714366D01*
X66553511Y-57773258D01*
X66553502Y-57773261D01*
X66347267Y-57869431D01*
X66347265Y-57869432D01*
X66160858Y-57999954D01*
X65999954Y-58160858D01*
X65869432Y-58347265D01*
X65869429Y-58347270D01*
X65862104Y-58362979D01*
X65815929Y-58415417D01*
X65748735Y-58434566D01*
X65681855Y-58414347D01*
X65637341Y-58362973D01*
X65630133Y-58347515D01*
X65630132Y-58347513D01*
X65579025Y-58274526D01*
X64900000Y-58953551D01*
X64900000Y-58947339D01*
X64872741Y-58845606D01*
X64820080Y-58754394D01*
X64745606Y-58679920D01*
X64654394Y-58627259D01*
X64552661Y-58600000D01*
X64546445Y-58600000D01*
X65225472Y-57920974D01*
X65152478Y-57869863D01*
X64946331Y-57773735D01*
X64946317Y-57773730D01*
X64726610Y-57714860D01*
X64726599Y-57714858D01*
X64500002Y-57695034D01*
X64499998Y-57695034D01*
X64273400Y-57714858D01*
X64273389Y-57714860D01*
X64053682Y-57773730D01*
X64053673Y-57773734D01*
X63847516Y-57869866D01*
X63847512Y-57869868D01*
X63774526Y-57920973D01*
X63774526Y-57920974D01*
X64453553Y-58600000D01*
X64447339Y-58600000D01*
X64345606Y-58627259D01*
X64254394Y-58679920D01*
X64179920Y-58754394D01*
X64127259Y-58845606D01*
X64100000Y-58947339D01*
X64100000Y-58953552D01*
X63420974Y-58274526D01*
X63420973Y-58274526D01*
X63369868Y-58347512D01*
X63369866Y-58347516D01*
X63273734Y-58553673D01*
X63273730Y-58553682D01*
X63214860Y-58773389D01*
X63214858Y-58773400D01*
X63195034Y-58999997D01*
X63195034Y-59000000D01*
X63214858Y-59226599D01*
X63214860Y-59226610D01*
X63273730Y-59446317D01*
X63273733Y-59446325D01*
X63274556Y-59448089D01*
X63274685Y-59448940D01*
X63275583Y-59451406D01*
X63275087Y-59451586D01*
X63285052Y-59517166D01*
X63256536Y-59580951D01*
X63198061Y-59619194D01*
X63162177Y-59624500D01*
X47787144Y-59624500D01*
X47720105Y-59604815D01*
X47691735Y-59578898D01*
X47691637Y-59578989D01*
X47690593Y-59577855D01*
X47689298Y-59576672D01*
X47688168Y-59575221D01*
X47688167Y-59575220D01*
X47688164Y-59575215D01*
X47519744Y-59392262D01*
X47323509Y-59239526D01*
X47323507Y-59239525D01*
X47323506Y-59239524D01*
X47104811Y-59121172D01*
X47104802Y-59121169D01*
X46869616Y-59040429D01*
X46624335Y-58999500D01*
X46375665Y-58999500D01*
X46320337Y-59008732D01*
X46250972Y-59000350D01*
X46212248Y-58974104D01*
X45411819Y-58173675D01*
X45378334Y-58112352D01*
X45375500Y-58085994D01*
X45375500Y-57015048D01*
X45395185Y-56948009D01*
X45411814Y-56927371D01*
X45500047Y-56839139D01*
X45630568Y-56652734D01*
X45637618Y-56637614D01*
X45683789Y-56585176D01*
X45750982Y-56566023D01*
X45817864Y-56586238D01*
X45862381Y-56637614D01*
X45869432Y-56652733D01*
X45869432Y-56652734D01*
X45999954Y-56839141D01*
X46160858Y-57000045D01*
X46160861Y-57000047D01*
X46347266Y-57130568D01*
X46553504Y-57226739D01*
X46773308Y-57285635D01*
X46935230Y-57299801D01*
X46999998Y-57305468D01*
X47000000Y-57305468D01*
X47000002Y-57305468D01*
X47056673Y-57300509D01*
X47226692Y-57285635D01*
X47446496Y-57226739D01*
X47652734Y-57130568D01*
X47839139Y-57000047D01*
X48000047Y-56839139D01*
X48130568Y-56652734D01*
X48226739Y-56446496D01*
X48285635Y-56226692D01*
X48305468Y-56000000D01*
X48285635Y-55773308D01*
X48226739Y-55553504D01*
X48130568Y-55347266D01*
X48000047Y-55160861D01*
X48000045Y-55160858D01*
X47839141Y-54999954D01*
X47652734Y-54869432D01*
X47652732Y-54869431D01*
X47446497Y-54773261D01*
X47446488Y-54773258D01*
X47226697Y-54714366D01*
X47226693Y-54714365D01*
X47226692Y-54714365D01*
X47226691Y-54714364D01*
X47226686Y-54714364D01*
X47000002Y-54694532D01*
X46999998Y-54694532D01*
X46773313Y-54714364D01*
X46773302Y-54714366D01*
X46553511Y-54773258D01*
X46553502Y-54773261D01*
X46347267Y-54869431D01*
X46347265Y-54869432D01*
X46160858Y-54999954D01*
X45999954Y-55160858D01*
X45869433Y-55347264D01*
X45869432Y-55347266D01*
X45862380Y-55362387D01*
X45816209Y-55414825D01*
X45749015Y-55433976D01*
X45682134Y-55413760D01*
X45637619Y-55362387D01*
X45630568Y-55347266D01*
X45500047Y-55160861D01*
X45500045Y-55160858D01*
X45411819Y-55072632D01*
X45378334Y-55011309D01*
X45375500Y-54984951D01*
X45375500Y-53413768D01*
X45375499Y-53413766D01*
X45350012Y-53285635D01*
X45341855Y-53244626D01*
X45294611Y-53130568D01*
X45275861Y-53085301D01*
X45275854Y-53085288D01*
X45180046Y-52941902D01*
X45133329Y-52895185D01*
X45058099Y-52819955D01*
X44351945Y-52113801D01*
X44238142Y-51999998D01*
X49354532Y-51999998D01*
X49354532Y-52000001D01*
X49374364Y-52226686D01*
X49374366Y-52226697D01*
X49433258Y-52446488D01*
X49433261Y-52446497D01*
X49529431Y-52652732D01*
X49529432Y-52652734D01*
X49659954Y-52839141D01*
X49820858Y-53000045D01*
X49820861Y-53000047D01*
X50007266Y-53130568D01*
X50213504Y-53226739D01*
X50433308Y-53285635D01*
X50595230Y-53299801D01*
X50659998Y-53305468D01*
X50660000Y-53305468D01*
X50660002Y-53305468D01*
X50716673Y-53300509D01*
X50886692Y-53285635D01*
X51106496Y-53226739D01*
X51312734Y-53130568D01*
X51499139Y-53000047D01*
X51660047Y-52839139D01*
X51790568Y-52652734D01*
X51886739Y-52446496D01*
X51945635Y-52226692D01*
X51965468Y-52000000D01*
X51945635Y-51773308D01*
X51886739Y-51553504D01*
X51790568Y-51347266D01*
X51660047Y-51160861D01*
X51660045Y-51160858D01*
X51499141Y-50999954D01*
X51312734Y-50869432D01*
X51312732Y-50869431D01*
X51275641Y-50852135D01*
X55299500Y-50852135D01*
X55299500Y-53847870D01*
X55299501Y-53847876D01*
X55305908Y-53907483D01*
X55356202Y-54042328D01*
X55356206Y-54042335D01*
X55442452Y-54157544D01*
X55442455Y-54157547D01*
X55557664Y-54243793D01*
X55557671Y-54243797D01*
X55692517Y-54294091D01*
X55692516Y-54294091D01*
X55699444Y-54294835D01*
X55752127Y-54300500D01*
X58033701Y-54300499D01*
X58065794Y-54304724D01*
X58071765Y-54306323D01*
X58108884Y-54316270D01*
X58368880Y-54350500D01*
X58368887Y-54350500D01*
X67781113Y-54350500D01*
X67781120Y-54350500D01*
X67911118Y-54333385D01*
X68041116Y-54316271D01*
X68294419Y-54248398D01*
X68536697Y-54148043D01*
X68692485Y-54058099D01*
X68763803Y-54016924D01*
X68897018Y-53914704D01*
X68971851Y-53857283D01*
X70507283Y-52321851D01*
X70666923Y-52113802D01*
X70798043Y-51886697D01*
X70898398Y-51644419D01*
X70966271Y-51391116D01*
X71000499Y-51131120D01*
X71000499Y-50999994D01*
X72494859Y-50999994D01*
X72494859Y-51000005D01*
X72515385Y-51247729D01*
X72515387Y-51247738D01*
X72576412Y-51488717D01*
X72676267Y-51716367D01*
X72776562Y-51869881D01*
X73517037Y-51129408D01*
X73534075Y-51192993D01*
X73599901Y-51307007D01*
X73692993Y-51400099D01*
X73807007Y-51465925D01*
X73870591Y-51482962D01*
X73129943Y-52223609D01*
X73176768Y-52260055D01*
X73176771Y-52260057D01*
X73395385Y-52378364D01*
X73395396Y-52378369D01*
X73630506Y-52459083D01*
X73875707Y-52500000D01*
X74124293Y-52500000D01*
X74369493Y-52459083D01*
X74604603Y-52378369D01*
X74604614Y-52378364D01*
X74823230Y-52260056D01*
X74823236Y-52260051D01*
X74870055Y-52223610D01*
X74870056Y-52223609D01*
X74129408Y-51482962D01*
X74192993Y-51465925D01*
X74307007Y-51400099D01*
X74400099Y-51307007D01*
X74465925Y-51192993D01*
X74482962Y-51129408D01*
X75223435Y-51869882D01*
X75323733Y-51716364D01*
X75423587Y-51488717D01*
X75484612Y-51247738D01*
X75484614Y-51247729D01*
X75505141Y-51000005D01*
X75505141Y-50999994D01*
X75484614Y-50752270D01*
X75484612Y-50752261D01*
X75423587Y-50511282D01*
X75323732Y-50283632D01*
X75223435Y-50130116D01*
X74482962Y-50870590D01*
X74465925Y-50807007D01*
X74400099Y-50692993D01*
X74307007Y-50599901D01*
X74192993Y-50534075D01*
X74129409Y-50517037D01*
X74870055Y-49776389D01*
X74870055Y-49776388D01*
X74823236Y-49739947D01*
X74823231Y-49739944D01*
X74604614Y-49621635D01*
X74604603Y-49621630D01*
X74369493Y-49540916D01*
X74124293Y-49500000D01*
X73875707Y-49500000D01*
X73630506Y-49540916D01*
X73395396Y-49621630D01*
X73395385Y-49621635D01*
X73176770Y-49739943D01*
X73129943Y-49776389D01*
X73870591Y-50517037D01*
X73807007Y-50534075D01*
X73692993Y-50599901D01*
X73599901Y-50692993D01*
X73534075Y-50807007D01*
X73517037Y-50870591D01*
X72776563Y-50130117D01*
X72676267Y-50283633D01*
X72676265Y-50283637D01*
X72576412Y-50511282D01*
X72515387Y-50752261D01*
X72515385Y-50752270D01*
X72494859Y-50999994D01*
X71000499Y-50999994D01*
X71000499Y-50868881D01*
X70998294Y-50852135D01*
X70977546Y-50694532D01*
X70966271Y-50608885D01*
X70950937Y-50551660D01*
X70952600Y-50481813D01*
X70983029Y-50431889D01*
X73337778Y-48077141D01*
X73337782Y-48077139D01*
X73477139Y-47937782D01*
X73586632Y-47773914D01*
X73592482Y-47759792D01*
X73634833Y-47657546D01*
X73662051Y-47591835D01*
X73698721Y-47407486D01*
X73700500Y-47398543D01*
X73700500Y-45529443D01*
X73720185Y-45462404D01*
X73772989Y-45416649D01*
X73842147Y-45406705D01*
X73863504Y-45411737D01*
X73947302Y-45439505D01*
X73947309Y-45439506D01*
X74050019Y-45449999D01*
X74650000Y-45449999D01*
X74749972Y-45449999D01*
X74749986Y-45449998D01*
X74852697Y-45439505D01*
X75019119Y-45384358D01*
X75019124Y-45384356D01*
X75168345Y-45292315D01*
X75292315Y-45168345D01*
X75384356Y-45019124D01*
X75384358Y-45019119D01*
X75439505Y-44852697D01*
X75439506Y-44852690D01*
X75449999Y-44749986D01*
X75450000Y-44749973D01*
X75450000Y-42900000D01*
X74650000Y-42900000D01*
X74650000Y-45449999D01*
X74050019Y-45449999D01*
X74150000Y-45449998D01*
X74150000Y-42400000D01*
X74650000Y-42400000D01*
X75449999Y-42400000D01*
X75449999Y-40550028D01*
X75449998Y-40550013D01*
X75439505Y-40447302D01*
X75384358Y-40280880D01*
X75384356Y-40280875D01*
X75292315Y-40131654D01*
X75168345Y-40007684D01*
X75019124Y-39915643D01*
X75019119Y-39915641D01*
X74852697Y-39860494D01*
X74852690Y-39860493D01*
X74749986Y-39850000D01*
X74650000Y-39850000D01*
X74650000Y-42400000D01*
X74150000Y-42400000D01*
X74150000Y-39849999D01*
X74050028Y-39850000D01*
X74050012Y-39850001D01*
X73947302Y-39860494D01*
X73780880Y-39915641D01*
X73780875Y-39915643D01*
X73631649Y-40007687D01*
X73627305Y-40011122D01*
X73562507Y-40037255D01*
X73493866Y-40024207D01*
X73473497Y-40011116D01*
X73468660Y-40007292D01*
X73468656Y-40007288D01*
X73319334Y-39915186D01*
X73152797Y-39860001D01*
X73152795Y-39860000D01*
X73050010Y-39849500D01*
X72349998Y-39849500D01*
X72349980Y-39849501D01*
X72247203Y-39860000D01*
X72247200Y-39860001D01*
X72080668Y-39915185D01*
X72080663Y-39915187D01*
X71976157Y-39979646D01*
X71931344Y-40007288D01*
X71931343Y-40007288D01*
X71931330Y-40007297D01*
X71926487Y-40011126D01*
X71861687Y-40037256D01*
X71793047Y-40024204D01*
X71772683Y-40011114D01*
X71768346Y-40007684D01*
X71619124Y-39915643D01*
X71619119Y-39915641D01*
X71452697Y-39860494D01*
X71452690Y-39860493D01*
X71349986Y-39850000D01*
X71250000Y-39850000D01*
X71250000Y-45449999D01*
X71349972Y-45449999D01*
X71349986Y-45449998D01*
X71452695Y-45439506D01*
X71536495Y-45411737D01*
X71606324Y-45409335D01*
X71666366Y-45445066D01*
X71697559Y-45507587D01*
X71699500Y-45529443D01*
X71699500Y-46834217D01*
X71679815Y-46901256D01*
X71663181Y-46921898D01*
X69568111Y-49016967D01*
X69506788Y-49050452D01*
X69448338Y-49049061D01*
X69391115Y-49033729D01*
X69131120Y-48999501D01*
X69131119Y-48999501D01*
X68868880Y-48999501D01*
X68868879Y-48999501D01*
X68608887Y-49033728D01*
X68355580Y-49101602D01*
X68113306Y-49201955D01*
X68113302Y-49201957D01*
X67886198Y-49333077D01*
X67886188Y-49333083D01*
X67678150Y-49492715D01*
X67678143Y-49492721D01*
X66857685Y-50313181D01*
X66796362Y-50346666D01*
X66770004Y-50349500D01*
X58368872Y-50349500D01*
X58137772Y-50379926D01*
X58108884Y-50383730D01*
X58108882Y-50383730D01*
X58108873Y-50383732D01*
X58065795Y-50395275D01*
X58033702Y-50399500D01*
X55752129Y-50399500D01*
X55752123Y-50399501D01*
X55692516Y-50405908D01*
X55557671Y-50456202D01*
X55557664Y-50456206D01*
X55442455Y-50542452D01*
X55442452Y-50542455D01*
X55356206Y-50657664D01*
X55356202Y-50657671D01*
X55305908Y-50792517D01*
X55299501Y-50852116D01*
X55299500Y-50852135D01*
X51275641Y-50852135D01*
X51106497Y-50773261D01*
X51106488Y-50773258D01*
X50886697Y-50714366D01*
X50886693Y-50714365D01*
X50886692Y-50714365D01*
X50886691Y-50714364D01*
X50886686Y-50714364D01*
X50660002Y-50694532D01*
X50659998Y-50694532D01*
X50433313Y-50714364D01*
X50433302Y-50714366D01*
X50213511Y-50773258D01*
X50213502Y-50773261D01*
X50007267Y-50869431D01*
X50007265Y-50869432D01*
X49820858Y-50999954D01*
X49659954Y-51160858D01*
X49529432Y-51347265D01*
X49529431Y-51347267D01*
X49433261Y-51553502D01*
X49433258Y-51553511D01*
X49374366Y-51773302D01*
X49374364Y-51773313D01*
X49354532Y-51999998D01*
X44238142Y-51999998D01*
X43558102Y-51319957D01*
X43558098Y-51319954D01*
X43414711Y-51224145D01*
X43414698Y-51224138D01*
X43255378Y-51158146D01*
X43255366Y-51158143D01*
X43086232Y-51124500D01*
X43086229Y-51124500D01*
X41515048Y-51124500D01*
X41448009Y-51104815D01*
X41427371Y-51088185D01*
X41339139Y-50999953D01*
X41339138Y-50999952D01*
X41339137Y-50999951D01*
X41152734Y-50869432D01*
X41152732Y-50869431D01*
X40946497Y-50773261D01*
X40946488Y-50773258D01*
X40726697Y-50714366D01*
X40726693Y-50714365D01*
X40726692Y-50714365D01*
X40726691Y-50714364D01*
X40726686Y-50714364D01*
X40500002Y-50694532D01*
X40499998Y-50694532D01*
X40273313Y-50714364D01*
X40273302Y-50714366D01*
X40053511Y-50773258D01*
X40053502Y-50773261D01*
X39847267Y-50869431D01*
X39847265Y-50869432D01*
X39660858Y-50999954D01*
X39499954Y-51160858D01*
X39369432Y-51347265D01*
X39369431Y-51347267D01*
X39273261Y-51553502D01*
X39273258Y-51553511D01*
X39214366Y-51773302D01*
X39214364Y-51773313D01*
X39194532Y-51999998D01*
X39194532Y-52000001D01*
X39214364Y-52226686D01*
X39214366Y-52226697D01*
X39273258Y-52446488D01*
X39273261Y-52446497D01*
X39369431Y-52652732D01*
X39369432Y-52652734D01*
X39499954Y-52839141D01*
X39660858Y-53000045D01*
X39660861Y-53000047D01*
X39847266Y-53130568D01*
X40053504Y-53226739D01*
X40273308Y-53285635D01*
X40435230Y-53299801D01*
X40499998Y-53305468D01*
X40500000Y-53305468D01*
X40500002Y-53305468D01*
X40556673Y-53300509D01*
X40726692Y-53285635D01*
X40946496Y-53226739D01*
X41152734Y-53130568D01*
X41339139Y-53000047D01*
X41427368Y-52911817D01*
X41488689Y-52878334D01*
X41515048Y-52875500D01*
X42585994Y-52875500D01*
X42653033Y-52895185D01*
X42673675Y-52911819D01*
X43588181Y-53826325D01*
X43621666Y-53887648D01*
X43624500Y-53914006D01*
X43624500Y-54984951D01*
X43604815Y-55051990D01*
X43588181Y-55072632D01*
X43499954Y-55160858D01*
X43369433Y-55347264D01*
X43369432Y-55347266D01*
X43362380Y-55362387D01*
X43316209Y-55414825D01*
X43249015Y-55433976D01*
X43182134Y-55413760D01*
X43137619Y-55362387D01*
X43130568Y-55347266D01*
X43000047Y-55160861D01*
X43000045Y-55160858D01*
X42839141Y-54999954D01*
X42652734Y-54869432D01*
X42652732Y-54869431D01*
X42446497Y-54773261D01*
X42446488Y-54773258D01*
X42226697Y-54714366D01*
X42226693Y-54714365D01*
X42226692Y-54714365D01*
X42226691Y-54714364D01*
X42226686Y-54714364D01*
X42000002Y-54694532D01*
X41999998Y-54694532D01*
X41773313Y-54714364D01*
X41773302Y-54714366D01*
X41553511Y-54773258D01*
X41553502Y-54773261D01*
X41347267Y-54869431D01*
X41347265Y-54869432D01*
X41160858Y-54999954D01*
X40999954Y-55160858D01*
X40869432Y-55347265D01*
X40869429Y-55347270D01*
X40862104Y-55362979D01*
X40815929Y-55415417D01*
X40748735Y-55434566D01*
X40681855Y-55414347D01*
X40637341Y-55362973D01*
X40630133Y-55347515D01*
X40630132Y-55347513D01*
X40579025Y-55274526D01*
X39900000Y-55953551D01*
X39900000Y-55947339D01*
X39872741Y-55845606D01*
X39820080Y-55754394D01*
X39745606Y-55679920D01*
X39654394Y-55627259D01*
X39552661Y-55600000D01*
X39546445Y-55600000D01*
X40225472Y-54920974D01*
X40152478Y-54869863D01*
X39946331Y-54773735D01*
X39946317Y-54773730D01*
X39726610Y-54714860D01*
X39726599Y-54714858D01*
X39500002Y-54695034D01*
X39499998Y-54695034D01*
X39273400Y-54714858D01*
X39273389Y-54714860D01*
X39053682Y-54773730D01*
X39053673Y-54773734D01*
X38847516Y-54869866D01*
X38847512Y-54869868D01*
X38774526Y-54920973D01*
X38774526Y-54920974D01*
X39453553Y-55600000D01*
X39447339Y-55600000D01*
X39345606Y-55627259D01*
X39254394Y-55679920D01*
X39179920Y-55754394D01*
X39127259Y-55845606D01*
X39100000Y-55947339D01*
X39100000Y-55953552D01*
X38420974Y-55274526D01*
X38420973Y-55274526D01*
X38369868Y-55347512D01*
X38369866Y-55347516D01*
X38273734Y-55553673D01*
X38273730Y-55553682D01*
X38214860Y-55773389D01*
X38214858Y-55773400D01*
X38195034Y-55999997D01*
X38195034Y-56000002D01*
X38214858Y-56226599D01*
X38214860Y-56226610D01*
X38273730Y-56446317D01*
X38273735Y-56446331D01*
X38369863Y-56652478D01*
X38420974Y-56725472D01*
X39100000Y-56046446D01*
X39100000Y-56052661D01*
X39127259Y-56154394D01*
X39179920Y-56245606D01*
X39254394Y-56320080D01*
X39345606Y-56372741D01*
X39447339Y-56400000D01*
X39453553Y-56400000D01*
X38774526Y-57079025D01*
X38847513Y-57130132D01*
X38847521Y-57130136D01*
X39053668Y-57226264D01*
X39053682Y-57226269D01*
X39273389Y-57285139D01*
X39273400Y-57285141D01*
X39499998Y-57304966D01*
X39500002Y-57304966D01*
X39726599Y-57285141D01*
X39726610Y-57285139D01*
X39946317Y-57226269D01*
X39946331Y-57226264D01*
X40152478Y-57130136D01*
X40225471Y-57079024D01*
X39546447Y-56400000D01*
X39552661Y-56400000D01*
X39654394Y-56372741D01*
X39745606Y-56320080D01*
X39820080Y-56245606D01*
X39872741Y-56154394D01*
X39900000Y-56052661D01*
X39900000Y-56046447D01*
X40579024Y-56725471D01*
X40630134Y-56652481D01*
X40637340Y-56637028D01*
X40683511Y-56584587D01*
X40750704Y-56565433D01*
X40817585Y-56585646D01*
X40862105Y-56637022D01*
X40869430Y-56652730D01*
X40869432Y-56652734D01*
X40999954Y-56839141D01*
X41160858Y-57000045D01*
X41160861Y-57000047D01*
X41347266Y-57130568D01*
X41553504Y-57226739D01*
X41773308Y-57285635D01*
X42000000Y-57305468D01*
X42004301Y-57305091D01*
X42072800Y-57318854D01*
X42102794Y-57340938D01*
X44974184Y-60212328D01*
X45007669Y-60273651D01*
X45010079Y-60310247D01*
X44994358Y-60499994D01*
X44994357Y-60500004D01*
X44994357Y-60500005D01*
X45014890Y-60747812D01*
X45014892Y-60747824D01*
X45075936Y-60988881D01*
X45175826Y-61216606D01*
X45311833Y-61424782D01*
X45311836Y-61424785D01*
X45480256Y-61607738D01*
X45576663Y-61682774D01*
X45617475Y-61739484D01*
X45624500Y-61780627D01*
X45624500Y-65719372D01*
X45604815Y-65786411D01*
X45576663Y-65817225D01*
X45480258Y-65892260D01*
X45311833Y-66075217D01*
X45175826Y-66283393D01*
X45075936Y-66511118D01*
X45014892Y-66752175D01*
X45014890Y-66752187D01*
X44994357Y-66999994D01*
X44994357Y-67000005D01*
X45014890Y-67247812D01*
X45014892Y-67247824D01*
X45075936Y-67488881D01*
X45175826Y-67716606D01*
X45311833Y-67924782D01*
X45311836Y-67924785D01*
X45480256Y-68107738D01*
X45676491Y-68260474D01*
X45676493Y-68260475D01*
X45894332Y-68378364D01*
X45895190Y-68378828D01*
X46082754Y-68443219D01*
X46128964Y-68459083D01*
X46130386Y-68459571D01*
X46375665Y-68500500D01*
X46624335Y-68500500D01*
X46869614Y-68459571D01*
X47104810Y-68378828D01*
X47323509Y-68260474D01*
X47519744Y-68107738D01*
X47688164Y-67924785D01*
X47824173Y-67716607D01*
X47924063Y-67488881D01*
X47985108Y-67247821D01*
X48005643Y-67000000D01*
X48000547Y-66938504D01*
X47985109Y-66752187D01*
X47985107Y-66752175D01*
X47924063Y-66511118D01*
X47824173Y-66283393D01*
X47688166Y-66075217D01*
X47667860Y-66053159D01*
X47519744Y-65892262D01*
X47423337Y-65817225D01*
X47382524Y-65760515D01*
X47375500Y-65719372D01*
X47375500Y-61780627D01*
X47395185Y-61713588D01*
X47423337Y-61682774D01*
X47519744Y-61607738D01*
X47688164Y-61424785D01*
X47688171Y-61424773D01*
X47689298Y-61423328D01*
X47689908Y-61422888D01*
X47691637Y-61421011D01*
X47692023Y-61421366D01*
X47746012Y-61382521D01*
X47787144Y-61375500D01*
X52071502Y-61375500D01*
X52138541Y-61395185D01*
X52184296Y-61447989D01*
X52194240Y-61517147D01*
X52165215Y-61580703D01*
X52145816Y-61598764D01*
X52087454Y-61642454D01*
X52087453Y-61642455D01*
X52087452Y-61642456D01*
X52001206Y-61757664D01*
X52001202Y-61757671D01*
X51950908Y-61892517D01*
X51944501Y-61952116D01*
X51944500Y-61952135D01*
X51944500Y-63547870D01*
X51944501Y-63547876D01*
X51950908Y-63607483D01*
X52001202Y-63742328D01*
X52001206Y-63742335D01*
X52087452Y-63857544D01*
X52087455Y-63857547D01*
X52202664Y-63943793D01*
X52202671Y-63943797D01*
X52337517Y-63994091D01*
X52337516Y-63994091D01*
X52344444Y-63994835D01*
X52397127Y-64000500D01*
X53392872Y-64000499D01*
X53452483Y-63994091D01*
X53486667Y-63981340D01*
X53556358Y-63976357D01*
X53573327Y-63981338D01*
X53607517Y-63994091D01*
X53667127Y-64000500D01*
X54662872Y-64000499D01*
X54722483Y-63994091D01*
X54756667Y-63981340D01*
X54826358Y-63976357D01*
X54843327Y-63981338D01*
X54877517Y-63994091D01*
X54937127Y-64000500D01*
X55932872Y-64000499D01*
X55992483Y-63994091D01*
X56026667Y-63981340D01*
X56096358Y-63976357D01*
X56113327Y-63981338D01*
X56147517Y-63994091D01*
X56207127Y-64000500D01*
X57202872Y-64000499D01*
X57262483Y-63994091D01*
X57297381Y-63981074D01*
X57367069Y-63976089D01*
X57384050Y-63981075D01*
X57417623Y-63993598D01*
X57477155Y-63999999D01*
X57477172Y-64000000D01*
X57725000Y-64000000D01*
X58225000Y-64000000D01*
X58472828Y-64000000D01*
X58472844Y-63999999D01*
X58532372Y-63993598D01*
X58532375Y-63993597D01*
X58566665Y-63980808D01*
X58636356Y-63975822D01*
X58653335Y-63980808D01*
X58687624Y-63993597D01*
X58687627Y-63993598D01*
X58747155Y-63999999D01*
X58747172Y-64000000D01*
X58995000Y-64000000D01*
X58995000Y-63000000D01*
X58225000Y-63000000D01*
X58225000Y-64000000D01*
X57725000Y-64000000D01*
X57725000Y-62874000D01*
X57744685Y-62806961D01*
X57797489Y-62761206D01*
X57849000Y-62750000D01*
X57975000Y-62750000D01*
X57975000Y-62624000D01*
X57994685Y-62556961D01*
X58047489Y-62511206D01*
X58099000Y-62500000D01*
X59121000Y-62500000D01*
X59188039Y-62519685D01*
X59233794Y-62572489D01*
X59245000Y-62624000D01*
X59245000Y-62750000D01*
X59371000Y-62750000D01*
X59438039Y-62769685D01*
X59483794Y-62822489D01*
X59495000Y-62874000D01*
X59495000Y-64000000D01*
X59742828Y-64000000D01*
X59742844Y-63999999D01*
X59802372Y-63993598D01*
X59802375Y-63993597D01*
X59835949Y-63981075D01*
X59905640Y-63976089D01*
X59922619Y-63981075D01*
X59957511Y-63994089D01*
X59957512Y-63994089D01*
X59957517Y-63994091D01*
X60017127Y-64000500D01*
X61012872Y-64000499D01*
X61072483Y-63994091D01*
X61106667Y-63981340D01*
X61176358Y-63976357D01*
X61193327Y-63981338D01*
X61227517Y-63994091D01*
X61287127Y-64000500D01*
X62282872Y-64000499D01*
X62342483Y-63994091D01*
X62376667Y-63981340D01*
X62446358Y-63976357D01*
X62463327Y-63981338D01*
X62497517Y-63994091D01*
X62557127Y-64000500D01*
X63552872Y-64000499D01*
X63612483Y-63994091D01*
X63646667Y-63981340D01*
X63716358Y-63976357D01*
X63733327Y-63981338D01*
X63761462Y-63991832D01*
X63767511Y-63994089D01*
X63767517Y-63994091D01*
X63827127Y-64000500D01*
X63886993Y-64000499D01*
X63954031Y-64020183D01*
X63999787Y-64072986D01*
X64009731Y-64142144D01*
X63980707Y-64205700D01*
X63974674Y-64212180D01*
X55098675Y-73088181D01*
X55037352Y-73121666D01*
X55010994Y-73124500D01*
X52413768Y-73124500D01*
X52244633Y-73158143D01*
X52244621Y-73158146D01*
X52085301Y-73224138D01*
X52085288Y-73224145D01*
X51941901Y-73319954D01*
X51941897Y-73319957D01*
X51819957Y-73441897D01*
X51819954Y-73441901D01*
X51724145Y-73585288D01*
X51724138Y-73585301D01*
X51658146Y-73744621D01*
X51658143Y-73744633D01*
X51624500Y-73913766D01*
X51624500Y-74086233D01*
X51658143Y-74255366D01*
X51658146Y-74255378D01*
X51724138Y-74414698D01*
X51724145Y-74414711D01*
X51819954Y-74558098D01*
X51819957Y-74558102D01*
X51941897Y-74680042D01*
X51941901Y-74680045D01*
X52085288Y-74775854D01*
X52085301Y-74775861D01*
X52244621Y-74841853D01*
X52244626Y-74841855D01*
X52413766Y-74875499D01*
X52413769Y-74875500D01*
X52413771Y-74875500D01*
X54701994Y-74875500D01*
X54769033Y-74895185D01*
X54814788Y-74947989D01*
X54824732Y-75017147D01*
X54795707Y-75080703D01*
X54789675Y-75087181D01*
X54076175Y-75800681D01*
X54014852Y-75834166D01*
X53988494Y-75837000D01*
X45701268Y-75837000D01*
X45532133Y-75870643D01*
X45532121Y-75870646D01*
X45372801Y-75936638D01*
X45372788Y-75936645D01*
X45229401Y-76032454D01*
X45229397Y-76032457D01*
X42173675Y-79088181D01*
X42112352Y-79121666D01*
X42085994Y-79124500D01*
X37913768Y-79124500D01*
X37744633Y-79158143D01*
X37744621Y-79158146D01*
X37585301Y-79224138D01*
X37585288Y-79224145D01*
X37441901Y-79319954D01*
X37441897Y-79319957D01*
X36846901Y-79914955D01*
X36800531Y-79961325D01*
X36724953Y-80036902D01*
X36629145Y-80180288D01*
X36629138Y-80180301D01*
X36563146Y-80339621D01*
X36563143Y-80339631D01*
X36539917Y-80456395D01*
X36507532Y-80518306D01*
X36446816Y-80552880D01*
X36394163Y-80551544D01*
X36393799Y-80553540D01*
X36387567Y-80552401D01*
X36350701Y-80549500D01*
X36350694Y-80549500D01*
X35919306Y-80549500D01*
X35919298Y-80549500D01*
X35876114Y-80552899D01*
X35875922Y-80550469D01*
X35817267Y-80544277D01*
X35762779Y-80500540D01*
X35740588Y-80434288D01*
X35740500Y-80429625D01*
X35740500Y-80049006D01*
X35760185Y-79981967D01*
X35776819Y-79961325D01*
X36680042Y-79058102D01*
X36680045Y-79058099D01*
X36775858Y-78914705D01*
X36782978Y-78897517D01*
X36841853Y-78755378D01*
X36841855Y-78755374D01*
X36875500Y-78586229D01*
X36875500Y-78413771D01*
X36875500Y-78413768D01*
X36875499Y-78413766D01*
X36874509Y-78408790D01*
X36841855Y-78244627D01*
X36837087Y-78233116D01*
X36775859Y-78085297D01*
X36775857Y-78085293D01*
X36680048Y-77941905D01*
X36680042Y-77941897D01*
X36558102Y-77819957D01*
X36558094Y-77819951D01*
X36414706Y-77724142D01*
X36414702Y-77724140D01*
X36255377Y-77658146D01*
X36255365Y-77658143D01*
X36086232Y-77624500D01*
X36086229Y-77624500D01*
X35913771Y-77624500D01*
X35913768Y-77624500D01*
X35744633Y-77658143D01*
X35744621Y-77658146D01*
X35585301Y-77724138D01*
X35585288Y-77724145D01*
X35441901Y-77819954D01*
X35441897Y-77819957D01*
X34524588Y-78737268D01*
X34306901Y-78954955D01*
X34266208Y-78995648D01*
X34184953Y-79076902D01*
X34089145Y-79220288D01*
X34089138Y-79220301D01*
X34023146Y-79379621D01*
X34023143Y-79379633D01*
X33989500Y-79548766D01*
X33989500Y-80429625D01*
X33969815Y-80496664D01*
X33917011Y-80542419D01*
X33853997Y-80551479D01*
X33853886Y-80552899D01*
X33810701Y-80549500D01*
X33810694Y-80549500D01*
X33379306Y-80549500D01*
X33379298Y-80549500D01*
X33342432Y-80552401D01*
X33342426Y-80552402D01*
X33184606Y-80598254D01*
X33184603Y-80598255D01*
X33043137Y-80681917D01*
X33043129Y-80681923D01*
X32926923Y-80798129D01*
X32926917Y-80798137D01*
X32843255Y-80939603D01*
X32843254Y-80939606D01*
X32797402Y-81097426D01*
X32797401Y-81097432D01*
X32794500Y-81134298D01*
X32794500Y-82915701D01*
X32797401Y-82952567D01*
X32797402Y-82952573D01*
X32843254Y-83110393D01*
X32843255Y-83110396D01*
X32843256Y-83110398D01*
X32880681Y-83173681D01*
X32926917Y-83251862D01*
X32926923Y-83251870D01*
X33043129Y-83368076D01*
X33043133Y-83368079D01*
X33043135Y-83368081D01*
X33184602Y-83451744D01*
X33200497Y-83456362D01*
X33342426Y-83497597D01*
X33342429Y-83497597D01*
X33342431Y-83497598D01*
X33379306Y-83500500D01*
X33379314Y-83500500D01*
X33810686Y-83500500D01*
X33810694Y-83500500D01*
X33847569Y-83497598D01*
X33847571Y-83497597D01*
X33847573Y-83497597D01*
X33903911Y-83481229D01*
X34005398Y-83451744D01*
X34146865Y-83368081D01*
X34146870Y-83368075D01*
X34153031Y-83363298D01*
X34154933Y-83365750D01*
X34203579Y-83339155D01*
X34273274Y-83344104D01*
X34305695Y-83364940D01*
X34306969Y-83363298D01*
X34313132Y-83368078D01*
X34313135Y-83368081D01*
X34454602Y-83451744D01*
X34470497Y-83456362D01*
X34612426Y-83497597D01*
X34612429Y-83497597D01*
X34612431Y-83497598D01*
X34649306Y-83500500D01*
X34649314Y-83500500D01*
X35080686Y-83500500D01*
X35080694Y-83500500D01*
X35117569Y-83497598D01*
X35124982Y-83495444D01*
X35194849Y-83495639D01*
X35253522Y-83533577D01*
X35281200Y-83590326D01*
X35293143Y-83650368D01*
X35293146Y-83650378D01*
X35359138Y-83809698D01*
X35359145Y-83809711D01*
X35454954Y-83953098D01*
X35454957Y-83953102D01*
X36584955Y-85083099D01*
X36654334Y-85152478D01*
X36706902Y-85205046D01*
X36850288Y-85300854D01*
X36850301Y-85300861D01*
X36951905Y-85342946D01*
X37006309Y-85386786D01*
X37028374Y-85453080D01*
X37011095Y-85520780D01*
X36967575Y-85564239D01*
X36853135Y-85631919D01*
X36846969Y-85636702D01*
X36845072Y-85634256D01*
X36796358Y-85660857D01*
X36726666Y-85655873D01*
X36694296Y-85635069D01*
X36693031Y-85636702D01*
X36686862Y-85631917D01*
X36572424Y-85564239D01*
X36545398Y-85548256D01*
X36545397Y-85548255D01*
X36545396Y-85548255D01*
X36545393Y-85548254D01*
X36387573Y-85502402D01*
X36387567Y-85502401D01*
X36350701Y-85499500D01*
X36350694Y-85499500D01*
X35919306Y-85499500D01*
X35919298Y-85499500D01*
X35882432Y-85502401D01*
X35882426Y-85502402D01*
X35724606Y-85548254D01*
X35724603Y-85548255D01*
X35583137Y-85631917D01*
X35576969Y-85636702D01*
X35575072Y-85634256D01*
X35526358Y-85660857D01*
X35456666Y-85655873D01*
X35424296Y-85635069D01*
X35423031Y-85636702D01*
X35416862Y-85631917D01*
X35302424Y-85564239D01*
X35275398Y-85548256D01*
X35275397Y-85548255D01*
X35275396Y-85548255D01*
X35275393Y-85548254D01*
X35117573Y-85502402D01*
X35117567Y-85502401D01*
X35080701Y-85499500D01*
X35080694Y-85499500D01*
X34649306Y-85499500D01*
X34649298Y-85499500D01*
X34612432Y-85502401D01*
X34612426Y-85502402D01*
X34454606Y-85548254D01*
X34454603Y-85548255D01*
X34313140Y-85631915D01*
X34306974Y-85636699D01*
X34305174Y-85634379D01*
X34255913Y-85661230D01*
X34186225Y-85656193D01*
X34153992Y-85635461D01*
X34152722Y-85637100D01*
X34146552Y-85632314D01*
X34005196Y-85548717D01*
X34005193Y-85548716D01*
X33847494Y-85502900D01*
X33847497Y-85502900D01*
X33845000Y-85502703D01*
X33845000Y-88447295D01*
X33845001Y-88447295D01*
X33853809Y-88446603D01*
X33853998Y-88449016D01*
X33912700Y-88455197D01*
X33967200Y-88498918D01*
X33989411Y-88565163D01*
X33989500Y-88569862D01*
X33989500Y-92670305D01*
X33969815Y-92737344D01*
X33939812Y-92769571D01*
X33842452Y-92842455D01*
X33756206Y-92957664D01*
X33756202Y-92957671D01*
X33705908Y-93092517D01*
X33699501Y-93152116D01*
X33699501Y-93152123D01*
X33699500Y-93152135D01*
X33699500Y-95847870D01*
X33699501Y-95847876D01*
X33705908Y-95907483D01*
X33756202Y-96042328D01*
X33756206Y-96042335D01*
X33842452Y-96157544D01*
X33842455Y-96157547D01*
X33957664Y-96243793D01*
X33957671Y-96243797D01*
X34092517Y-96294091D01*
X34092516Y-96294091D01*
X34099444Y-96294835D01*
X34152127Y-96300500D01*
X36847872Y-96300499D01*
X36907483Y-96294091D01*
X37042331Y-96243796D01*
X37157546Y-96157546D01*
X37243796Y-96042331D01*
X37294091Y-95907483D01*
X37300500Y-95847873D01*
X37300499Y-93152128D01*
X37294091Y-93092517D01*
X37292542Y-93088365D01*
X37243797Y-92957671D01*
X37243793Y-92957664D01*
X37157547Y-92842455D01*
X37157544Y-92842452D01*
X37042335Y-92756206D01*
X37042328Y-92756202D01*
X36907482Y-92705908D01*
X36907483Y-92705908D01*
X36847883Y-92699501D01*
X36847881Y-92699500D01*
X36847873Y-92699500D01*
X36847865Y-92699500D01*
X35864500Y-92699500D01*
X35797461Y-92679815D01*
X35751706Y-92627011D01*
X35740500Y-92575500D01*
X35740500Y-91198006D01*
X35760185Y-91130967D01*
X35812989Y-91085212D01*
X35882147Y-91075268D01*
X35945703Y-91104293D01*
X35952181Y-91110325D01*
X38797842Y-93955986D01*
X38831327Y-94017309D01*
X38831052Y-94071259D01*
X38794616Y-94230896D01*
X38794616Y-94230898D01*
X38774451Y-94499995D01*
X38774451Y-94500004D01*
X38794616Y-94769101D01*
X38854664Y-95032188D01*
X38854666Y-95032195D01*
X38953256Y-95283396D01*
X38953258Y-95283400D01*
X38955748Y-95287712D01*
X39088185Y-95517102D01*
X39224080Y-95687509D01*
X39256442Y-95728089D01*
X39443183Y-95901358D01*
X39454259Y-95911635D01*
X39677226Y-96063651D01*
X39920359Y-96180738D01*
X40178228Y-96260280D01*
X40178229Y-96260280D01*
X40178232Y-96260281D01*
X40445063Y-96300499D01*
X40445068Y-96300499D01*
X40445071Y-96300500D01*
X40445072Y-96300500D01*
X40714928Y-96300500D01*
X40714929Y-96300500D01*
X40714936Y-96300499D01*
X40981767Y-96260281D01*
X40981768Y-96260280D01*
X40981772Y-96260280D01*
X41239641Y-96180738D01*
X41482775Y-96063651D01*
X41705741Y-95911635D01*
X41903561Y-95728085D01*
X42071815Y-95517102D01*
X42206743Y-95283398D01*
X42305334Y-95032195D01*
X42365383Y-94769103D01*
X42372105Y-94679402D01*
X42385549Y-94500004D01*
X42385549Y-94499995D01*
X42365383Y-94230898D01*
X42365383Y-94230896D01*
X42305334Y-93967805D01*
X42206743Y-93716602D01*
X42071815Y-93482898D01*
X41903561Y-93271915D01*
X41903560Y-93271914D01*
X41903557Y-93271910D01*
X41705741Y-93088365D01*
X41596198Y-93013680D01*
X41482775Y-92936349D01*
X41482771Y-92936347D01*
X41482768Y-92936345D01*
X41482767Y-92936344D01*
X41239643Y-92819263D01*
X41239645Y-92819263D01*
X40981773Y-92739720D01*
X40981767Y-92739718D01*
X40714936Y-92699500D01*
X40714929Y-92699500D01*
X40445071Y-92699500D01*
X40445063Y-92699500D01*
X40178230Y-92739719D01*
X40178227Y-92739719D01*
X40157632Y-92746072D01*
X40087769Y-92747020D01*
X40033405Y-92715261D01*
X37046819Y-89728675D01*
X37013334Y-89667352D01*
X37010500Y-89640994D01*
X37010500Y-88570374D01*
X37030185Y-88503335D01*
X37082989Y-88457580D01*
X37146002Y-88448519D01*
X37146114Y-88447101D01*
X37157785Y-88448019D01*
X37189306Y-88450500D01*
X37189314Y-88450500D01*
X37620686Y-88450500D01*
X37620694Y-88450500D01*
X37657569Y-88447598D01*
X37657571Y-88447597D01*
X37657573Y-88447597D01*
X37699191Y-88435505D01*
X37815398Y-88401744D01*
X37956865Y-88318081D01*
X38073081Y-88201865D01*
X38156744Y-88060398D01*
X38170586Y-88012753D01*
X38184488Y-87964905D01*
X38222094Y-87906019D01*
X38285567Y-87876813D01*
X38303564Y-87875500D01*
X38484952Y-87875500D01*
X38551991Y-87895185D01*
X38572628Y-87911814D01*
X38625719Y-87964905D01*
X38660862Y-88000048D01*
X38696498Y-88025000D01*
X38847266Y-88130568D01*
X39053504Y-88226739D01*
X39273308Y-88285635D01*
X39435230Y-88299801D01*
X39499998Y-88305468D01*
X39500000Y-88305468D01*
X39500002Y-88305468D01*
X39556673Y-88300509D01*
X39726692Y-88285635D01*
X39946496Y-88226739D01*
X40152734Y-88130568D01*
X40339139Y-88000047D01*
X40500047Y-87839139D01*
X40630568Y-87652734D01*
X40637893Y-87637024D01*
X40684064Y-87584586D01*
X40751257Y-87565433D01*
X40818138Y-87585648D01*
X40862657Y-87637024D01*
X40869864Y-87652480D01*
X40920974Y-87725472D01*
X41600000Y-87046446D01*
X41600000Y-87052661D01*
X41627259Y-87154394D01*
X41679920Y-87245606D01*
X41754394Y-87320080D01*
X41845606Y-87372741D01*
X41947339Y-87400000D01*
X41953553Y-87400000D01*
X41274526Y-88079025D01*
X41347513Y-88130132D01*
X41347521Y-88130136D01*
X41553668Y-88226264D01*
X41553682Y-88226269D01*
X41773389Y-88285139D01*
X41773400Y-88285141D01*
X41999998Y-88304966D01*
X42000002Y-88304966D01*
X42226599Y-88285141D01*
X42226610Y-88285139D01*
X42446317Y-88226269D01*
X42446331Y-88226264D01*
X42652478Y-88130136D01*
X42725471Y-88079024D01*
X42512096Y-87865649D01*
X44795000Y-87865649D01*
X44797899Y-87902489D01*
X44797900Y-87902495D01*
X44843716Y-88060193D01*
X44843717Y-88060196D01*
X44927314Y-88201552D01*
X44927321Y-88201561D01*
X45043438Y-88317678D01*
X45043447Y-88317685D01*
X45184801Y-88401281D01*
X45342514Y-88447100D01*
X45342511Y-88447100D01*
X45344998Y-88447295D01*
X45345000Y-88447295D01*
X45345000Y-87225000D01*
X44795000Y-87225000D01*
X44795000Y-87865649D01*
X42512096Y-87865649D01*
X42046447Y-87400000D01*
X42052661Y-87400000D01*
X42154394Y-87372741D01*
X42245606Y-87320080D01*
X42320080Y-87245606D01*
X42372741Y-87154394D01*
X42400000Y-87052661D01*
X42400000Y-87046447D01*
X43079024Y-87725471D01*
X43130136Y-87652478D01*
X43226264Y-87446331D01*
X43226269Y-87446317D01*
X43285139Y-87226610D01*
X43285141Y-87226599D01*
X43304966Y-87000002D01*
X43304966Y-86999997D01*
X43285141Y-86773400D01*
X43285139Y-86773389D01*
X43226269Y-86553682D01*
X43226264Y-86553668D01*
X43130136Y-86347521D01*
X43130132Y-86347513D01*
X43079025Y-86274526D01*
X42400000Y-86953551D01*
X42400000Y-86947339D01*
X42372741Y-86845606D01*
X42320080Y-86754394D01*
X42245606Y-86679920D01*
X42154394Y-86627259D01*
X42052661Y-86600000D01*
X42046445Y-86600000D01*
X42725472Y-85920974D01*
X42652478Y-85869863D01*
X42446331Y-85773735D01*
X42446317Y-85773730D01*
X42226610Y-85714860D01*
X42226599Y-85714858D01*
X42000002Y-85695034D01*
X41999998Y-85695034D01*
X41773400Y-85714858D01*
X41773389Y-85714860D01*
X41553682Y-85773730D01*
X41553673Y-85773734D01*
X41347516Y-85869866D01*
X41347512Y-85869868D01*
X41274526Y-85920973D01*
X41274526Y-85920974D01*
X41953553Y-86600000D01*
X41947339Y-86600000D01*
X41845606Y-86627259D01*
X41754394Y-86679920D01*
X41679920Y-86754394D01*
X41627259Y-86845606D01*
X41600000Y-86947339D01*
X41600000Y-86953552D01*
X40920974Y-86274526D01*
X40920973Y-86274526D01*
X40869868Y-86347512D01*
X40869867Y-86347514D01*
X40862656Y-86362979D01*
X40816482Y-86415417D01*
X40749288Y-86434567D01*
X40682407Y-86414350D01*
X40637893Y-86362976D01*
X40630568Y-86347266D01*
X40500047Y-86160861D01*
X40500045Y-86160858D01*
X40339141Y-85999954D01*
X40152734Y-85869432D01*
X40152732Y-85869431D01*
X39946497Y-85773261D01*
X39946488Y-85773258D01*
X39726697Y-85714366D01*
X39726693Y-85714365D01*
X39726692Y-85714365D01*
X39726691Y-85714364D01*
X39726686Y-85714364D01*
X39500002Y-85694532D01*
X39499998Y-85694532D01*
X39273313Y-85714364D01*
X39273302Y-85714366D01*
X39053511Y-85773258D01*
X39053502Y-85773261D01*
X38847267Y-85869431D01*
X38847265Y-85869432D01*
X38660862Y-85999951D01*
X38625719Y-86035095D01*
X38572631Y-86088182D01*
X38511311Y-86121666D01*
X38484952Y-86124500D01*
X38318090Y-86124500D01*
X38251051Y-86104815D01*
X38205296Y-86052011D01*
X38199014Y-86035095D01*
X38156744Y-85889602D01*
X38073081Y-85748135D01*
X38073079Y-85748133D01*
X38073076Y-85748129D01*
X37956870Y-85631923D01*
X37956862Y-85631917D01*
X37955702Y-85631231D01*
X37954978Y-85630456D01*
X37950702Y-85627139D01*
X37951237Y-85626448D01*
X37908020Y-85580161D01*
X37895517Y-85511419D01*
X37922164Y-85446830D01*
X37979500Y-85406901D01*
X38018825Y-85400500D01*
X44982157Y-85400500D01*
X45049196Y-85420185D01*
X45094951Y-85472989D01*
X45104895Y-85542147D01*
X45075870Y-85605703D01*
X45045279Y-85631231D01*
X45043449Y-85632312D01*
X45043438Y-85632321D01*
X44927321Y-85748438D01*
X44927314Y-85748447D01*
X44843717Y-85889803D01*
X44843716Y-85889806D01*
X44797900Y-86047504D01*
X44797899Y-86047510D01*
X44795000Y-86084350D01*
X44795000Y-86725000D01*
X45471000Y-86725000D01*
X45538039Y-86744685D01*
X45583794Y-86797489D01*
X45595000Y-86849000D01*
X45595000Y-86975000D01*
X45721000Y-86975000D01*
X45788039Y-86994685D01*
X45833794Y-87047489D01*
X45845000Y-87099000D01*
X45845000Y-88447295D01*
X45845001Y-88447295D01*
X45853809Y-88446603D01*
X45853998Y-88449016D01*
X45912700Y-88455197D01*
X45967200Y-88498918D01*
X45989411Y-88565163D01*
X45989500Y-88569862D01*
X45989500Y-92670305D01*
X45969815Y-92737344D01*
X45939812Y-92769571D01*
X45842452Y-92842455D01*
X45756206Y-92957664D01*
X45756202Y-92957671D01*
X45705908Y-93092517D01*
X45699501Y-93152116D01*
X45699501Y-93152123D01*
X45699500Y-93152135D01*
X45699500Y-95847870D01*
X45699501Y-95847876D01*
X45705908Y-95907483D01*
X45756202Y-96042328D01*
X45756206Y-96042335D01*
X45842452Y-96157544D01*
X45842455Y-96157547D01*
X45957664Y-96243793D01*
X45957671Y-96243797D01*
X46092517Y-96294091D01*
X46092516Y-96294091D01*
X46099444Y-96294835D01*
X46152127Y-96300500D01*
X48847872Y-96300499D01*
X48907483Y-96294091D01*
X49042331Y-96243796D01*
X49157546Y-96157546D01*
X49243796Y-96042331D01*
X49294091Y-95907483D01*
X49300500Y-95847873D01*
X49300499Y-93152128D01*
X49294091Y-93092517D01*
X49292542Y-93088365D01*
X49243797Y-92957671D01*
X49243793Y-92957664D01*
X49157547Y-92842455D01*
X49157544Y-92842452D01*
X49042335Y-92756206D01*
X49042328Y-92756202D01*
X48907482Y-92705908D01*
X48907483Y-92705908D01*
X48847883Y-92699501D01*
X48847881Y-92699500D01*
X48847873Y-92699500D01*
X48847865Y-92699500D01*
X47864500Y-92699500D01*
X47797461Y-92679815D01*
X47751706Y-92627011D01*
X47740500Y-92575500D01*
X47740500Y-91198006D01*
X47760185Y-91130967D01*
X47812989Y-91085212D01*
X47882147Y-91075268D01*
X47945703Y-91104293D01*
X47952181Y-91110325D01*
X50797842Y-93955986D01*
X50831327Y-94017309D01*
X50831052Y-94071259D01*
X50794616Y-94230896D01*
X50794616Y-94230898D01*
X50774451Y-94499995D01*
X50774451Y-94500004D01*
X50794616Y-94769101D01*
X50854664Y-95032188D01*
X50854666Y-95032195D01*
X50953256Y-95283396D01*
X50953258Y-95283400D01*
X50955748Y-95287712D01*
X51088185Y-95517102D01*
X51224080Y-95687509D01*
X51256442Y-95728089D01*
X51443183Y-95901358D01*
X51454259Y-95911635D01*
X51677226Y-96063651D01*
X51920359Y-96180738D01*
X52178228Y-96260280D01*
X52178229Y-96260280D01*
X52178232Y-96260281D01*
X52445063Y-96300499D01*
X52445068Y-96300499D01*
X52445071Y-96300500D01*
X52445072Y-96300500D01*
X52714928Y-96300500D01*
X52714929Y-96300500D01*
X52714936Y-96300499D01*
X52981767Y-96260281D01*
X52981768Y-96260280D01*
X52981772Y-96260280D01*
X53239641Y-96180738D01*
X53482775Y-96063651D01*
X53705741Y-95911635D01*
X53903561Y-95728085D01*
X54071815Y-95517102D01*
X54206743Y-95283398D01*
X54305334Y-95032195D01*
X54365383Y-94769103D01*
X54372105Y-94679402D01*
X54385549Y-94500004D01*
X54385549Y-94499995D01*
X54365383Y-94230898D01*
X54365383Y-94230896D01*
X54305334Y-93967805D01*
X54206743Y-93716602D01*
X54071815Y-93482898D01*
X53903561Y-93271915D01*
X53903560Y-93271914D01*
X53903557Y-93271910D01*
X53705741Y-93088365D01*
X53596198Y-93013680D01*
X53482775Y-92936349D01*
X53482771Y-92936347D01*
X53482768Y-92936345D01*
X53482767Y-92936344D01*
X53239643Y-92819263D01*
X53239645Y-92819263D01*
X52981773Y-92739720D01*
X52981767Y-92739718D01*
X52714936Y-92699500D01*
X52714929Y-92699500D01*
X52445071Y-92699500D01*
X52445063Y-92699500D01*
X52178230Y-92739719D01*
X52178227Y-92739719D01*
X52157632Y-92746072D01*
X52087769Y-92747020D01*
X52033405Y-92715261D01*
X49046819Y-89728675D01*
X49013334Y-89667352D01*
X49010500Y-89640994D01*
X49010500Y-88714983D01*
X56099500Y-88714983D01*
X56099500Y-89665001D01*
X56099501Y-89665019D01*
X56110000Y-89767796D01*
X56110001Y-89767799D01*
X56165185Y-89934331D01*
X56165186Y-89934334D01*
X56257288Y-90083656D01*
X56381344Y-90207712D01*
X56530666Y-90299814D01*
X56658864Y-90342294D01*
X56716307Y-90382065D01*
X56743130Y-90446581D01*
X56730815Y-90515357D01*
X56683272Y-90566557D01*
X56658863Y-90577705D01*
X56530666Y-90620186D01*
X56530663Y-90620187D01*
X56381342Y-90712289D01*
X56257289Y-90836342D01*
X56165187Y-90985663D01*
X56165186Y-90985666D01*
X56110001Y-91152203D01*
X56110001Y-91152204D01*
X56110000Y-91152204D01*
X56099500Y-91254983D01*
X56099500Y-92205001D01*
X56099501Y-92205019D01*
X56110000Y-92307796D01*
X56110001Y-92307799D01*
X56143883Y-92410046D01*
X56165186Y-92474334D01*
X56257288Y-92623656D01*
X56381344Y-92747712D01*
X56530666Y-92839814D01*
X56658864Y-92882294D01*
X56716307Y-92922065D01*
X56743130Y-92986581D01*
X56730815Y-93055357D01*
X56683272Y-93106557D01*
X56658863Y-93117705D01*
X56530666Y-93160186D01*
X56530663Y-93160187D01*
X56381342Y-93252289D01*
X56257289Y-93376342D01*
X56165187Y-93525663D01*
X56165185Y-93525668D01*
X56165115Y-93525880D01*
X56110001Y-93692203D01*
X56110001Y-93692204D01*
X56110000Y-93692204D01*
X56099500Y-93794983D01*
X56099500Y-94745001D01*
X56099501Y-94745019D01*
X56110000Y-94847796D01*
X56110001Y-94847799D01*
X56165115Y-95014119D01*
X56165186Y-95014334D01*
X56257288Y-95163656D01*
X56381344Y-95287712D01*
X56530666Y-95379814D01*
X56658864Y-95422294D01*
X56716307Y-95462065D01*
X56743130Y-95526581D01*
X56730815Y-95595357D01*
X56683272Y-95646557D01*
X56658863Y-95657705D01*
X56530666Y-95700186D01*
X56530663Y-95700187D01*
X56381342Y-95792289D01*
X56257289Y-95916342D01*
X56165187Y-96065663D01*
X56165186Y-96065666D01*
X56110001Y-96232203D01*
X56110001Y-96232204D01*
X56110000Y-96232204D01*
X56099500Y-96334983D01*
X56099500Y-97285001D01*
X56099501Y-97285019D01*
X56110000Y-97387796D01*
X56110001Y-97387799D01*
X56165185Y-97554331D01*
X56165186Y-97554334D01*
X56257288Y-97703656D01*
X56381344Y-97827712D01*
X56530666Y-97919814D01*
X56697203Y-97974999D01*
X56799991Y-97985500D01*
X58800008Y-97985499D01*
X58902797Y-97974999D01*
X59069334Y-97919814D01*
X59218656Y-97827712D01*
X59342712Y-97703656D01*
X59434814Y-97554334D01*
X59489999Y-97387797D01*
X59500500Y-97285009D01*
X59500499Y-96334992D01*
X59500498Y-96334983D01*
X72499500Y-96334983D01*
X72499500Y-97285001D01*
X72499501Y-97285019D01*
X72510000Y-97387796D01*
X72510001Y-97387799D01*
X72565185Y-97554331D01*
X72565186Y-97554334D01*
X72657288Y-97703656D01*
X72781344Y-97827712D01*
X72930666Y-97919814D01*
X73097203Y-97974999D01*
X73199991Y-97985500D01*
X75200008Y-97985499D01*
X75302797Y-97974999D01*
X75469334Y-97919814D01*
X75618656Y-97827712D01*
X75742712Y-97703656D01*
X75834814Y-97554334D01*
X75889999Y-97387797D01*
X75900500Y-97285009D01*
X75900499Y-96334992D01*
X75896975Y-96300498D01*
X75889999Y-96232203D01*
X75889998Y-96232200D01*
X75865259Y-96157544D01*
X75834814Y-96065666D01*
X75742712Y-95916344D01*
X75618656Y-95792288D01*
X75469334Y-95700186D01*
X75340341Y-95657442D01*
X75282898Y-95617670D01*
X75256075Y-95553155D01*
X75268390Y-95484379D01*
X75315933Y-95433179D01*
X75340343Y-95422031D01*
X75469119Y-95379358D01*
X75469124Y-95379356D01*
X75618345Y-95287315D01*
X75742315Y-95163345D01*
X75834356Y-95014124D01*
X75834358Y-95014119D01*
X75889505Y-94847697D01*
X75889506Y-94847690D01*
X75899999Y-94744986D01*
X75900000Y-94744973D01*
X75900000Y-94520000D01*
X72500001Y-94520000D01*
X72500001Y-94744986D01*
X72510494Y-94847697D01*
X72565641Y-95014119D01*
X72565643Y-95014124D01*
X72657684Y-95163345D01*
X72781654Y-95287315D01*
X72930875Y-95379356D01*
X72930880Y-95379358D01*
X73059656Y-95422030D01*
X73117101Y-95461802D01*
X73143924Y-95526318D01*
X73131609Y-95595094D01*
X73084066Y-95646294D01*
X73059657Y-95657442D01*
X72930666Y-95700186D01*
X72930663Y-95700187D01*
X72781342Y-95792289D01*
X72657289Y-95916342D01*
X72565187Y-96065663D01*
X72565186Y-96065666D01*
X72510001Y-96232203D01*
X72510001Y-96232204D01*
X72510000Y-96232204D01*
X72499500Y-96334983D01*
X59500498Y-96334983D01*
X59496975Y-96300498D01*
X59489999Y-96232203D01*
X59489998Y-96232200D01*
X59465259Y-96157544D01*
X59434814Y-96065666D01*
X59342712Y-95916344D01*
X59218656Y-95792288D01*
X59069334Y-95700186D01*
X58941136Y-95657705D01*
X58883692Y-95617933D01*
X58856869Y-95553417D01*
X58869184Y-95484642D01*
X58916727Y-95433442D01*
X58941134Y-95422295D01*
X59069334Y-95379814D01*
X59218656Y-95287712D01*
X59342712Y-95163656D01*
X59434814Y-95014334D01*
X59489999Y-94847797D01*
X59500500Y-94745009D01*
X59500499Y-93794992D01*
X59492491Y-93716603D01*
X59489999Y-93692203D01*
X59489998Y-93692200D01*
X59434814Y-93525666D01*
X59342712Y-93376344D01*
X59218656Y-93252288D01*
X59070075Y-93160643D01*
X59069336Y-93160187D01*
X59069331Y-93160185D01*
X59045038Y-93152135D01*
X58941136Y-93117705D01*
X58883692Y-93077933D01*
X58856869Y-93013417D01*
X58869184Y-92944642D01*
X58916727Y-92893442D01*
X58941134Y-92882295D01*
X59069334Y-92839814D01*
X59218656Y-92747712D01*
X59342712Y-92623656D01*
X59401654Y-92528094D01*
X59438297Y-92490093D01*
X59558099Y-92410045D01*
X60680045Y-91288099D01*
X60757686Y-91171901D01*
X60775858Y-91144705D01*
X60841855Y-90985374D01*
X60875500Y-90816229D01*
X60875500Y-85515048D01*
X60895185Y-85448009D01*
X60911814Y-85427371D01*
X61000047Y-85339139D01*
X61130568Y-85152734D01*
X61137893Y-85137024D01*
X61184064Y-85084586D01*
X61251257Y-85065433D01*
X61318138Y-85085648D01*
X61362657Y-85137024D01*
X61369864Y-85152480D01*
X61420974Y-85225472D01*
X62100000Y-84546446D01*
X62100000Y-84552661D01*
X62127259Y-84654394D01*
X62179920Y-84745606D01*
X62254394Y-84820080D01*
X62345606Y-84872741D01*
X62447339Y-84900000D01*
X62453553Y-84900000D01*
X61774526Y-85579025D01*
X61847513Y-85630132D01*
X61847521Y-85630136D01*
X62053668Y-85726264D01*
X62053682Y-85726269D01*
X62273389Y-85785139D01*
X62273400Y-85785141D01*
X62499998Y-85804966D01*
X62500002Y-85804966D01*
X62726599Y-85785141D01*
X62726610Y-85785139D01*
X62946317Y-85726269D01*
X62946331Y-85726264D01*
X63152478Y-85630136D01*
X63225471Y-85579024D01*
X62546447Y-84900000D01*
X62552661Y-84900000D01*
X62654394Y-84872741D01*
X62745606Y-84820080D01*
X62820080Y-84745606D01*
X62872741Y-84654394D01*
X62900000Y-84552661D01*
X62900000Y-84546447D01*
X63579024Y-85225471D01*
X63630136Y-85152478D01*
X63726264Y-84946331D01*
X63726269Y-84946317D01*
X63785139Y-84726610D01*
X63785141Y-84726599D01*
X63804966Y-84500002D01*
X63804966Y-84499997D01*
X63785141Y-84273400D01*
X63785139Y-84273389D01*
X63726269Y-84053682D01*
X63726264Y-84053668D01*
X63630136Y-83847521D01*
X63630132Y-83847513D01*
X63579025Y-83774526D01*
X62900000Y-84453551D01*
X62900000Y-84447339D01*
X62872741Y-84345606D01*
X62820080Y-84254394D01*
X62745606Y-84179920D01*
X62654394Y-84127259D01*
X62552661Y-84100000D01*
X62546445Y-84100000D01*
X63225472Y-83420974D01*
X63152478Y-83369863D01*
X62946331Y-83273735D01*
X62946317Y-83273730D01*
X62726610Y-83214860D01*
X62726599Y-83214858D01*
X62500002Y-83195034D01*
X62499998Y-83195034D01*
X62273400Y-83214858D01*
X62273389Y-83214860D01*
X62053682Y-83273730D01*
X62053673Y-83273734D01*
X61847516Y-83369866D01*
X61847512Y-83369868D01*
X61774526Y-83420973D01*
X61774526Y-83420974D01*
X62453553Y-84100000D01*
X62447339Y-84100000D01*
X62345606Y-84127259D01*
X62254394Y-84179920D01*
X62179920Y-84254394D01*
X62127259Y-84345606D01*
X62100000Y-84447339D01*
X62100000Y-84453552D01*
X61420974Y-83774526D01*
X61420973Y-83774526D01*
X61369868Y-83847512D01*
X61369867Y-83847514D01*
X61362656Y-83862979D01*
X61316482Y-83915417D01*
X61249288Y-83934567D01*
X61182407Y-83914350D01*
X61137893Y-83862976D01*
X61130568Y-83847266D01*
X61000047Y-83660861D01*
X61000045Y-83660858D01*
X60839141Y-83499954D01*
X60652734Y-83369432D01*
X60652732Y-83369431D01*
X60446497Y-83273261D01*
X60446488Y-83273258D01*
X60226697Y-83214366D01*
X60226693Y-83214365D01*
X60226692Y-83214365D01*
X60226691Y-83214364D01*
X60226686Y-83214364D01*
X60000002Y-83194532D01*
X59999998Y-83194532D01*
X59773313Y-83214364D01*
X59773302Y-83214366D01*
X59553511Y-83273258D01*
X59553502Y-83273261D01*
X59347267Y-83369431D01*
X59347265Y-83369432D01*
X59160858Y-83499954D01*
X58999954Y-83660858D01*
X58869432Y-83847265D01*
X58869431Y-83847267D01*
X58773261Y-84053502D01*
X58773258Y-84053511D01*
X58714366Y-84273302D01*
X58714364Y-84273313D01*
X58694532Y-84499998D01*
X58694532Y-84500001D01*
X58714364Y-84726686D01*
X58714366Y-84726697D01*
X58773258Y-84946488D01*
X58773261Y-84946497D01*
X58869431Y-85152732D01*
X58869432Y-85152734D01*
X58999951Y-85339137D01*
X58999952Y-85339138D01*
X58999953Y-85339139D01*
X59088182Y-85427368D01*
X59121666Y-85488689D01*
X59124500Y-85515048D01*
X59124500Y-87926746D01*
X59104815Y-87993785D01*
X59052011Y-88039540D01*
X58982853Y-88049484D01*
X58961497Y-88044452D01*
X58902799Y-88025001D01*
X58902795Y-88025000D01*
X58800010Y-88014500D01*
X56799998Y-88014500D01*
X56799981Y-88014501D01*
X56697203Y-88025000D01*
X56697200Y-88025001D01*
X56530668Y-88080185D01*
X56530663Y-88080187D01*
X56381342Y-88172289D01*
X56257289Y-88296342D01*
X56165187Y-88445663D01*
X56165185Y-88445668D01*
X56161238Y-88457580D01*
X56110001Y-88612203D01*
X56110001Y-88612204D01*
X56110000Y-88612204D01*
X56099500Y-88714983D01*
X49010500Y-88714983D01*
X49010500Y-88570374D01*
X49030185Y-88503335D01*
X49082989Y-88457580D01*
X49146002Y-88448519D01*
X49146114Y-88447101D01*
X49157785Y-88448019D01*
X49189306Y-88450500D01*
X49189314Y-88450500D01*
X49620686Y-88450500D01*
X49620694Y-88450500D01*
X49657569Y-88447598D01*
X49657571Y-88447597D01*
X49657573Y-88447597D01*
X49699191Y-88435505D01*
X49815398Y-88401744D01*
X49956865Y-88318081D01*
X50073081Y-88201865D01*
X50156744Y-88060398D01*
X50170586Y-88012753D01*
X50184488Y-87964905D01*
X50222094Y-87906019D01*
X50285567Y-87876813D01*
X50303564Y-87875500D01*
X50484952Y-87875500D01*
X50551991Y-87895185D01*
X50572628Y-87911814D01*
X50625719Y-87964905D01*
X50660862Y-88000048D01*
X50696498Y-88025000D01*
X50847266Y-88130568D01*
X51053504Y-88226739D01*
X51273308Y-88285635D01*
X51435230Y-88299801D01*
X51499998Y-88305468D01*
X51500000Y-88305468D01*
X51500002Y-88305468D01*
X51556673Y-88300509D01*
X51726692Y-88285635D01*
X51946496Y-88226739D01*
X52152734Y-88130568D01*
X52339139Y-88000047D01*
X52500047Y-87839139D01*
X52630568Y-87652734D01*
X52637893Y-87637024D01*
X52684064Y-87584586D01*
X52751257Y-87565433D01*
X52818138Y-87585648D01*
X52862657Y-87637024D01*
X52869864Y-87652480D01*
X52920974Y-87725472D01*
X53600000Y-87046446D01*
X53600000Y-87052661D01*
X53627259Y-87154394D01*
X53679920Y-87245606D01*
X53754394Y-87320080D01*
X53845606Y-87372741D01*
X53947339Y-87400000D01*
X53953553Y-87400000D01*
X53274526Y-88079025D01*
X53347513Y-88130132D01*
X53347521Y-88130136D01*
X53553668Y-88226264D01*
X53553682Y-88226269D01*
X53773389Y-88285139D01*
X53773400Y-88285141D01*
X53999998Y-88304966D01*
X54000002Y-88304966D01*
X54226599Y-88285141D01*
X54226610Y-88285139D01*
X54446317Y-88226269D01*
X54446331Y-88226264D01*
X54652478Y-88130136D01*
X54725471Y-88079024D01*
X54046447Y-87400000D01*
X54052661Y-87400000D01*
X54154394Y-87372741D01*
X54245606Y-87320080D01*
X54320080Y-87245606D01*
X54372741Y-87154394D01*
X54400000Y-87052661D01*
X54400000Y-87046447D01*
X55079024Y-87725471D01*
X55130136Y-87652478D01*
X55226264Y-87446331D01*
X55226269Y-87446317D01*
X55285139Y-87226610D01*
X55285141Y-87226599D01*
X55304966Y-87000002D01*
X55304966Y-86999997D01*
X55285141Y-86773400D01*
X55285139Y-86773389D01*
X55226269Y-86553682D01*
X55226264Y-86553668D01*
X55130136Y-86347521D01*
X55130132Y-86347513D01*
X55079025Y-86274526D01*
X54400000Y-86953551D01*
X54400000Y-86947339D01*
X54372741Y-86845606D01*
X54320080Y-86754394D01*
X54245606Y-86679920D01*
X54154394Y-86627259D01*
X54052661Y-86600000D01*
X54046445Y-86600000D01*
X54725472Y-85920974D01*
X54652478Y-85869863D01*
X54446331Y-85773735D01*
X54446317Y-85773730D01*
X54226610Y-85714860D01*
X54226599Y-85714858D01*
X54000002Y-85695034D01*
X53999998Y-85695034D01*
X53773400Y-85714858D01*
X53773389Y-85714860D01*
X53553682Y-85773730D01*
X53553673Y-85773734D01*
X53347516Y-85869866D01*
X53347512Y-85869868D01*
X53274526Y-85920973D01*
X53274526Y-85920974D01*
X53953553Y-86600000D01*
X53947339Y-86600000D01*
X53845606Y-86627259D01*
X53754394Y-86679920D01*
X53679920Y-86754394D01*
X53627259Y-86845606D01*
X53600000Y-86947339D01*
X53600000Y-86953552D01*
X52920974Y-86274526D01*
X52920973Y-86274526D01*
X52869868Y-86347512D01*
X52869867Y-86347514D01*
X52862656Y-86362979D01*
X52816482Y-86415417D01*
X52749288Y-86434567D01*
X52682407Y-86414350D01*
X52637893Y-86362976D01*
X52630568Y-86347266D01*
X52500047Y-86160861D01*
X52500045Y-86160858D01*
X52339141Y-85999954D01*
X52152734Y-85869432D01*
X52152732Y-85869431D01*
X51946497Y-85773261D01*
X51946488Y-85773258D01*
X51726697Y-85714366D01*
X51726693Y-85714365D01*
X51726692Y-85714365D01*
X51726691Y-85714364D01*
X51726686Y-85714364D01*
X51500002Y-85694532D01*
X51499998Y-85694532D01*
X51273313Y-85714364D01*
X51273302Y-85714366D01*
X51053511Y-85773258D01*
X51053502Y-85773261D01*
X50847267Y-85869431D01*
X50847265Y-85869432D01*
X50660862Y-85999951D01*
X50625719Y-86035095D01*
X50572631Y-86088182D01*
X50511311Y-86121666D01*
X50484952Y-86124500D01*
X50318090Y-86124500D01*
X50251051Y-86104815D01*
X50205296Y-86052011D01*
X50199014Y-86035095D01*
X50156744Y-85889602D01*
X50073081Y-85748135D01*
X50073079Y-85748133D01*
X50073076Y-85748129D01*
X49956870Y-85631923D01*
X49956862Y-85631917D01*
X49955702Y-85631231D01*
X49954978Y-85630456D01*
X49950702Y-85627139D01*
X49951237Y-85626448D01*
X49908020Y-85580161D01*
X49895517Y-85511419D01*
X49922164Y-85446830D01*
X49979500Y-85406901D01*
X50018825Y-85400500D01*
X54939734Y-85400500D01*
X54939735Y-85400499D01*
X55108877Y-85366855D01*
X55268208Y-85300858D01*
X55411602Y-85205045D01*
X58601572Y-82015074D01*
X58662893Y-81981591D01*
X58732585Y-81986575D01*
X58776932Y-82015076D01*
X59441897Y-82680042D01*
X59441901Y-82680045D01*
X59585288Y-82775854D01*
X59585301Y-82775861D01*
X59707314Y-82826400D01*
X59744626Y-82841855D01*
X59913766Y-82875499D01*
X59913769Y-82875500D01*
X59913771Y-82875500D01*
X60086231Y-82875500D01*
X60086232Y-82875499D01*
X60255374Y-82841855D01*
X60414705Y-82775858D01*
X60558099Y-82680045D01*
X60680045Y-82558099D01*
X60775858Y-82414705D01*
X60779929Y-82404878D01*
X60799584Y-82357425D01*
X60841855Y-82255374D01*
X60875500Y-82086229D01*
X60875500Y-81913771D01*
X60875500Y-81913768D01*
X60875499Y-81913766D01*
X60841856Y-81744633D01*
X60841855Y-81744626D01*
X60811751Y-81671950D01*
X60804283Y-81602483D01*
X60835558Y-81540003D01*
X60895647Y-81504351D01*
X60926313Y-81500499D01*
X61012871Y-81500499D01*
X61012872Y-81500499D01*
X61072483Y-81494091D01*
X61106667Y-81481340D01*
X61176358Y-81476357D01*
X61193327Y-81481338D01*
X61227517Y-81494091D01*
X61287127Y-81500500D01*
X62282872Y-81500499D01*
X62342483Y-81494091D01*
X62376667Y-81481340D01*
X62446358Y-81476357D01*
X62463327Y-81481338D01*
X62497517Y-81494091D01*
X62557127Y-81500500D01*
X63552872Y-81500499D01*
X63612483Y-81494091D01*
X63646667Y-81481340D01*
X63716358Y-81476357D01*
X63733327Y-81481338D01*
X63767517Y-81494091D01*
X63827127Y-81500500D01*
X64595500Y-81500499D01*
X64662539Y-81520183D01*
X64708294Y-81572987D01*
X64719500Y-81624499D01*
X64719500Y-84411233D01*
X64753143Y-84580366D01*
X64753146Y-84580378D01*
X64819138Y-84739698D01*
X64819145Y-84739711D01*
X64914954Y-84883098D01*
X64914957Y-84883102D01*
X72319955Y-92288099D01*
X72441899Y-92410043D01*
X72441902Y-92410046D01*
X72561698Y-92490091D01*
X72598345Y-92528096D01*
X72657285Y-92623652D01*
X72657288Y-92623656D01*
X72781344Y-92747712D01*
X72930666Y-92839814D01*
X73059657Y-92882557D01*
X73117101Y-92922328D01*
X73143924Y-92986844D01*
X73131609Y-93055620D01*
X73084067Y-93106820D01*
X73059657Y-93117968D01*
X72930878Y-93160642D01*
X72930875Y-93160643D01*
X72781654Y-93252684D01*
X72657684Y-93376654D01*
X72565643Y-93525875D01*
X72565641Y-93525880D01*
X72510494Y-93692302D01*
X72510493Y-93692309D01*
X72500000Y-93795013D01*
X72500000Y-94020000D01*
X75899999Y-94020000D01*
X75899999Y-93795028D01*
X75899998Y-93795013D01*
X75889505Y-93692302D01*
X75834358Y-93525880D01*
X75834356Y-93525875D01*
X75742315Y-93376654D01*
X75618345Y-93252684D01*
X75469124Y-93160643D01*
X75469119Y-93160641D01*
X75340343Y-93117969D01*
X75282898Y-93078196D01*
X75256075Y-93013680D01*
X75268390Y-92944905D01*
X75315933Y-92893705D01*
X75340339Y-92882558D01*
X75469334Y-92839814D01*
X75618656Y-92747712D01*
X75742712Y-92623656D01*
X75834814Y-92474334D01*
X75889999Y-92307797D01*
X75900500Y-92205009D01*
X75900499Y-91254992D01*
X75889999Y-91152203D01*
X75834814Y-90985666D01*
X75742712Y-90836344D01*
X75618656Y-90712288D01*
X75469334Y-90620186D01*
X75341136Y-90577705D01*
X75283692Y-90537933D01*
X75256869Y-90473417D01*
X75269184Y-90404642D01*
X75316727Y-90353442D01*
X75341134Y-90342295D01*
X75469334Y-90299814D01*
X75618656Y-90207712D01*
X75742712Y-90083656D01*
X75834814Y-89934334D01*
X75889999Y-89767797D01*
X75900500Y-89665009D01*
X75900499Y-88714992D01*
X75889999Y-88612203D01*
X75834814Y-88445666D01*
X75742712Y-88296344D01*
X75618656Y-88172288D01*
X75473018Y-88082458D01*
X75469336Y-88080187D01*
X75469331Y-88080185D01*
X75465827Y-88079024D01*
X75302797Y-88025001D01*
X75302795Y-88025000D01*
X75200010Y-88014500D01*
X73199998Y-88014500D01*
X73199981Y-88014501D01*
X73097203Y-88025000D01*
X73097200Y-88025001D01*
X72990397Y-88060393D01*
X72930666Y-88080186D01*
X72930664Y-88080186D01*
X72923811Y-88082458D01*
X72923217Y-88080668D01*
X72863645Y-88089705D01*
X72799866Y-88061173D01*
X72792659Y-88054515D01*
X67840279Y-83102135D01*
X70649500Y-83102135D01*
X70649500Y-84897870D01*
X70649501Y-84897876D01*
X70655908Y-84957483D01*
X70706202Y-85092328D01*
X70706206Y-85092335D01*
X70792452Y-85207544D01*
X70792455Y-85207547D01*
X70907664Y-85293793D01*
X70907671Y-85293797D01*
X71042517Y-85344091D01*
X71042516Y-85344091D01*
X71049444Y-85344835D01*
X71102127Y-85350500D01*
X72897872Y-85350499D01*
X72957483Y-85344091D01*
X73092331Y-85293796D01*
X73207546Y-85207546D01*
X73293796Y-85092331D01*
X73343002Y-84960401D01*
X73384872Y-84904468D01*
X73450337Y-84880050D01*
X73518610Y-84894901D01*
X73546865Y-84916053D01*
X73668917Y-85038105D01*
X73862421Y-85173600D01*
X74076507Y-85273429D01*
X74076516Y-85273433D01*
X74290000Y-85330634D01*
X74290000Y-84433012D01*
X74347007Y-84465925D01*
X74474174Y-84500000D01*
X74605826Y-84500000D01*
X74732993Y-84465925D01*
X74790000Y-84433012D01*
X74790000Y-85330633D01*
X75003483Y-85273433D01*
X75003492Y-85273429D01*
X75217578Y-85173600D01*
X75411082Y-85038105D01*
X75578105Y-84871082D01*
X75713600Y-84677578D01*
X75813429Y-84463492D01*
X75813432Y-84463486D01*
X75870636Y-84250000D01*
X74973012Y-84250000D01*
X75005925Y-84192993D01*
X75040000Y-84065826D01*
X75040000Y-83934174D01*
X75005925Y-83807007D01*
X74973012Y-83750000D01*
X75870636Y-83750000D01*
X75870635Y-83749999D01*
X75813432Y-83536513D01*
X75813429Y-83536507D01*
X75713600Y-83322422D01*
X75713599Y-83322420D01*
X75578113Y-83128926D01*
X75578108Y-83128920D01*
X75411082Y-82961894D01*
X75217578Y-82826399D01*
X75003492Y-82726570D01*
X75003486Y-82726567D01*
X74790000Y-82669364D01*
X74790000Y-83566988D01*
X74732993Y-83534075D01*
X74605826Y-83500000D01*
X74474174Y-83500000D01*
X74347007Y-83534075D01*
X74290000Y-83566988D01*
X74290000Y-82669364D01*
X74289999Y-82669364D01*
X74076513Y-82726567D01*
X74076507Y-82726570D01*
X73862422Y-82826399D01*
X73862420Y-82826400D01*
X73668926Y-82961886D01*
X73546865Y-83083947D01*
X73485542Y-83117431D01*
X73415850Y-83112447D01*
X73359917Y-83070575D01*
X73343002Y-83039598D01*
X73293797Y-82907671D01*
X73293793Y-82907664D01*
X73207547Y-82792455D01*
X73207544Y-82792452D01*
X73092335Y-82706206D01*
X73092328Y-82706202D01*
X72957482Y-82655908D01*
X72957483Y-82655908D01*
X72897883Y-82649501D01*
X72897881Y-82649500D01*
X72897873Y-82649500D01*
X72897864Y-82649500D01*
X71102129Y-82649500D01*
X71102123Y-82649501D01*
X71042516Y-82655908D01*
X70907671Y-82706202D01*
X70907664Y-82706206D01*
X70792455Y-82792452D01*
X70792452Y-82792455D01*
X70706206Y-82907664D01*
X70706202Y-82907671D01*
X70655908Y-83042517D01*
X70649501Y-83102116D01*
X70649500Y-83102135D01*
X67840279Y-83102135D01*
X67776819Y-83038675D01*
X67743334Y-82977352D01*
X67740500Y-82950994D01*
X67740500Y-81624499D01*
X67760185Y-81557460D01*
X67812989Y-81511705D01*
X67864500Y-81500499D01*
X68632871Y-81500499D01*
X68632872Y-81500499D01*
X68692483Y-81494091D01*
X68726667Y-81481340D01*
X68796358Y-81476357D01*
X68813327Y-81481338D01*
X68847517Y-81494091D01*
X68907127Y-81500500D01*
X69902872Y-81500499D01*
X69962483Y-81494091D01*
X69996667Y-81481340D01*
X70066358Y-81476357D01*
X70083327Y-81481338D01*
X70117517Y-81494091D01*
X70177127Y-81500500D01*
X71172872Y-81500499D01*
X71232483Y-81494091D01*
X71266667Y-81481340D01*
X71336358Y-81476357D01*
X71353327Y-81481338D01*
X71387517Y-81494091D01*
X71447127Y-81500500D01*
X72442872Y-81500499D01*
X72502483Y-81494091D01*
X72536667Y-81481340D01*
X72606358Y-81476357D01*
X72623327Y-81481338D01*
X72657517Y-81494091D01*
X72717127Y-81500500D01*
X73712872Y-81500499D01*
X73772483Y-81494091D01*
X73806667Y-81481340D01*
X73876358Y-81476357D01*
X73893327Y-81481338D01*
X73927517Y-81494091D01*
X73987127Y-81500500D01*
X74982872Y-81500499D01*
X75042483Y-81494091D01*
X75077381Y-81481074D01*
X75147069Y-81476089D01*
X75164050Y-81481075D01*
X75197623Y-81493598D01*
X75257155Y-81499999D01*
X75257172Y-81500000D01*
X75505000Y-81500000D01*
X75505000Y-79000000D01*
X75257155Y-79000000D01*
X75197627Y-79006401D01*
X75197619Y-79006403D01*
X75164047Y-79018925D01*
X75094355Y-79023909D01*
X75077381Y-79018925D01*
X75042482Y-79005908D01*
X75042483Y-79005908D01*
X74982883Y-78999501D01*
X74982881Y-78999500D01*
X74982873Y-78999500D01*
X74982864Y-78999500D01*
X73987129Y-78999500D01*
X73987123Y-78999501D01*
X73927518Y-79005908D01*
X73893331Y-79018659D01*
X73823639Y-79023642D01*
X73806669Y-79018659D01*
X73773810Y-79006404D01*
X73772483Y-79005909D01*
X73772482Y-79005908D01*
X73712883Y-78999501D01*
X73712881Y-78999500D01*
X73712873Y-78999500D01*
X73712865Y-78999500D01*
X72944500Y-78999500D01*
X72877461Y-78979815D01*
X72831706Y-78927011D01*
X72820500Y-78875500D01*
X72820500Y-78737270D01*
X72820499Y-78737268D01*
X72790456Y-78586231D01*
X72786855Y-78568128D01*
X72786853Y-78568123D01*
X72720861Y-78408803D01*
X72720854Y-78408790D01*
X72625046Y-78265404D01*
X72592758Y-78233116D01*
X72503099Y-78143457D01*
X72368848Y-78009206D01*
X72368847Y-78009205D01*
X72368846Y-78009204D01*
X72225460Y-77913396D01*
X72225447Y-77913389D01*
X72066127Y-77847397D01*
X72066115Y-77847394D01*
X71896981Y-77813751D01*
X71896978Y-77813751D01*
X71724520Y-77813751D01*
X71724517Y-77813751D01*
X71555382Y-77847394D01*
X71555370Y-77847397D01*
X71396050Y-77913389D01*
X71396032Y-77913399D01*
X71334085Y-77954791D01*
X71267408Y-77975669D01*
X71200028Y-77957184D01*
X71177517Y-77939373D01*
X71058099Y-77819955D01*
X71058098Y-77819954D01*
X71058097Y-77819953D01*
X70914711Y-77724145D01*
X70914698Y-77724138D01*
X70755378Y-77658146D01*
X70755366Y-77658143D01*
X70586232Y-77624500D01*
X70586229Y-77624500D01*
X70413771Y-77624500D01*
X70413768Y-77624500D01*
X70244633Y-77658143D01*
X70244621Y-77658146D01*
X70085301Y-77724138D01*
X70085288Y-77724145D01*
X69941901Y-77819954D01*
X69941897Y-77819957D01*
X69819957Y-77941897D01*
X69819954Y-77941901D01*
X69724145Y-78085288D01*
X69724138Y-78085301D01*
X69658146Y-78244621D01*
X69658143Y-78244633D01*
X69624500Y-78413766D01*
X69624500Y-78586233D01*
X69658143Y-78755366D01*
X69658146Y-78755378D01*
X69688247Y-78828048D01*
X69695716Y-78897517D01*
X69664441Y-78959996D01*
X69604352Y-78995648D01*
X69573686Y-78999500D01*
X68907129Y-78999500D01*
X68907123Y-78999501D01*
X68847518Y-79005908D01*
X68813331Y-79018659D01*
X68743639Y-79023642D01*
X68726669Y-79018659D01*
X68693810Y-79006404D01*
X68692483Y-79005909D01*
X68692482Y-79005908D01*
X68632883Y-78999501D01*
X68632881Y-78999500D01*
X68632873Y-78999500D01*
X68632864Y-78999500D01*
X67637129Y-78999500D01*
X67637123Y-78999501D01*
X67577518Y-79005908D01*
X67543331Y-79018659D01*
X67473639Y-79023642D01*
X67456669Y-79018659D01*
X67423810Y-79006404D01*
X67422483Y-79005909D01*
X67422482Y-79005908D01*
X67362883Y-78999501D01*
X67362881Y-78999500D01*
X67362873Y-78999500D01*
X67362864Y-78999500D01*
X66367129Y-78999500D01*
X66367123Y-78999501D01*
X66307518Y-79005908D01*
X66273331Y-79018659D01*
X66203639Y-79023642D01*
X66186669Y-79018659D01*
X66153810Y-79006404D01*
X66152483Y-79005909D01*
X66152482Y-79005908D01*
X66092883Y-78999501D01*
X66092881Y-78999500D01*
X66092873Y-78999500D01*
X66092864Y-78999500D01*
X65097129Y-78999500D01*
X65097123Y-78999501D01*
X65037518Y-79005908D01*
X65003331Y-79018659D01*
X64933639Y-79023642D01*
X64916669Y-79018659D01*
X64883810Y-79006404D01*
X64882483Y-79005909D01*
X64882482Y-79005908D01*
X64822883Y-78999501D01*
X64822881Y-78999500D01*
X64822873Y-78999500D01*
X64822864Y-78999500D01*
X63827129Y-78999500D01*
X63827123Y-78999501D01*
X63767518Y-79005908D01*
X63733331Y-79018659D01*
X63663639Y-79023642D01*
X63646669Y-79018659D01*
X63613810Y-79006404D01*
X63612483Y-79005909D01*
X63612482Y-79005908D01*
X63552883Y-78999501D01*
X63552881Y-78999500D01*
X63552873Y-78999500D01*
X63552864Y-78999500D01*
X62557129Y-78999500D01*
X62557123Y-78999501D01*
X62497518Y-79005908D01*
X62463331Y-79018659D01*
X62393639Y-79023642D01*
X62376669Y-79018659D01*
X62343810Y-79006404D01*
X62342483Y-79005909D01*
X62342482Y-79005908D01*
X62282883Y-78999501D01*
X62282881Y-78999500D01*
X62282873Y-78999500D01*
X62282864Y-78999500D01*
X61287129Y-78999500D01*
X61287123Y-78999501D01*
X61227518Y-79005908D01*
X61193331Y-79018659D01*
X61123639Y-79023642D01*
X61106669Y-79018659D01*
X61073810Y-79006404D01*
X61072483Y-79005909D01*
X61072482Y-79005908D01*
X61012883Y-78999501D01*
X61012881Y-78999500D01*
X61012873Y-78999500D01*
X61012864Y-78999500D01*
X60017129Y-78999500D01*
X60017123Y-78999501D01*
X59957518Y-79005908D01*
X59923331Y-79018659D01*
X59853639Y-79023642D01*
X59836669Y-79018659D01*
X59803810Y-79006404D01*
X59802483Y-79005909D01*
X59802482Y-79005908D01*
X59742883Y-78999501D01*
X59742881Y-78999500D01*
X59742873Y-78999500D01*
X59742864Y-78999500D01*
X58747129Y-78999500D01*
X58747123Y-78999501D01*
X58687518Y-79005908D01*
X58653331Y-79018659D01*
X58583639Y-79023642D01*
X58566669Y-79018659D01*
X58533810Y-79006404D01*
X58532483Y-79005909D01*
X58532482Y-79005908D01*
X58472883Y-78999501D01*
X58472881Y-78999500D01*
X58472873Y-78999500D01*
X58472864Y-78999500D01*
X57477129Y-78999500D01*
X57477123Y-78999501D01*
X57417518Y-79005908D01*
X57383331Y-79018659D01*
X57313639Y-79023642D01*
X57296669Y-79018659D01*
X57263810Y-79006404D01*
X57262483Y-79005909D01*
X57262482Y-79005908D01*
X57202883Y-78999501D01*
X57202881Y-78999500D01*
X57202873Y-78999500D01*
X57202864Y-78999500D01*
X56207129Y-78999500D01*
X56207123Y-78999501D01*
X56147518Y-79005908D01*
X56113331Y-79018659D01*
X56043639Y-79023642D01*
X56026669Y-79018659D01*
X55993810Y-79006404D01*
X55992483Y-79005909D01*
X55992482Y-79005908D01*
X55932883Y-78999501D01*
X55932881Y-78999500D01*
X55932873Y-78999500D01*
X55932864Y-78999500D01*
X54937129Y-78999500D01*
X54937123Y-78999501D01*
X54877518Y-79005908D01*
X54843331Y-79018659D01*
X54773639Y-79023642D01*
X54756669Y-79018659D01*
X54723810Y-79006404D01*
X54722483Y-79005909D01*
X54722482Y-79005908D01*
X54662883Y-78999501D01*
X54662881Y-78999500D01*
X54662873Y-78999500D01*
X54662864Y-78999500D01*
X53667129Y-78999500D01*
X53667123Y-78999501D01*
X53607518Y-79005908D01*
X53573331Y-79018659D01*
X53503639Y-79023642D01*
X53486669Y-79018659D01*
X53453810Y-79006404D01*
X53452483Y-79005909D01*
X53452482Y-79005908D01*
X53392883Y-78999501D01*
X53392881Y-78999500D01*
X53392873Y-78999500D01*
X53392864Y-78999500D01*
X52397129Y-78999500D01*
X52397123Y-78999501D01*
X52337516Y-79005908D01*
X52202671Y-79056202D01*
X52202664Y-79056206D01*
X52087455Y-79142452D01*
X52087452Y-79142455D01*
X52001206Y-79257664D01*
X52001202Y-79257671D01*
X51950908Y-79392517D01*
X51944501Y-79452116D01*
X51944500Y-79452135D01*
X51944500Y-81047870D01*
X51944501Y-81047876D01*
X51950908Y-81107483D01*
X52001202Y-81242328D01*
X52001206Y-81242335D01*
X52087452Y-81357544D01*
X52087455Y-81357547D01*
X52202664Y-81443793D01*
X52202671Y-81443797D01*
X52337517Y-81494091D01*
X52337516Y-81494091D01*
X52344444Y-81494835D01*
X52397127Y-81500500D01*
X53392872Y-81500499D01*
X53452483Y-81494091D01*
X53486667Y-81481340D01*
X53556358Y-81476357D01*
X53573327Y-81481338D01*
X53607517Y-81494091D01*
X53667127Y-81500500D01*
X54662872Y-81500499D01*
X54722483Y-81494091D01*
X54756667Y-81481340D01*
X54826358Y-81476357D01*
X54843327Y-81481338D01*
X54877517Y-81494091D01*
X54937127Y-81500500D01*
X54996993Y-81500499D01*
X55064031Y-81520183D01*
X55109787Y-81572986D01*
X55119731Y-81642144D01*
X55090707Y-81705700D01*
X55084674Y-81712180D01*
X54133675Y-82663181D01*
X54072352Y-82696666D01*
X54045994Y-82699500D01*
X50329500Y-82699500D01*
X50262461Y-82679815D01*
X50216706Y-82627011D01*
X50205500Y-82575500D01*
X50205500Y-82404878D01*
X50214939Y-82357425D01*
X50246855Y-82280374D01*
X50280500Y-82111229D01*
X50280500Y-80434006D01*
X50300185Y-80366967D01*
X50316819Y-80346325D01*
X53038825Y-77624319D01*
X53100148Y-77590834D01*
X53126506Y-77588000D01*
X54488731Y-77588000D01*
X54488732Y-77587999D01*
X54657874Y-77554355D01*
X54817205Y-77488358D01*
X54960599Y-77392545D01*
X60455300Y-71897844D01*
X65610000Y-71897844D01*
X65616401Y-71957372D01*
X65616403Y-71957379D01*
X65666645Y-72092086D01*
X65666649Y-72092093D01*
X65752809Y-72207187D01*
X65752812Y-72207190D01*
X65867906Y-72293350D01*
X65867913Y-72293354D01*
X66002620Y-72343596D01*
X66002627Y-72343598D01*
X66062155Y-72349999D01*
X66062172Y-72350000D01*
X66310000Y-72350000D01*
X66810000Y-72350000D01*
X67057828Y-72350000D01*
X67057844Y-72349999D01*
X67117372Y-72343598D01*
X67117376Y-72343597D01*
X67216666Y-72306564D01*
X67286358Y-72301580D01*
X67303334Y-72306564D01*
X67402623Y-72343597D01*
X67402627Y-72343598D01*
X67462155Y-72349999D01*
X67462172Y-72350000D01*
X67710000Y-72350000D01*
X68210000Y-72350000D01*
X68457828Y-72350000D01*
X68457844Y-72349999D01*
X68517372Y-72343598D01*
X68517376Y-72343597D01*
X68616666Y-72306564D01*
X68686358Y-72301580D01*
X68703334Y-72306564D01*
X68802623Y-72343597D01*
X68802627Y-72343598D01*
X68862155Y-72349999D01*
X68862172Y-72350000D01*
X69110000Y-72350000D01*
X69610000Y-72350000D01*
X69857828Y-72350000D01*
X69857844Y-72349999D01*
X69917372Y-72343598D01*
X69917379Y-72343596D01*
X70052086Y-72293354D01*
X70052093Y-72293350D01*
X70167187Y-72207190D01*
X70167190Y-72207187D01*
X70253350Y-72092093D01*
X70253354Y-72092086D01*
X70303596Y-71957379D01*
X70303598Y-71957372D01*
X70309999Y-71897844D01*
X70310000Y-71897827D01*
X70310000Y-71650000D01*
X69610000Y-71650000D01*
X69610000Y-72350000D01*
X69110000Y-72350000D01*
X69110000Y-71650000D01*
X68210000Y-71650000D01*
X68210000Y-72350000D01*
X67710000Y-72350000D01*
X67710000Y-71650000D01*
X66810000Y-71650000D01*
X66810000Y-72350000D01*
X66310000Y-72350000D01*
X66310000Y-71650000D01*
X65610000Y-71650000D01*
X65610000Y-71897844D01*
X60455300Y-71897844D01*
X61855300Y-70497844D01*
X65610000Y-70497844D01*
X65616401Y-70557372D01*
X65616403Y-70557383D01*
X65653434Y-70656668D01*
X65658418Y-70726360D01*
X65653434Y-70743332D01*
X65616403Y-70842616D01*
X65616401Y-70842627D01*
X65610000Y-70902155D01*
X65610000Y-71150000D01*
X66310000Y-71150000D01*
X66810000Y-71150000D01*
X67710000Y-71150000D01*
X68210000Y-71150000D01*
X69110000Y-71150000D01*
X69610000Y-71150000D01*
X70310000Y-71150000D01*
X70310000Y-70902172D01*
X70309999Y-70902155D01*
X70303598Y-70842627D01*
X70303597Y-70842623D01*
X70266564Y-70743334D01*
X70261580Y-70673642D01*
X70266564Y-70656666D01*
X70303597Y-70557376D01*
X70303598Y-70557372D01*
X70309999Y-70497844D01*
X70310000Y-70497827D01*
X70310000Y-70250000D01*
X69610000Y-70250000D01*
X69610000Y-71150000D01*
X69110000Y-71150000D01*
X69110000Y-70250000D01*
X68210000Y-70250000D01*
X68210000Y-71150000D01*
X67710000Y-71150000D01*
X67710000Y-70250000D01*
X66810000Y-70250000D01*
X66810000Y-71150000D01*
X66310000Y-71150000D01*
X66310000Y-70250000D01*
X65610000Y-70250000D01*
X65610000Y-70497844D01*
X61855300Y-70497844D01*
X63255300Y-69097844D01*
X65610000Y-69097844D01*
X65616401Y-69157372D01*
X65616403Y-69157383D01*
X65653434Y-69256668D01*
X65658418Y-69326360D01*
X65653434Y-69343332D01*
X65616403Y-69442616D01*
X65616401Y-69442627D01*
X65610000Y-69502155D01*
X65610000Y-69750000D01*
X66310000Y-69750000D01*
X66810000Y-69750000D01*
X67710000Y-69750000D01*
X67710000Y-68850000D01*
X68210000Y-68850000D01*
X68210000Y-69750000D01*
X69110000Y-69750000D01*
X69610000Y-69750000D01*
X70310000Y-69750000D01*
X70310000Y-69502172D01*
X70309999Y-69502155D01*
X70303598Y-69442627D01*
X70303597Y-69442623D01*
X70265632Y-69340834D01*
X70260648Y-69271142D01*
X70265632Y-69254166D01*
X70303597Y-69152376D01*
X70303598Y-69152372D01*
X70309999Y-69092844D01*
X70310000Y-69092827D01*
X70310000Y-68845000D01*
X69610000Y-68845000D01*
X69610000Y-69750000D01*
X69110000Y-69750000D01*
X69110000Y-68845000D01*
X69013963Y-68845000D01*
X69009996Y-68847166D01*
X68983638Y-68850000D01*
X68210000Y-68850000D01*
X67710000Y-68850000D01*
X66810000Y-68850000D01*
X66810000Y-69750000D01*
X66310000Y-69750000D01*
X66310000Y-68850000D01*
X65610000Y-68850000D01*
X65610000Y-69097844D01*
X63255300Y-69097844D01*
X64250989Y-68102155D01*
X65610000Y-68102155D01*
X65610000Y-68350000D01*
X66310000Y-68350000D01*
X66810000Y-68350000D01*
X67710000Y-68350000D01*
X67710000Y-67650000D01*
X68210000Y-67650000D01*
X68210000Y-68350000D01*
X68306037Y-68350000D01*
X68310004Y-68347834D01*
X68336362Y-68345000D01*
X69110000Y-68345000D01*
X69610000Y-68345000D01*
X70310000Y-68345000D01*
X70310000Y-68097172D01*
X70309999Y-68097155D01*
X70303598Y-68037627D01*
X70303596Y-68037620D01*
X70253354Y-67902913D01*
X70253350Y-67902906D01*
X70167190Y-67787812D01*
X70167187Y-67787809D01*
X70052093Y-67701649D01*
X70052086Y-67701645D01*
X69917379Y-67651403D01*
X69917372Y-67651401D01*
X69857844Y-67645000D01*
X69610000Y-67645000D01*
X69610000Y-68345000D01*
X69110000Y-68345000D01*
X69110000Y-67645000D01*
X68862155Y-67645000D01*
X68802627Y-67651401D01*
X68802619Y-67651403D01*
X68696629Y-67690935D01*
X68626937Y-67695919D01*
X68609962Y-67690935D01*
X68517376Y-67656402D01*
X68517372Y-67656401D01*
X68457844Y-67650000D01*
X68210000Y-67650000D01*
X67710000Y-67650000D01*
X67462155Y-67650000D01*
X67402627Y-67656401D01*
X67402616Y-67656403D01*
X67303332Y-67693434D01*
X67233640Y-67698418D01*
X67216668Y-67693434D01*
X67117383Y-67656403D01*
X67117372Y-67656401D01*
X67057844Y-67650000D01*
X66810000Y-67650000D01*
X66810000Y-68350000D01*
X66310000Y-68350000D01*
X66310000Y-67650000D01*
X66062155Y-67650000D01*
X66002627Y-67656401D01*
X66002620Y-67656403D01*
X65867913Y-67706645D01*
X65867906Y-67706649D01*
X65752812Y-67792809D01*
X65752809Y-67792812D01*
X65666649Y-67907906D01*
X65666645Y-67907913D01*
X65616403Y-68042620D01*
X65616401Y-68042627D01*
X65610000Y-68102155D01*
X64250989Y-68102155D01*
X67545045Y-64808099D01*
X67640858Y-64664705D01*
X67703208Y-64514179D01*
X67706856Y-64505373D01*
X67740500Y-64336229D01*
X67740500Y-64163771D01*
X67740500Y-64124499D01*
X67760185Y-64057460D01*
X67812989Y-64011705D01*
X67864500Y-64000499D01*
X68632871Y-64000499D01*
X68632872Y-64000499D01*
X68692483Y-63994091D01*
X68726667Y-63981340D01*
X68796358Y-63976357D01*
X68813327Y-63981338D01*
X68847517Y-63994091D01*
X68907127Y-64000500D01*
X69902872Y-64000499D01*
X69962483Y-63994091D01*
X69996667Y-63981340D01*
X70066358Y-63976357D01*
X70083327Y-63981338D01*
X70117517Y-63994091D01*
X70177127Y-64000500D01*
X71172872Y-64000499D01*
X71232483Y-63994091D01*
X71266667Y-63981340D01*
X71336358Y-63976357D01*
X71353327Y-63981338D01*
X71387517Y-63994091D01*
X71447127Y-64000500D01*
X72442872Y-64000499D01*
X72502483Y-63994091D01*
X72536667Y-63981340D01*
X72606358Y-63976357D01*
X72623327Y-63981338D01*
X72657517Y-63994091D01*
X72717127Y-64000500D01*
X73712872Y-64000499D01*
X73772483Y-63994091D01*
X73806667Y-63981340D01*
X73876358Y-63976357D01*
X73893327Y-63981338D01*
X73927517Y-63994091D01*
X73987127Y-64000500D01*
X74982872Y-64000499D01*
X75042483Y-63994091D01*
X75077381Y-63981074D01*
X75147069Y-63976089D01*
X75164050Y-63981075D01*
X75197623Y-63993598D01*
X75257155Y-63999999D01*
X75257172Y-64000000D01*
X75505000Y-64000000D01*
X75505000Y-61500000D01*
X75484500Y-61500000D01*
X75417461Y-61480315D01*
X75371706Y-61427511D01*
X75360500Y-61376000D01*
X75360500Y-61163770D01*
X75360499Y-61163766D01*
X75337870Y-61050000D01*
X75326856Y-60994627D01*
X75263182Y-60840907D01*
X75261539Y-60836315D01*
X75260858Y-60835295D01*
X75165045Y-60691901D01*
X75043099Y-60569955D01*
X74983993Y-60510849D01*
X74950508Y-60449526D01*
X74955492Y-60379834D01*
X74997364Y-60323901D01*
X75060867Y-60299640D01*
X75226600Y-60285141D01*
X75226610Y-60285139D01*
X75446317Y-60226269D01*
X75446331Y-60226264D01*
X75652478Y-60130136D01*
X75725471Y-60079024D01*
X75046446Y-59400000D01*
X75052661Y-59400000D01*
X75154394Y-59372741D01*
X75245606Y-59320080D01*
X75320080Y-59245606D01*
X75372741Y-59154394D01*
X75400000Y-59052661D01*
X75400000Y-59046447D01*
X76079024Y-59725471D01*
X76130136Y-59652478D01*
X76226264Y-59446331D01*
X76226269Y-59446317D01*
X76255725Y-59336387D01*
X76292090Y-59276726D01*
X76354937Y-59246197D01*
X76424312Y-59254492D01*
X76478190Y-59298977D01*
X76499465Y-59365529D01*
X76499500Y-59368480D01*
X76499500Y-61397601D01*
X76479815Y-61464640D01*
X76427011Y-61510395D01*
X76357853Y-61520339D01*
X76332168Y-61513783D01*
X76312383Y-61506404D01*
X76312372Y-61506401D01*
X76252844Y-61500000D01*
X76005000Y-61500000D01*
X76005000Y-64000000D01*
X76252828Y-64000000D01*
X76252844Y-63999999D01*
X76312372Y-63993598D01*
X76312380Y-63993596D01*
X76332165Y-63986217D01*
X76401856Y-63981231D01*
X76463180Y-64014715D01*
X76496666Y-64076038D01*
X76499500Y-64102398D01*
X76499500Y-78897601D01*
X76479815Y-78964640D01*
X76427011Y-79010395D01*
X76357853Y-79020339D01*
X76332168Y-79013783D01*
X76312383Y-79006404D01*
X76312372Y-79006401D01*
X76252844Y-79000000D01*
X76005000Y-79000000D01*
X76005000Y-81500000D01*
X76252828Y-81500000D01*
X76252844Y-81499999D01*
X76312372Y-81493598D01*
X76312380Y-81493596D01*
X76332165Y-81486217D01*
X76401856Y-81481231D01*
X76463180Y-81514715D01*
X76496666Y-81576038D01*
X76499500Y-81602398D01*
X76499500Y-99375500D01*
X76479815Y-99442539D01*
X76427011Y-99488294D01*
X76375500Y-99499500D01*
X32624500Y-99499500D01*
X32557461Y-99479815D01*
X32511706Y-99427011D01*
X32500500Y-99375500D01*
X32500500Y-87865649D01*
X32795000Y-87865649D01*
X32797899Y-87902489D01*
X32797900Y-87902495D01*
X32843716Y-88060193D01*
X32843717Y-88060196D01*
X32927314Y-88201552D01*
X32927321Y-88201561D01*
X33043438Y-88317678D01*
X33043447Y-88317685D01*
X33184801Y-88401281D01*
X33342514Y-88447100D01*
X33342511Y-88447100D01*
X33344998Y-88447295D01*
X33345000Y-88447295D01*
X33345000Y-87225000D01*
X32795000Y-87225000D01*
X32795000Y-87865649D01*
X32500500Y-87865649D01*
X32500500Y-86084350D01*
X32795000Y-86084350D01*
X32795000Y-86725000D01*
X33345000Y-86725000D01*
X33345000Y-85502703D01*
X33342503Y-85502900D01*
X33184806Y-85548716D01*
X33184803Y-85548717D01*
X33043447Y-85632314D01*
X33043438Y-85632321D01*
X32927321Y-85748438D01*
X32927314Y-85748447D01*
X32843717Y-85889803D01*
X32843716Y-85889806D01*
X32797900Y-86047504D01*
X32797899Y-86047510D01*
X32795000Y-86084350D01*
X32500500Y-86084350D01*
X32500500Y-74999997D01*
X37644579Y-74999997D01*
X37644579Y-75000002D01*
X37664248Y-75362782D01*
X37664250Y-75362799D01*
X37723024Y-75721303D01*
X37723030Y-75721329D01*
X37820221Y-76071381D01*
X37820226Y-76071396D01*
X37954700Y-76408901D01*
X37954706Y-76408913D01*
X38124878Y-76729892D01*
X38124881Y-76729897D01*
X38124883Y-76729900D01*
X38328773Y-77030614D01*
X38563979Y-77307521D01*
X38827746Y-77557375D01*
X39116981Y-77777245D01*
X39428292Y-77964555D01*
X39428294Y-77964556D01*
X39428296Y-77964557D01*
X39428300Y-77964559D01*
X39689268Y-78085295D01*
X39758031Y-78117108D01*
X40102330Y-78233116D01*
X40457153Y-78311218D01*
X40818341Y-78350500D01*
X40818347Y-78350500D01*
X41181653Y-78350500D01*
X41181659Y-78350500D01*
X41542847Y-78311218D01*
X41897670Y-78233116D01*
X42241969Y-78117108D01*
X42571708Y-77964555D01*
X42883019Y-77777245D01*
X43172254Y-77557375D01*
X43436021Y-77307521D01*
X43671227Y-77030614D01*
X43875117Y-76729900D01*
X44045298Y-76408905D01*
X44179775Y-76071391D01*
X44276973Y-75721316D01*
X44335751Y-75362785D01*
X44355421Y-75000000D01*
X44346846Y-74841855D01*
X44335751Y-74637217D01*
X44335749Y-74637200D01*
X44276975Y-74278696D01*
X44276974Y-74278695D01*
X44276973Y-74278684D01*
X44223538Y-74086229D01*
X44179778Y-73928618D01*
X44179773Y-73928603D01*
X44045299Y-73591098D01*
X44045298Y-73591095D01*
X43901550Y-73319957D01*
X43875121Y-73270107D01*
X43875119Y-73270104D01*
X43875117Y-73270100D01*
X43671227Y-72969386D01*
X43436021Y-72692479D01*
X43172254Y-72442625D01*
X43172244Y-72442617D01*
X43050406Y-72349999D01*
X42883019Y-72222755D01*
X42571708Y-72035445D01*
X42571707Y-72035444D01*
X42571703Y-72035442D01*
X42571699Y-72035440D01*
X42241979Y-71882896D01*
X42241974Y-71882894D01*
X42241969Y-71882892D01*
X42074143Y-71826344D01*
X41897669Y-71766883D01*
X41542845Y-71688781D01*
X41181660Y-71649500D01*
X41181659Y-71649500D01*
X40818341Y-71649500D01*
X40818339Y-71649500D01*
X40457154Y-71688781D01*
X40102330Y-71766883D01*
X39836178Y-71856560D01*
X39758031Y-71882892D01*
X39758028Y-71882893D01*
X39758020Y-71882896D01*
X39428300Y-72035440D01*
X39428296Y-72035442D01*
X39334154Y-72092086D01*
X39116981Y-72222755D01*
X39027332Y-72290903D01*
X38827755Y-72442617D01*
X38827745Y-72442625D01*
X38563978Y-72692479D01*
X38328772Y-72969386D01*
X38124884Y-73270098D01*
X38124878Y-73270107D01*
X37954706Y-73591086D01*
X37954700Y-73591098D01*
X37820226Y-73928603D01*
X37820221Y-73928618D01*
X37723030Y-74278670D01*
X37723024Y-74278696D01*
X37664250Y-74637200D01*
X37664248Y-74637217D01*
X37644579Y-74999997D01*
X32500500Y-74999997D01*
X32500500Y-68200000D01*
X34445207Y-68200000D01*
X34464348Y-68443219D01*
X34521303Y-68680457D01*
X34614668Y-68905861D01*
X34738504Y-69107942D01*
X35476212Y-68370233D01*
X35487482Y-68412292D01*
X35559890Y-68537708D01*
X35662292Y-68640110D01*
X35787708Y-68712518D01*
X35829765Y-68723787D01*
X35092056Y-69461494D01*
X35294138Y-69585331D01*
X35519542Y-69678696D01*
X35756780Y-69735651D01*
X35756779Y-69735651D01*
X36000000Y-69754792D01*
X36243219Y-69735651D01*
X36480457Y-69678696D01*
X36705861Y-69585331D01*
X36907942Y-69461494D01*
X36170234Y-68723787D01*
X36212292Y-68712518D01*
X36337708Y-68640110D01*
X36440110Y-68537708D01*
X36512518Y-68412292D01*
X36523787Y-68370234D01*
X37261494Y-69107942D01*
X37385331Y-68905861D01*
X37478696Y-68680457D01*
X37535651Y-68443219D01*
X37554792Y-68200000D01*
X37535651Y-67956780D01*
X37478696Y-67719542D01*
X37385331Y-67494138D01*
X37261494Y-67292056D01*
X36523787Y-68029764D01*
X36512518Y-67987708D01*
X36440110Y-67862292D01*
X36337708Y-67759890D01*
X36212292Y-67687482D01*
X36170233Y-67676212D01*
X36846452Y-66999994D01*
X40494859Y-66999994D01*
X40494859Y-67000005D01*
X40515385Y-67247729D01*
X40515387Y-67247738D01*
X40576412Y-67488717D01*
X40676267Y-67716367D01*
X40776562Y-67869881D01*
X41476212Y-67170233D01*
X41487482Y-67212292D01*
X41559890Y-67337708D01*
X41662292Y-67440110D01*
X41787708Y-67512518D01*
X41829766Y-67523787D01*
X41129943Y-68223609D01*
X41176768Y-68260055D01*
X41176771Y-68260057D01*
X41395385Y-68378364D01*
X41395396Y-68378369D01*
X41630506Y-68459083D01*
X41875707Y-68500000D01*
X42124293Y-68500000D01*
X42369493Y-68459083D01*
X42604603Y-68378369D01*
X42604614Y-68378364D01*
X42823230Y-68260056D01*
X42823236Y-68260051D01*
X42870055Y-68223610D01*
X42870056Y-68223609D01*
X42170233Y-67523787D01*
X42212292Y-67512518D01*
X42337708Y-67440110D01*
X42440110Y-67337708D01*
X42512518Y-67212292D01*
X42523787Y-67170234D01*
X43223435Y-67869882D01*
X43323733Y-67716364D01*
X43423587Y-67488717D01*
X43484612Y-67247738D01*
X43484614Y-67247729D01*
X43505141Y-67000005D01*
X43505141Y-66999994D01*
X43484614Y-66752270D01*
X43484612Y-66752261D01*
X43423587Y-66511282D01*
X43323732Y-66283632D01*
X43223435Y-66130116D01*
X42523787Y-66829765D01*
X42512518Y-66787708D01*
X42440110Y-66662292D01*
X42337708Y-66559890D01*
X42212292Y-66487482D01*
X42170233Y-66476212D01*
X42870055Y-65776389D01*
X42870055Y-65776388D01*
X42823236Y-65739947D01*
X42823231Y-65739944D01*
X42604614Y-65621635D01*
X42604603Y-65621630D01*
X42369493Y-65540916D01*
X42124293Y-65500000D01*
X41875707Y-65500000D01*
X41630506Y-65540916D01*
X41395396Y-65621630D01*
X41395385Y-65621635D01*
X41176770Y-65739943D01*
X41129943Y-65776389D01*
X41829766Y-66476212D01*
X41787708Y-66487482D01*
X41662292Y-66559890D01*
X41559890Y-66662292D01*
X41487482Y-66787708D01*
X41476212Y-66829766D01*
X40776563Y-66130117D01*
X40676267Y-66283633D01*
X40676265Y-66283637D01*
X40576412Y-66511282D01*
X40515387Y-66752261D01*
X40515385Y-66752270D01*
X40494859Y-66999994D01*
X36846452Y-66999994D01*
X36907942Y-66938504D01*
X36705861Y-66814668D01*
X36480457Y-66721303D01*
X36243219Y-66664348D01*
X36243220Y-66664348D01*
X36000000Y-66645207D01*
X35756780Y-66664348D01*
X35519542Y-66721303D01*
X35294146Y-66814665D01*
X35294141Y-66814668D01*
X35092056Y-66938504D01*
X35829765Y-67676212D01*
X35787708Y-67687482D01*
X35662292Y-67759890D01*
X35559890Y-67862292D01*
X35487482Y-67987708D01*
X35476212Y-68029765D01*
X34738504Y-67292056D01*
X34614668Y-67494141D01*
X34614665Y-67494146D01*
X34521303Y-67719542D01*
X34464348Y-67956780D01*
X34445207Y-68200000D01*
X32500500Y-68200000D01*
X32500500Y-63600000D01*
X34444706Y-63600000D01*
X34463853Y-63843297D01*
X34463853Y-63843300D01*
X34463854Y-63843302D01*
X34505007Y-64014715D01*
X34520830Y-64080619D01*
X34614222Y-64306089D01*
X34741737Y-64514173D01*
X34741738Y-64514176D01*
X34741745Y-64514184D01*
X34900241Y-64699759D01*
X35027090Y-64808098D01*
X35085823Y-64858261D01*
X35085826Y-64858262D01*
X35293910Y-64985777D01*
X35519381Y-65079169D01*
X35519378Y-65079169D01*
X35519384Y-65079170D01*
X35519388Y-65079172D01*
X35756698Y-65136146D01*
X36000000Y-65155294D01*
X36243302Y-65136146D01*
X36480612Y-65079172D01*
X36706089Y-64985777D01*
X36914179Y-64858259D01*
X37099759Y-64699759D01*
X37258259Y-64514179D01*
X37385777Y-64306089D01*
X37479172Y-64080612D01*
X37536146Y-63843302D01*
X37555294Y-63600000D01*
X37536146Y-63356698D01*
X37479172Y-63119388D01*
X37479169Y-63119380D01*
X37385777Y-62893910D01*
X37258262Y-62685826D01*
X37258261Y-62685823D01*
X37205459Y-62624000D01*
X37099759Y-62500241D01*
X36977063Y-62395449D01*
X36914176Y-62341738D01*
X36914173Y-62341737D01*
X36706089Y-62214222D01*
X36480618Y-62120830D01*
X36480621Y-62120830D01*
X36374992Y-62095470D01*
X36243302Y-62063854D01*
X36243300Y-62063853D01*
X36243297Y-62063853D01*
X36000000Y-62044706D01*
X35756702Y-62063853D01*
X35519380Y-62120830D01*
X35293910Y-62214222D01*
X35085826Y-62341737D01*
X35085823Y-62341738D01*
X34900241Y-62500241D01*
X34741738Y-62685823D01*
X34741737Y-62685826D01*
X34614222Y-62893910D01*
X34520830Y-63119380D01*
X34463853Y-63356702D01*
X34444706Y-63600000D01*
X32500500Y-63600000D01*
X32500500Y-58149984D01*
X34449500Y-58149984D01*
X34449500Y-59850015D01*
X34460000Y-59952795D01*
X34460001Y-59952797D01*
X34479381Y-60011282D01*
X34515186Y-60119335D01*
X34515187Y-60119337D01*
X34607286Y-60268651D01*
X34607289Y-60268655D01*
X34731344Y-60392710D01*
X34731348Y-60392713D01*
X34880662Y-60484812D01*
X34880664Y-60484813D01*
X34880666Y-60484814D01*
X35047203Y-60539999D01*
X35149992Y-60550500D01*
X35149997Y-60550500D01*
X36850003Y-60550500D01*
X36850008Y-60550500D01*
X36952797Y-60539999D01*
X37073524Y-60499994D01*
X40494859Y-60499994D01*
X40494859Y-60500005D01*
X40515385Y-60747729D01*
X40515387Y-60747738D01*
X40576412Y-60988717D01*
X40676267Y-61216367D01*
X40776562Y-61369881D01*
X41476212Y-60670233D01*
X41487482Y-60712292D01*
X41559890Y-60837708D01*
X41662292Y-60940110D01*
X41787708Y-61012518D01*
X41829766Y-61023787D01*
X41129943Y-61723609D01*
X41176768Y-61760055D01*
X41176771Y-61760057D01*
X41395385Y-61878364D01*
X41395396Y-61878369D01*
X41630506Y-61959083D01*
X41875707Y-62000000D01*
X42124293Y-62000000D01*
X42369493Y-61959083D01*
X42604603Y-61878369D01*
X42604614Y-61878364D01*
X42823230Y-61760056D01*
X42823236Y-61760051D01*
X42870055Y-61723610D01*
X42870056Y-61723609D01*
X42170233Y-61023787D01*
X42212292Y-61012518D01*
X42337708Y-60940110D01*
X42440110Y-60837708D01*
X42512518Y-60712292D01*
X42523787Y-60670234D01*
X43223435Y-61369882D01*
X43323733Y-61216364D01*
X43423587Y-60988717D01*
X43484612Y-60747738D01*
X43484614Y-60747729D01*
X43505141Y-60500005D01*
X43505141Y-60499994D01*
X43484614Y-60252270D01*
X43484612Y-60252261D01*
X43423587Y-60011282D01*
X43323732Y-59783632D01*
X43223435Y-59630116D01*
X42523787Y-60329765D01*
X42512518Y-60287708D01*
X42440110Y-60162292D01*
X42337708Y-60059890D01*
X42212292Y-59987482D01*
X42170233Y-59976212D01*
X42870055Y-59276389D01*
X42870055Y-59276388D01*
X42823236Y-59239947D01*
X42823231Y-59239944D01*
X42604614Y-59121635D01*
X42604603Y-59121630D01*
X42369493Y-59040916D01*
X42124293Y-59000000D01*
X41875707Y-59000000D01*
X41630506Y-59040916D01*
X41395396Y-59121630D01*
X41395385Y-59121635D01*
X41176770Y-59239943D01*
X41129943Y-59276389D01*
X41829766Y-59976212D01*
X41787708Y-59987482D01*
X41662292Y-60059890D01*
X41559890Y-60162292D01*
X41487482Y-60287708D01*
X41476212Y-60329766D01*
X40776563Y-59630117D01*
X40676267Y-59783633D01*
X40676265Y-59783637D01*
X40576412Y-60011282D01*
X40515387Y-60252261D01*
X40515385Y-60252270D01*
X40494859Y-60499994D01*
X37073524Y-60499994D01*
X37119334Y-60484814D01*
X37268655Y-60392711D01*
X37392711Y-60268655D01*
X37484814Y-60119334D01*
X37539999Y-59952797D01*
X37550500Y-59850008D01*
X37550500Y-58149992D01*
X37539999Y-58047203D01*
X37484814Y-57880666D01*
X37478152Y-57869866D01*
X37392713Y-57731348D01*
X37392710Y-57731344D01*
X37268655Y-57607289D01*
X37268651Y-57607286D01*
X37119337Y-57515187D01*
X37119335Y-57515186D01*
X37036065Y-57487593D01*
X36952797Y-57460001D01*
X36952795Y-57460000D01*
X36850015Y-57449500D01*
X36850008Y-57449500D01*
X35149992Y-57449500D01*
X35149984Y-57449500D01*
X35047204Y-57460000D01*
X35047203Y-57460001D01*
X34880664Y-57515186D01*
X34880662Y-57515187D01*
X34731348Y-57607286D01*
X34731344Y-57607289D01*
X34607289Y-57731344D01*
X34607286Y-57731348D01*
X34515187Y-57880662D01*
X34515186Y-57880664D01*
X34460001Y-58047203D01*
X34460000Y-58047204D01*
X34449500Y-58149984D01*
X32500500Y-58149984D01*
X32500500Y-45749999D01*
X33513687Y-45749999D01*
X33513688Y-45750000D01*
X34699999Y-45750000D01*
X34674979Y-45810402D01*
X34650000Y-45935981D01*
X34650000Y-46064019D01*
X34674979Y-46189598D01*
X34699999Y-46250000D01*
X33513687Y-46250000D01*
X33515112Y-46269022D01*
X33515114Y-46269031D01*
X33575142Y-46532033D01*
X33575148Y-46532052D01*
X33673709Y-46783181D01*
X33673708Y-46783181D01*
X33808600Y-47016818D01*
X33976810Y-47227748D01*
X34174571Y-47411242D01*
X34397483Y-47563220D01*
X34397485Y-47563221D01*
X34640539Y-47680269D01*
X34640537Y-47680269D01*
X34898337Y-47759790D01*
X34898343Y-47759792D01*
X35049999Y-47782650D01*
X35050000Y-47782649D01*
X35050000Y-46600001D01*
X35110402Y-46625021D01*
X35235981Y-46650000D01*
X35364019Y-46650000D01*
X35489598Y-46625021D01*
X35550000Y-46600001D01*
X35550000Y-47782650D01*
X35701656Y-47759792D01*
X35701662Y-47759790D01*
X35959461Y-47680269D01*
X36202516Y-47563221D01*
X36202517Y-47563220D01*
X36425428Y-47411242D01*
X36623189Y-47227748D01*
X36791399Y-47016818D01*
X36926290Y-46783181D01*
X37024851Y-46532052D01*
X37024857Y-46532033D01*
X37084885Y-46269031D01*
X37084887Y-46269022D01*
X37086312Y-46250000D01*
X35900001Y-46250000D01*
X35925021Y-46189598D01*
X35950000Y-46064019D01*
X35950000Y-45935981D01*
X35936653Y-45868879D01*
X45999501Y-45868879D01*
X45999501Y-46131120D01*
X46033728Y-46391112D01*
X46101603Y-46644423D01*
X46190061Y-46857979D01*
X46199500Y-46905432D01*
X46199500Y-47347870D01*
X46199501Y-47347876D01*
X46205908Y-47407483D01*
X46256202Y-47542328D01*
X46256206Y-47542335D01*
X46342452Y-47657544D01*
X46342455Y-47657547D01*
X46457664Y-47743793D01*
X46457671Y-47743797D01*
X46500551Y-47759790D01*
X46592517Y-47794091D01*
X46652127Y-47800500D01*
X47094568Y-47800499D01*
X47142021Y-47809938D01*
X47202596Y-47835029D01*
X47355581Y-47898398D01*
X47608884Y-47966271D01*
X47803881Y-47991942D01*
X47868879Y-48000499D01*
X47868880Y-48000499D01*
X48131121Y-48000499D01*
X48183119Y-47993653D01*
X48391116Y-47966271D01*
X48644419Y-47898398D01*
X48857979Y-47809937D01*
X48905432Y-47800499D01*
X49347871Y-47800499D01*
X49347872Y-47800499D01*
X49407483Y-47794091D01*
X49542331Y-47743796D01*
X49657546Y-47657546D01*
X49743796Y-47542331D01*
X49794091Y-47407483D01*
X49800500Y-47347873D01*
X49800499Y-47079994D01*
X49820183Y-47012956D01*
X49836813Y-46992319D01*
X52292316Y-44536819D01*
X52353639Y-44503334D01*
X52379997Y-44500500D01*
X55458561Y-44500500D01*
X55525600Y-44520185D01*
X55532872Y-44525233D01*
X55557668Y-44543795D01*
X55557671Y-44543797D01*
X55692517Y-44594091D01*
X55692516Y-44594091D01*
X55699444Y-44594835D01*
X55752127Y-44600500D01*
X61247872Y-44600499D01*
X61307483Y-44594091D01*
X61442331Y-44543796D01*
X61557546Y-44457546D01*
X61643796Y-44342331D01*
X61653412Y-44316546D01*
X61695281Y-44260613D01*
X61760744Y-44236193D01*
X61829018Y-44251042D01*
X61857276Y-44272196D01*
X65219735Y-47634655D01*
X65219764Y-47634686D01*
X65362217Y-47777139D01*
X65411305Y-47809938D01*
X65526086Y-47886632D01*
X65526088Y-47886633D01*
X65526092Y-47886635D01*
X65583845Y-47910556D01*
X65649572Y-47937781D01*
X65708164Y-47962051D01*
X65804812Y-47981275D01*
X65853135Y-47990887D01*
X65901458Y-48000500D01*
X65901459Y-48000500D01*
X67598542Y-48000500D01*
X67617870Y-47996655D01*
X67695188Y-47981275D01*
X67791836Y-47962051D01*
X67850428Y-47937781D01*
X67973914Y-47886632D01*
X68137782Y-47777139D01*
X68277139Y-47637782D01*
X68277139Y-47637780D01*
X68287347Y-47627573D01*
X68287348Y-47627570D01*
X70077139Y-45837782D01*
X70186632Y-45673914D01*
X70262051Y-45491835D01*
X70262069Y-45491742D01*
X70262091Y-45491699D01*
X70263821Y-45486000D01*
X70264900Y-45486327D01*
X70294446Y-45429828D01*
X70355157Y-45395246D01*
X70422693Y-45398213D01*
X70547302Y-45439505D01*
X70547309Y-45439506D01*
X70650019Y-45449999D01*
X70750000Y-45449998D01*
X70750000Y-39849999D01*
X70650028Y-39850000D01*
X70650012Y-39850001D01*
X70547302Y-39860494D01*
X70380880Y-39915641D01*
X70380875Y-39915643D01*
X70231649Y-40007687D01*
X70227305Y-40011122D01*
X70162507Y-40037255D01*
X70093866Y-40024207D01*
X70073497Y-40011116D01*
X70068660Y-40007292D01*
X70068656Y-40007288D01*
X69919334Y-39915186D01*
X69752797Y-39860001D01*
X69752795Y-39860000D01*
X69650010Y-39849500D01*
X68949998Y-39849500D01*
X68949980Y-39849501D01*
X68847203Y-39860000D01*
X68847200Y-39860001D01*
X68680668Y-39915185D01*
X68680663Y-39915187D01*
X68531342Y-40007289D01*
X68526909Y-40010795D01*
X68462113Y-40036934D01*
X68393471Y-40023892D01*
X68373091Y-40010795D01*
X68368657Y-40007289D01*
X68368656Y-40007288D01*
X68219334Y-39915186D01*
X68052797Y-39860001D01*
X68052795Y-39860000D01*
X67950016Y-39849500D01*
X67950009Y-39849500D01*
X67315783Y-39849500D01*
X67248744Y-39829815D01*
X67228102Y-39813181D01*
X66326601Y-38911680D01*
X66293116Y-38850357D01*
X66298100Y-38780665D01*
X66339972Y-38724732D01*
X66405436Y-38700315D01*
X66414282Y-38699999D01*
X67975000Y-38699999D01*
X68475000Y-38699999D01*
X70750000Y-38699999D01*
X71250000Y-38699999D01*
X73524999Y-38699999D01*
X73525000Y-38699998D01*
X73525000Y-36175000D01*
X71250000Y-36175000D01*
X71250000Y-38699999D01*
X70750000Y-38699999D01*
X70750000Y-36175000D01*
X68475000Y-36175000D01*
X68475000Y-38699999D01*
X67975000Y-38699999D01*
X67975000Y-36175000D01*
X65100000Y-36175000D01*
X65100000Y-37385718D01*
X65080315Y-37452758D01*
X65027511Y-37498512D01*
X64958353Y-37508456D01*
X64894797Y-37479431D01*
X64888319Y-37473399D01*
X64364209Y-36949289D01*
X64364206Y-36949285D01*
X64364206Y-36949286D01*
X64357139Y-36942219D01*
X64357139Y-36942218D01*
X64217782Y-36802861D01*
X64217781Y-36802860D01*
X64217780Y-36802859D01*
X64053920Y-36693371D01*
X64053911Y-36693366D01*
X63970683Y-36658892D01*
X63925165Y-36640038D01*
X63898500Y-36628993D01*
X63871837Y-36617949D01*
X63871833Y-36617948D01*
X63761511Y-36596004D01*
X63678543Y-36579500D01*
X63678541Y-36579500D01*
X59803931Y-36579500D01*
X59736892Y-36559815D01*
X59696544Y-36517500D01*
X59666924Y-36466196D01*
X59507281Y-36258148D01*
X59507274Y-36258140D01*
X59321860Y-36072726D01*
X59321851Y-36072718D01*
X59113803Y-35913075D01*
X58886700Y-35781958D01*
X58886690Y-35781953D01*
X58644428Y-35681605D01*
X58644421Y-35681603D01*
X58644419Y-35681602D01*
X58619780Y-35675000D01*
X65100000Y-35675000D01*
X67975000Y-35675000D01*
X68475000Y-35675000D01*
X70750000Y-35675000D01*
X71250000Y-35675000D01*
X73525000Y-35675000D01*
X73525000Y-31325000D01*
X71250000Y-31325000D01*
X71250000Y-35675000D01*
X70750000Y-35675000D01*
X70750000Y-33750000D01*
X68475000Y-33750000D01*
X68475000Y-35675000D01*
X67975000Y-35675000D01*
X67975000Y-33750000D01*
X65100000Y-33750000D01*
X65100000Y-35675000D01*
X58619780Y-35675000D01*
X58391116Y-35613730D01*
X58333339Y-35606123D01*
X58131127Y-35579500D01*
X58131120Y-35579500D01*
X51488880Y-35579500D01*
X51488872Y-35579500D01*
X51257772Y-35609926D01*
X51228884Y-35613730D01*
X51000220Y-35675000D01*
X50975581Y-35681602D01*
X50975571Y-35681605D01*
X50733309Y-35781953D01*
X50733299Y-35781958D01*
X50506196Y-35913075D01*
X50298148Y-36072718D01*
X50112718Y-36258148D01*
X49953075Y-36466196D01*
X49821958Y-36693299D01*
X49821953Y-36693309D01*
X49721605Y-36935571D01*
X49721602Y-36935581D01*
X49653730Y-37188885D01*
X49619500Y-37448872D01*
X49619500Y-37711127D01*
X49646123Y-37913339D01*
X49653730Y-37971116D01*
X49721602Y-38224418D01*
X49721605Y-38224428D01*
X49821953Y-38466690D01*
X49821958Y-38466700D01*
X49953075Y-38693803D01*
X50112718Y-38901851D01*
X50112726Y-38901860D01*
X50298140Y-39087274D01*
X50298148Y-39087281D01*
X50506196Y-39246924D01*
X50733299Y-39378041D01*
X50733309Y-39378046D01*
X50975571Y-39478394D01*
X50975581Y-39478398D01*
X51228884Y-39546270D01*
X51488880Y-39580500D01*
X51488887Y-39580500D01*
X58131113Y-39580500D01*
X58131120Y-39580500D01*
X58391116Y-39546270D01*
X58644419Y-39478398D01*
X58886697Y-39378043D01*
X59113803Y-39246924D01*
X59321851Y-39087282D01*
X59321855Y-39087277D01*
X59321860Y-39087274D01*
X59507274Y-38901860D01*
X59507277Y-38901855D01*
X59507282Y-38901851D01*
X59666924Y-38693803D01*
X59696544Y-38642500D01*
X59747111Y-38594285D01*
X59803931Y-38580500D01*
X63114218Y-38580500D01*
X63181257Y-38600185D01*
X63201899Y-38616819D01*
X66513181Y-41928102D01*
X66546666Y-41989425D01*
X66549500Y-42015783D01*
X66549500Y-44750001D01*
X66549501Y-44750018D01*
X66560000Y-44852796D01*
X66560001Y-44852799D01*
X66599500Y-44971996D01*
X66615186Y-45019334D01*
X66707288Y-45168656D01*
X66831344Y-45292712D01*
X66980666Y-45384814D01*
X67147203Y-45439999D01*
X67249991Y-45450500D01*
X67335218Y-45450499D01*
X67402255Y-45470183D01*
X67448011Y-45522986D01*
X67457955Y-45592145D01*
X67428931Y-45655701D01*
X67422899Y-45662180D01*
X67342954Y-45742124D01*
X67121897Y-45963182D01*
X67060576Y-45996666D01*
X67034218Y-45999500D01*
X66465782Y-45999500D01*
X66398743Y-45979815D01*
X66378101Y-45963181D01*
X62431479Y-42016559D01*
X62431459Y-42016537D01*
X62287785Y-41872863D01*
X62287781Y-41872860D01*
X62123920Y-41763371D01*
X62123907Y-41763364D01*
X61967408Y-41698541D01*
X61967407Y-41698541D01*
X61941836Y-41687949D01*
X61941828Y-41687947D01*
X61845188Y-41668724D01*
X61826285Y-41664964D01*
X61800306Y-41659796D01*
X61738395Y-41627410D01*
X61703822Y-41566693D01*
X61700499Y-41538179D01*
X61700499Y-41152129D01*
X61700498Y-41152123D01*
X61694091Y-41092516D01*
X61643797Y-40957671D01*
X61643793Y-40957664D01*
X61557547Y-40842455D01*
X61557544Y-40842452D01*
X61442335Y-40756206D01*
X61442328Y-40756202D01*
X61307482Y-40705908D01*
X61307483Y-40705908D01*
X61247883Y-40699501D01*
X61247881Y-40699500D01*
X61247873Y-40699500D01*
X61247865Y-40699500D01*
X59255431Y-40699500D01*
X59207978Y-40690061D01*
X58994428Y-40601605D01*
X58994421Y-40601603D01*
X58994419Y-40601602D01*
X58741116Y-40533730D01*
X58683339Y-40526123D01*
X58481127Y-40499500D01*
X58481120Y-40499500D01*
X51368880Y-40499500D01*
X51368872Y-40499500D01*
X51238882Y-40516615D01*
X51238881Y-40516615D01*
X51108887Y-40533728D01*
X50863426Y-40599500D01*
X50863425Y-40599499D01*
X50855590Y-40601599D01*
X50855571Y-40601605D01*
X50613309Y-40701953D01*
X50613299Y-40701958D01*
X50386197Y-40833075D01*
X50282172Y-40912897D01*
X50178145Y-40992719D01*
X50178140Y-40992723D01*
X47007682Y-44163181D01*
X46946359Y-44196666D01*
X46920001Y-44199500D01*
X46652130Y-44199500D01*
X46652123Y-44199501D01*
X46592516Y-44205908D01*
X46457671Y-44256202D01*
X46457664Y-44256206D01*
X46342455Y-44342452D01*
X46342452Y-44342455D01*
X46256206Y-44457664D01*
X46256202Y-44457671D01*
X46205908Y-44592517D01*
X46199501Y-44652116D01*
X46199500Y-44652135D01*
X46199500Y-45094568D01*
X46190061Y-45142020D01*
X46101602Y-45355580D01*
X46033728Y-45608887D01*
X45999501Y-45868879D01*
X35936653Y-45868879D01*
X35925021Y-45810402D01*
X35900001Y-45750000D01*
X37086312Y-45750000D01*
X37086312Y-45749999D01*
X37084887Y-45730977D01*
X37084885Y-45730968D01*
X37024857Y-45467966D01*
X37024851Y-45467947D01*
X36926290Y-45216818D01*
X36926291Y-45216818D01*
X36791399Y-44983181D01*
X36623189Y-44772251D01*
X36425428Y-44588757D01*
X36202517Y-44436779D01*
X36202516Y-44436778D01*
X35959460Y-44319730D01*
X35959462Y-44319730D01*
X35701665Y-44240210D01*
X35550000Y-44217349D01*
X35550000Y-45399998D01*
X35489598Y-45374979D01*
X35364019Y-45350000D01*
X35235981Y-45350000D01*
X35110402Y-45374979D01*
X35050000Y-45399998D01*
X35050000Y-44217349D01*
X34898334Y-44240210D01*
X34640538Y-44319730D01*
X34397485Y-44436778D01*
X34397483Y-44436779D01*
X34174571Y-44588757D01*
X33976810Y-44772251D01*
X33808600Y-44983181D01*
X33673709Y-45216818D01*
X33575148Y-45467947D01*
X33575142Y-45467966D01*
X33515114Y-45730968D01*
X33515112Y-45730977D01*
X33513687Y-45749999D01*
X32500500Y-45749999D01*
X32500500Y-42124000D01*
X32520185Y-42056961D01*
X32572989Y-42011206D01*
X32624500Y-42000000D01*
X48000000Y-42000000D01*
X48000000Y-32249999D01*
X50341127Y-32249999D01*
X50341128Y-32250000D01*
X51304314Y-32250000D01*
X51299920Y-32254394D01*
X51247259Y-32345606D01*
X51220000Y-32447339D01*
X51220000Y-32552661D01*
X51247259Y-32654394D01*
X51299920Y-32745606D01*
X51304314Y-32750000D01*
X50341128Y-32750000D01*
X50393730Y-32946317D01*
X50393734Y-32946326D01*
X50489865Y-33152482D01*
X50620342Y-33338820D01*
X50781179Y-33499657D01*
X50967517Y-33630134D01*
X51173673Y-33726265D01*
X51173682Y-33726269D01*
X51369999Y-33778872D01*
X51370000Y-33778871D01*
X51370000Y-32815686D01*
X51374394Y-32820080D01*
X51465606Y-32872741D01*
X51567339Y-32900000D01*
X51672661Y-32900000D01*
X51774394Y-32872741D01*
X51865606Y-32820080D01*
X51870000Y-32815686D01*
X51870000Y-33778872D01*
X52066317Y-33726269D01*
X52066326Y-33726265D01*
X52272482Y-33630134D01*
X52458820Y-33499657D01*
X52619657Y-33338820D01*
X52750134Y-33152482D01*
X52846265Y-32946326D01*
X52846269Y-32946317D01*
X52898872Y-32750000D01*
X51935686Y-32750000D01*
X51940080Y-32745606D01*
X51992741Y-32654394D01*
X52012676Y-32579994D01*
X56494859Y-32579994D01*
X56494859Y-32580005D01*
X56515385Y-32827729D01*
X56515387Y-32827738D01*
X56576412Y-33068717D01*
X56676267Y-33296367D01*
X56776562Y-33449881D01*
X57517037Y-32709408D01*
X57534075Y-32772993D01*
X57599901Y-32887007D01*
X57692993Y-32980099D01*
X57807007Y-33045925D01*
X57870591Y-33062962D01*
X57129943Y-33803609D01*
X57176768Y-33840055D01*
X57176771Y-33840057D01*
X57395385Y-33958364D01*
X57395396Y-33958369D01*
X57630506Y-34039083D01*
X57875707Y-34080000D01*
X58124293Y-34080000D01*
X58369493Y-34039083D01*
X58604603Y-33958369D01*
X58604614Y-33958364D01*
X58823230Y-33840056D01*
X58823236Y-33840051D01*
X58870055Y-33803610D01*
X58870056Y-33803609D01*
X58129408Y-33062962D01*
X58192993Y-33045925D01*
X58307007Y-32980099D01*
X58400099Y-32887007D01*
X58465925Y-32772993D01*
X58482962Y-32709409D01*
X59223435Y-33449882D01*
X59323733Y-33296364D01*
X59344070Y-33250000D01*
X65100000Y-33250000D01*
X67975000Y-33250000D01*
X68475000Y-33250000D01*
X70750000Y-33250000D01*
X70750000Y-31325000D01*
X68475000Y-31325000D01*
X68475000Y-33250000D01*
X67975000Y-33250000D01*
X67975000Y-31325000D01*
X65100000Y-31325000D01*
X65100000Y-33250000D01*
X59344070Y-33250000D01*
X59423587Y-33068717D01*
X59484612Y-32827738D01*
X59484614Y-32827729D01*
X59505141Y-32580005D01*
X59505141Y-32579994D01*
X59484614Y-32332270D01*
X59484612Y-32332261D01*
X59423587Y-32091282D01*
X59323732Y-31863632D01*
X59223435Y-31710116D01*
X58482962Y-32450590D01*
X58465925Y-32387007D01*
X58400099Y-32272993D01*
X58307007Y-32179901D01*
X58192993Y-32114075D01*
X58129409Y-32097037D01*
X58870055Y-31356389D01*
X58870055Y-31356388D01*
X58823236Y-31319947D01*
X58823231Y-31319944D01*
X58604614Y-31201635D01*
X58604603Y-31201630D01*
X58369493Y-31120916D01*
X58124293Y-31080000D01*
X57875707Y-31080000D01*
X57630506Y-31120916D01*
X57395396Y-31201630D01*
X57395385Y-31201635D01*
X57176770Y-31319943D01*
X57129943Y-31356389D01*
X57870591Y-32097037D01*
X57807007Y-32114075D01*
X57692993Y-32179901D01*
X57599901Y-32272993D01*
X57534075Y-32387007D01*
X57517037Y-32450591D01*
X56776563Y-31710117D01*
X56676267Y-31863633D01*
X56676265Y-31863637D01*
X56576412Y-32091282D01*
X56515387Y-32332261D01*
X56515385Y-32332270D01*
X56494859Y-32579994D01*
X52012676Y-32579994D01*
X52020000Y-32552661D01*
X52020000Y-32447339D01*
X51992741Y-32345606D01*
X51940080Y-32254394D01*
X51935686Y-32250000D01*
X52898872Y-32250000D01*
X52898872Y-32249999D01*
X52846269Y-32053682D01*
X52846265Y-32053673D01*
X52750134Y-31847517D01*
X52619657Y-31661179D01*
X52458820Y-31500342D01*
X52272482Y-31369865D01*
X52066328Y-31273734D01*
X51870000Y-31221127D01*
X51870000Y-32184314D01*
X51865606Y-32179920D01*
X51774394Y-32127259D01*
X51672661Y-32100000D01*
X51567339Y-32100000D01*
X51465606Y-32127259D01*
X51374394Y-32179920D01*
X51370000Y-32184314D01*
X51370000Y-31221127D01*
X51173671Y-31273734D01*
X50967517Y-31369865D01*
X50781179Y-31500342D01*
X50620342Y-31661179D01*
X50489865Y-31847517D01*
X50393734Y-32053673D01*
X50393730Y-32053682D01*
X50341127Y-32249999D01*
X48000000Y-32249999D01*
X48000000Y-22624500D01*
X48019685Y-22557461D01*
X48072489Y-22511706D01*
X48124000Y-22500500D01*
X60172364Y-22500500D01*
X60239403Y-22520185D01*
G37*
%TD.AperFunction*%
%TD*%
M02*
