%TF.GenerationSoftware,KiCad,Pcbnew,8.0.8*%
%TF.CreationDate,2025-02-09T13:51:33-05:00*%
%TF.ProjectId,ESPHomeACMonitor,45535048-6f6d-4654-9143-4d6f6e69746f,rev?*%
%TF.SameCoordinates,Original*%
%TF.FileFunction,Paste,Top*%
%TF.FilePolarity,Positive*%
%FSLAX46Y46*%
G04 Gerber Fmt 4.6, Leading zero omitted, Abs format (unit mm)*
G04 Created by KiCad (PCBNEW 8.0.8) date 2025-02-09 13:51:33*
%MOMM*%
%LPD*%
G01*
G04 APERTURE LIST*
G04 Aperture macros list*
%AMRoundRect*
0 Rectangle with rounded corners*
0 $1 Rounding radius*
0 $2 $3 $4 $5 $6 $7 $8 $9 X,Y pos of 4 corners*
0 Add a 4 corners polygon primitive as box body*
4,1,4,$2,$3,$4,$5,$6,$7,$8,$9,$2,$3,0*
0 Add four circle primitives for the rounded corners*
1,1,$1+$1,$2,$3*
1,1,$1+$1,$4,$5*
1,1,$1+$1,$6,$7*
1,1,$1+$1,$8,$9*
0 Add four rect primitives between the rounded corners*
20,1,$1+$1,$2,$3,$4,$5,0*
20,1,$1+$1,$4,$5,$6,$7,0*
20,1,$1+$1,$6,$7,$8,$9,0*
20,1,$1+$1,$8,$9,$2,$3,0*%
G04 Aperture macros list end*
%ADD10RoundRect,0.150000X0.150000X-0.825000X0.150000X0.825000X-0.150000X0.825000X-0.150000X-0.825000X0*%
%ADD11RoundRect,0.250000X0.950000X0.425000X-0.950000X0.425000X-0.950000X-0.425000X0.950000X-0.425000X0*%
%ADD12R,0.900000X1.500000*%
%ADD13R,0.900000X0.900000*%
%ADD14R,5.400000X2.900000*%
%ADD15RoundRect,0.250000X0.300000X-2.050000X0.300000X2.050000X-0.300000X2.050000X-0.300000X-2.050000X0*%
%ADD16RoundRect,0.250000X2.375000X-2.025000X2.375000X2.025000X-2.375000X2.025000X-2.375000X-2.025000X0*%
G04 APERTURE END LIST*
D10*
%TO.C,U4*%
X33595000Y-82025000D03*
X34865000Y-82025000D03*
X36135000Y-82025000D03*
X37405000Y-82025000D03*
X37405000Y-86975000D03*
X36135000Y-86975000D03*
X34865000Y-86975000D03*
X33595000Y-86975000D03*
%TD*%
%TO.C,U3*%
X45595000Y-82025000D03*
X46865000Y-82025000D03*
X48135000Y-82025000D03*
X49405000Y-82025000D03*
X49405000Y-86975000D03*
X48135000Y-86975000D03*
X46865000Y-86975000D03*
X45595000Y-86975000D03*
%TD*%
D11*
%TO.C,U2*%
X74200000Y-96810000D03*
X74200000Y-94270000D03*
X74200000Y-91730000D03*
X74200000Y-89190000D03*
X57800000Y-89190000D03*
X57800000Y-91730000D03*
X57800000Y-94270000D03*
X57800000Y-96810000D03*
%TD*%
D12*
%TO.C,U1*%
X75755000Y-62750000D03*
X74485000Y-62750000D03*
X73215000Y-62750000D03*
X71945000Y-62750000D03*
X70675000Y-62750000D03*
X69405000Y-62750000D03*
X68135000Y-62750000D03*
X66865000Y-62750000D03*
X65595000Y-62750000D03*
X64325000Y-62750000D03*
X63055000Y-62750000D03*
X61785000Y-62750000D03*
X60515000Y-62750000D03*
X59245000Y-62750000D03*
X57975000Y-62750000D03*
X56705000Y-62750000D03*
X55435000Y-62750000D03*
X54165000Y-62750000D03*
X52895000Y-62750000D03*
X52895000Y-80250000D03*
X54165000Y-80250000D03*
X55435000Y-80250000D03*
X56705000Y-80250000D03*
X57975000Y-80250000D03*
X59245000Y-80250000D03*
X60515000Y-80250000D03*
X61785000Y-80250000D03*
X63055000Y-80250000D03*
X64325000Y-80250000D03*
X65595000Y-80250000D03*
X66865000Y-80250000D03*
X68135000Y-80250000D03*
X69405000Y-80250000D03*
X70675000Y-80250000D03*
X71945000Y-80250000D03*
X73215000Y-80250000D03*
X74485000Y-80250000D03*
X75755000Y-80250000D03*
D13*
X69360000Y-68595000D03*
X67960000Y-68600000D03*
X66560000Y-68600000D03*
X69360000Y-70000000D03*
X67960000Y-70000000D03*
X66560000Y-70000000D03*
X69360000Y-71400000D03*
X67960000Y-71400000D03*
X66560000Y-71400000D03*
%TD*%
D14*
%TO.C,L1*%
X58500000Y-42650000D03*
X58500000Y-52350000D03*
%TD*%
D15*
%TO.C,U5*%
X74400000Y-42650000D03*
X72700000Y-42650000D03*
D16*
X73775000Y-31075000D03*
X68225000Y-31075000D03*
X73775000Y-35925000D03*
X68225000Y-35925000D03*
D15*
X71000000Y-42650000D03*
X69300000Y-42650000D03*
X67600000Y-42650000D03*
%TD*%
M02*
